<svg width="1686" height="1524" viewBox="0 0 1686 1524" fill="none" xmlns="http://www.w3.org/2000/svg">
<path d="M10.8 1469.32L18.444 1469.71C20.9267 1469.71 22.168 1468.27 22.168 1465.4V1367.79C22.168 1366.22 21.8413 1365.11 21.188 1364.46C20.5347 1363.67 19.3587 1363.35 17.66 1363.48L10.8 1363.87V1357.99H56.86C70.4493 1357.99 80.4453 1360.6 86.848 1365.83C93.3813 1370.92 96.648 1378.83 96.648 1389.54C96.648 1399.87 93.4467 1408.1 87.044 1414.24C80.6413 1420.38 71.952 1423.45 60.976 1423.45H40.396V1465.4C40.396 1468.27 41.7027 1469.71 44.316 1469.71L53.92 1469.32V1475H10.8V1469.32ZM56.86 1417.96C62.8707 1417.96 67.836 1415.29 71.756 1409.93C75.8067 1404.57 77.832 1397.78 77.832 1389.54C77.832 1381.7 75.6107 1375.43 71.168 1370.73C66.856 1365.89 61.0413 1363.48 53.724 1363.48H42.748C42.2253 1363.48 41.7027 1363.74 41.18 1364.26C40.6573 1364.65 40.396 1365.17 40.396 1365.83V1417.96H56.86ZM156.592 1390.72C161.688 1390.72 165.608 1392.16 168.352 1395.03C171.227 1397.91 172.664 1401.57 172.664 1406.01C172.664 1409.01 171.88 1411.3 170.312 1412.87C168.875 1414.44 166.915 1415.22 164.432 1415.22C162.603 1415.22 160.904 1414.76 159.336 1413.85C157.899 1412.8 157.18 1411.23 157.18 1409.14C157.18 1407.97 157.441 1406.47 157.964 1404.64C158.487 1402.81 158.748 1401.37 158.748 1400.32C158.748 1399.28 158.356 1398.36 157.572 1397.58C156.919 1396.67 155.808 1396.21 154.24 1396.21C150.189 1396.21 146.661 1398.17 143.656 1402.09C140.651 1405.88 138.299 1410.65 136.6 1416.4C134.901 1422.01 133.921 1427.44 133.66 1432.66V1466.57C133.66 1469.05 134.509 1470.3 136.208 1470.3L148.164 1469.9V1475H107.984V1469.9L114.256 1470.3C115.955 1470.3 116.804 1469.05 116.804 1466.57V1401.3C116.804 1398.69 115.955 1397.38 114.256 1397.38L107.2 1397.78V1392.68H134.836C134.575 1393.46 134.313 1394.77 134.052 1396.6C133.791 1398.3 133.66 1400 133.66 1401.7V1411.3C136.665 1403.98 139.997 1398.76 143.656 1395.62C147.445 1392.35 151.757 1390.72 156.592 1390.72ZM259.651 1469.9V1475H231.819C231.95 1474.09 232.08 1472.91 232.211 1471.47C232.472 1469.9 232.603 1468.66 232.603 1467.75L232.995 1460.1C230.12 1465.72 226.396 1469.77 221.823 1472.26C217.38 1474.74 212.023 1475.98 205.751 1475.98C197.519 1475.98 191.247 1474.15 186.935 1470.49C182.754 1466.7 180.663 1461.15 180.663 1453.83C180.663 1443.77 184.844 1436.39 193.207 1431.68C201.7 1426.85 214.963 1424.43 232.995 1424.43V1413.06C232.995 1406.92 231.558 1402.55 228.683 1399.93C225.808 1397.32 221.17 1396.01 214.767 1396.01C204.836 1396.01 199.871 1398.76 199.871 1404.24C199.871 1405.29 200.132 1406.53 200.655 1407.97C201.308 1409.27 201.635 1410.52 201.635 1411.69C201.635 1413.91 200.916 1415.61 199.479 1416.79C198.042 1417.83 196.212 1418.36 193.991 1418.36C191.247 1418.36 189.091 1417.51 187.523 1415.81C186.086 1414.11 185.367 1411.89 185.367 1409.14C185.367 1403.66 188.242 1399.21 193.991 1395.82C199.74 1392.42 207.45 1390.72 217.119 1390.72C238.94 1390.72 249.851 1399.93 249.851 1418.36V1466.57C249.851 1469.05 250.7 1470.3 252.399 1470.3L259.651 1469.9ZM211.631 1468.92C217.38 1468.92 222.28 1466.57 226.331 1461.87C230.382 1457.03 232.603 1450.83 232.995 1443.25V1429.72C220.712 1429.72 211.892 1431.55 206.535 1435.21C201.178 1438.74 198.499 1444.42 198.499 1452.26C198.499 1457.75 199.61 1461.93 201.831 1464.81C204.183 1467.55 207.45 1468.92 211.631 1468.92ZM287.325 1348.97C290.461 1348.97 293.009 1349.82 294.969 1351.52C297.06 1353.22 298.105 1355.44 298.105 1358.18C298.105 1361.19 297.125 1363.54 295.165 1365.24C293.205 1366.81 290.592 1367.59 287.325 1367.59C284.189 1367.59 281.641 1366.81 279.681 1365.24C277.721 1363.54 276.741 1361.19 276.741 1358.18C276.741 1355.44 277.721 1353.22 279.681 1351.52C281.641 1349.82 284.189 1348.97 287.325 1348.97ZM297.125 1466.57C297.125 1469.05 297.975 1470.3 299.673 1470.3L306.729 1469.9V1475H270.469V1469.9L277.721 1470.3C279.42 1470.3 280.269 1469.05 280.269 1466.57V1401.3C280.269 1399.08 279.485 1397.78 277.917 1397.38L270.665 1397.78V1392.68H297.125V1466.57ZM369.818 1390.72C374.914 1390.72 378.834 1392.16 381.578 1395.03C384.453 1397.91 385.89 1401.57 385.89 1406.01C385.89 1409.01 385.106 1411.3 383.538 1412.87C382.101 1414.44 380.141 1415.22 377.658 1415.22C375.829 1415.22 374.13 1414.76 372.562 1413.85C371.125 1412.8 370.406 1411.23 370.406 1409.14C370.406 1407.97 370.668 1406.47 371.19 1404.64C371.713 1402.81 371.974 1401.37 371.974 1400.32C371.974 1399.28 371.582 1398.36 370.798 1397.58C370.145 1396.67 369.034 1396.21 367.466 1396.21C363.416 1396.21 359.888 1398.17 356.882 1402.09C353.877 1405.88 351.525 1410.65 349.826 1416.4C348.128 1422.01 347.148 1427.44 346.886 1432.66V1466.57C346.886 1469.05 347.736 1470.3 349.434 1470.3L361.39 1469.9V1475H321.21V1469.9L327.482 1470.3C329.181 1470.3 330.03 1469.05 330.03 1466.57V1401.3C330.03 1398.69 329.181 1397.38 327.482 1397.38L320.426 1397.78V1392.68H348.062C347.801 1393.46 347.54 1394.77 347.278 1396.6C347.017 1398.3 346.886 1400 346.886 1401.7V1411.3C349.892 1403.98 353.224 1398.76 356.882 1395.62C360.672 1392.35 364.984 1390.72 369.818 1390.72ZM412.314 1348.97C415.45 1348.97 417.998 1349.82 419.958 1351.52C422.048 1353.22 423.094 1355.44 423.094 1358.18C423.094 1361.19 422.114 1363.54 420.154 1365.24C418.194 1366.81 415.58 1367.59 412.314 1367.59C409.178 1367.59 406.63 1366.81 404.67 1365.24C402.71 1363.54 401.73 1361.19 401.73 1358.18C401.73 1355.44 402.71 1353.22 404.67 1351.52C406.63 1349.82 409.178 1348.97 412.314 1348.97ZM422.114 1466.57C422.114 1469.05 422.963 1470.3 424.662 1470.3L431.718 1469.9V1475H395.458V1469.9L402.71 1470.3C404.408 1470.3 405.258 1469.05 405.258 1466.57V1401.3C405.258 1399.08 404.474 1397.78 402.906 1397.38L395.654 1397.78V1392.68H422.114V1466.57ZM484.811 1390.72C495.133 1390.72 503.431 1394.05 509.703 1400.72C516.105 1407.25 519.437 1416.27 519.699 1427.76V1433.45H463.251C463.251 1445.34 465.276 1454.49 469.327 1460.89C473.508 1467.16 479.715 1470.36 487.947 1470.49C494.48 1470.49 499.968 1468.86 504.411 1465.59C508.984 1462.33 512.316 1458.27 514.407 1453.44L518.915 1456.77C516.301 1463.04 511.859 1468.01 505.587 1471.67C499.445 1475.2 492.651 1476.96 485.203 1476.96C458.677 1476.96 445.415 1462.65 445.415 1434.04C445.415 1419.79 448.747 1409.01 455.411 1401.7C462.075 1394.38 471.875 1390.72 484.811 1390.72ZM484.811 1396.01C477.493 1396.01 472.071 1399.02 468.543 1405.03C465.145 1411.04 463.447 1418.88 463.447 1428.55H499.119C500.425 1428.55 501.405 1428.09 502.059 1427.18C502.712 1426.26 503.039 1424.56 503.039 1422.08C503.039 1413.19 501.601 1406.66 498.727 1402.48C495.983 1398.17 491.344 1396.01 484.811 1396.01ZM579.468 1469.32L587.896 1469.71C589.856 1469.71 590.836 1468.27 590.836 1465.4V1367.59C590.836 1366.42 590.509 1365.44 589.856 1364.65C589.203 1363.87 588.288 1363.48 587.112 1363.48L579.468 1363.87V1357.99H623.568C644.475 1357.99 659.893 1362.56 669.824 1371.71C679.885 1380.72 684.916 1395.62 684.916 1416.4C684.916 1455.47 665.251 1475 625.92 1475H579.468V1469.32ZM609.064 1466.96C609.064 1468.66 609.848 1469.51 611.416 1469.51H620.236C631.212 1469.51 639.901 1467.81 646.304 1464.42C652.837 1460.89 657.541 1455.27 660.416 1447.56C663.421 1439.85 664.924 1429.53 664.924 1416.59C664.924 1403.66 663.421 1393.33 660.416 1385.62C657.541 1377.91 652.837 1372.3 646.304 1368.77C639.771 1365.24 631.081 1363.48 620.236 1363.48H611.416C609.848 1363.48 609.064 1364.33 609.064 1366.02V1466.96ZM698.645 1433.64C698.645 1420.32 701.977 1409.86 708.641 1402.28C715.305 1394.57 725.105 1390.72 738.041 1390.72C750.977 1390.72 760.777 1394.57 767.441 1402.28C774.105 1409.86 777.437 1420.32 777.437 1433.64C777.437 1447.23 774.105 1457.88 767.441 1465.59C760.777 1473.17 750.977 1476.96 738.041 1476.96C725.105 1476.96 715.305 1473.17 708.641 1465.59C701.977 1457.88 698.645 1447.23 698.645 1433.64ZM716.481 1434.04C716.481 1447.23 718.114 1456.84 721.381 1462.85C724.778 1468.73 730.332 1471.67 738.041 1471.67C745.75 1471.67 751.238 1468.73 754.505 1462.85C757.902 1456.84 759.601 1447.23 759.601 1434.04C759.601 1420.71 757.902 1411.04 754.505 1405.03C751.238 1399.02 745.75 1396.01 738.041 1396.01C730.332 1396.01 724.778 1399.02 721.381 1405.03C718.114 1411.04 716.481 1420.71 716.481 1434.04ZM860.674 1387.39C859.368 1387.39 857.277 1388.11 854.402 1389.54C851.658 1390.98 849.437 1392.75 847.738 1394.84C857.408 1399.67 862.242 1408.1 862.242 1420.12C862.242 1428.74 859.172 1435.8 853.03 1441.29C846.889 1446.65 838.788 1449.32 828.726 1449.32C823.238 1449.32 818.142 1448.34 813.438 1446.38C808.996 1449.13 806.774 1452 806.774 1455.01C806.774 1459.84 810.433 1462.26 817.75 1462.26H843.818C853.488 1462.26 860.74 1464.35 865.574 1468.53C870.54 1472.71 873.022 1479.7 873.022 1489.5C873.022 1496.17 871.062 1502.05 867.142 1507.14C863.353 1512.24 857.93 1516.16 850.874 1518.9C843.818 1521.65 835.652 1523.02 826.374 1523.02C814.876 1523.02 805.99 1520.8 799.718 1516.36C793.577 1511.91 790.506 1505.45 790.506 1496.95C790.506 1491.73 791.944 1487.28 794.818 1483.62C797.824 1479.97 802.266 1476.76 808.146 1474.02C798.477 1472.19 793.642 1467.88 793.642 1461.08C793.642 1458.6 794.296 1456.51 795.602 1454.81C797.04 1452.98 799.457 1450.7 802.854 1447.95L808.146 1443.64C804.226 1441.16 801.09 1437.96 798.738 1434.04C796.517 1429.99 795.406 1425.35 795.406 1420.12C795.406 1411.37 798.477 1404.31 804.618 1398.95C810.89 1393.46 818.926 1390.72 828.726 1390.72C834.214 1390.72 839.18 1391.5 843.622 1393.07C846.889 1388.63 850.874 1384.71 855.578 1381.31C860.413 1377.78 864.137 1376.02 866.75 1376.02C870.017 1376.02 872.304 1376.93 873.61 1378.76C875.048 1380.46 875.766 1382.42 875.766 1384.64C875.766 1386.34 875.178 1387.98 874.002 1389.54C872.826 1391.11 871.324 1391.9 869.494 1391.9C867.926 1391.9 866.75 1391.7 865.966 1391.31C865.182 1390.79 864.333 1390 863.418 1388.96C862.634 1387.91 861.72 1387.39 860.674 1387.39ZM828.726 1444.82C834.868 1444.82 839.049 1442.99 841.27 1439.33C843.622 1435.54 844.798 1429.14 844.798 1420.12C844.798 1411.37 843.622 1405.16 841.27 1401.5C838.918 1397.84 834.737 1396.01 828.726 1396.01C822.716 1396.01 818.534 1397.78 816.182 1401.3C813.961 1404.7 812.85 1410.97 812.85 1420.12C812.85 1426.52 813.308 1431.49 814.222 1435.02C815.137 1438.54 816.705 1441.09 818.926 1442.66C821.278 1444.1 824.545 1444.82 828.726 1444.82ZM821.278 1475C817.489 1475 813.961 1476.05 810.694 1478.14C807.428 1480.23 804.814 1482.91 802.854 1486.17C801.025 1489.57 800.11 1493.03 800.11 1496.56C800.11 1502.96 802.266 1508.12 806.578 1512.04C811.021 1515.96 817.554 1517.92 826.178 1517.92C837.024 1517.92 845.386 1515.44 851.266 1510.48C857.146 1505.51 860.086 1498.98 860.086 1490.88C860.086 1485.52 858.518 1481.53 855.382 1478.92C852.377 1476.31 847.542 1475 840.878 1475H821.278ZM1075.82 1469.32V1475H1032.7V1469.32L1042.31 1469.71C1044.92 1469.71 1046.23 1468.27 1046.23 1465.4V1373.28L999.577 1476.96H994.873L944.501 1371.71V1465.4C944.501 1468.27 945.742 1469.71 948.225 1469.71L957.829 1469.32V1475H926.273V1469.32L933.917 1469.71C936.53 1469.71 937.837 1468.27 937.837 1465.4V1364.65C937.837 1363.74 937.184 1363.35 935.877 1363.48L927.645 1363.87V1357.99H957.829L1003.5 1452.85L1046.42 1357.99H1074.84V1363.87L1068.18 1363.48H1067.79C1066.74 1363.48 1065.89 1363.87 1065.24 1364.65C1064.58 1365.44 1064.26 1366.35 1064.26 1367.4V1465.4C1064.26 1468.27 1065.56 1469.71 1068.18 1469.71L1075.82 1469.32ZM1169.98 1469.9V1475H1142.15C1142.28 1474.09 1142.41 1472.91 1142.54 1471.47C1142.8 1469.9 1142.93 1468.66 1142.93 1467.75L1143.32 1460.1C1140.45 1465.72 1136.72 1469.77 1132.15 1472.26C1127.71 1474.74 1122.35 1475.98 1116.08 1475.98C1107.85 1475.98 1101.58 1474.15 1097.26 1470.49C1093.08 1466.7 1090.99 1461.15 1090.99 1453.83C1090.99 1443.77 1095.17 1436.39 1103.54 1431.68C1112.03 1426.85 1125.29 1424.43 1143.32 1424.43V1413.06C1143.32 1406.92 1141.89 1402.55 1139.01 1399.93C1136.14 1397.32 1131.5 1396.01 1125.1 1396.01C1115.16 1396.01 1110.2 1398.76 1110.2 1404.24C1110.2 1405.29 1110.46 1406.53 1110.98 1407.97C1111.64 1409.27 1111.96 1410.52 1111.96 1411.69C1111.96 1413.91 1111.24 1415.61 1109.81 1416.79C1108.37 1417.83 1106.54 1418.36 1104.32 1418.36C1101.58 1418.36 1099.42 1417.51 1097.85 1415.81C1096.41 1414.11 1095.7 1411.89 1095.7 1409.14C1095.7 1403.66 1098.57 1399.21 1104.32 1395.82C1110.07 1392.42 1117.78 1390.72 1127.45 1390.72C1149.27 1390.72 1160.18 1399.93 1160.18 1418.36V1466.57C1160.18 1469.05 1161.03 1470.3 1162.73 1470.3L1169.98 1469.9ZM1121.96 1468.92C1127.71 1468.92 1132.61 1466.57 1136.66 1461.87C1140.71 1457.03 1142.93 1450.83 1143.32 1443.25V1429.72C1131.04 1429.72 1122.22 1431.55 1116.86 1435.21C1111.51 1438.74 1108.83 1444.42 1108.83 1452.26C1108.83 1457.75 1109.94 1461.93 1112.16 1464.81C1114.51 1467.55 1117.78 1468.92 1121.96 1468.92ZM1250.38 1387.39C1249.07 1387.39 1246.98 1388.11 1244.11 1389.54C1241.36 1390.98 1239.14 1392.75 1237.44 1394.84C1247.11 1399.67 1251.95 1408.1 1251.95 1420.12C1251.95 1428.74 1248.87 1435.8 1242.73 1441.29C1236.59 1446.65 1228.49 1449.32 1218.43 1449.32C1212.94 1449.32 1207.85 1448.34 1203.14 1446.38C1198.7 1449.13 1196.48 1452 1196.48 1455.01C1196.48 1459.84 1200.14 1462.26 1207.45 1462.26H1233.52C1243.19 1462.26 1250.44 1464.35 1255.28 1468.53C1260.24 1472.71 1262.73 1479.7 1262.73 1489.5C1262.73 1496.17 1260.77 1502.05 1256.85 1507.14C1253.06 1512.24 1247.63 1516.16 1240.58 1518.9C1233.52 1521.65 1225.35 1523.02 1216.08 1523.02C1204.58 1523.02 1195.69 1520.8 1189.42 1516.36C1183.28 1511.91 1180.21 1505.45 1180.21 1496.95C1180.21 1491.73 1181.65 1487.28 1184.52 1483.62C1187.53 1479.97 1191.97 1476.76 1197.85 1474.02C1188.18 1472.19 1183.35 1467.88 1183.35 1461.08C1183.35 1458.6 1184 1456.51 1185.31 1454.81C1186.74 1452.98 1189.16 1450.7 1192.56 1447.95L1197.85 1443.64C1193.93 1441.16 1190.79 1437.96 1188.44 1434.04C1186.22 1429.99 1185.11 1425.35 1185.11 1420.12C1185.11 1411.37 1188.18 1404.31 1194.32 1398.95C1200.59 1393.46 1208.63 1390.72 1218.43 1390.72C1223.92 1390.72 1228.88 1391.5 1233.33 1393.07C1236.59 1388.63 1240.58 1384.71 1245.28 1381.31C1250.12 1377.78 1253.84 1376.02 1256.45 1376.02C1259.72 1376.02 1262.01 1376.93 1263.31 1378.76C1264.75 1380.46 1265.47 1382.42 1265.47 1384.64C1265.47 1386.34 1264.88 1387.98 1263.71 1389.54C1262.53 1391.11 1261.03 1391.9 1259.2 1391.9C1257.63 1391.9 1256.45 1391.7 1255.67 1391.31C1254.89 1390.79 1254.04 1390 1253.12 1388.96C1252.34 1387.91 1251.42 1387.39 1250.38 1387.39ZM1218.43 1444.82C1224.57 1444.82 1228.75 1442.99 1230.97 1439.33C1233.33 1435.54 1234.5 1429.14 1234.5 1420.12C1234.5 1411.37 1233.33 1405.16 1230.97 1401.5C1228.62 1397.84 1224.44 1396.01 1218.43 1396.01C1212.42 1396.01 1208.24 1397.78 1205.89 1401.3C1203.66 1404.7 1202.55 1410.97 1202.55 1420.12C1202.55 1426.52 1203.01 1431.49 1203.93 1435.02C1204.84 1438.54 1206.41 1441.09 1208.63 1442.66C1210.98 1444.1 1214.25 1444.82 1218.43 1444.82ZM1210.98 1475C1207.19 1475 1203.66 1476.05 1200.4 1478.14C1197.13 1480.23 1194.52 1482.91 1192.56 1486.17C1190.73 1489.57 1189.81 1493.03 1189.81 1496.56C1189.81 1502.96 1191.97 1508.12 1196.28 1512.04C1200.72 1515.96 1207.26 1517.92 1215.88 1517.92C1226.73 1517.92 1235.09 1515.44 1240.97 1510.48C1246.85 1505.51 1249.79 1498.98 1249.79 1490.88C1249.79 1485.52 1248.22 1481.53 1245.09 1478.92C1242.08 1476.31 1237.25 1475 1230.58 1475H1210.98ZM1348.37 1469.9V1475H1320.54C1320.67 1474.09 1320.8 1472.91 1320.93 1471.47C1321.19 1469.9 1321.32 1468.66 1321.32 1467.75L1321.71 1460.1C1318.84 1465.72 1315.12 1469.77 1310.54 1472.26C1306.1 1474.74 1300.74 1475.98 1294.47 1475.98C1286.24 1475.98 1279.97 1474.15 1275.65 1470.49C1271.47 1466.7 1269.38 1461.15 1269.38 1453.83C1269.38 1443.77 1273.56 1436.39 1281.93 1431.68C1290.42 1426.85 1303.68 1424.43 1321.71 1424.43V1413.06C1321.71 1406.92 1320.28 1402.55 1317.4 1399.93C1314.53 1397.32 1309.89 1396.01 1303.49 1396.01C1293.56 1396.01 1288.59 1398.76 1288.59 1404.24C1288.59 1405.29 1288.85 1406.53 1289.37 1407.97C1290.03 1409.27 1290.35 1410.52 1290.35 1411.69C1290.35 1413.91 1289.64 1415.61 1288.2 1416.79C1286.76 1417.83 1284.93 1418.36 1282.71 1418.36C1279.97 1418.36 1277.81 1417.51 1276.24 1415.81C1274.8 1414.11 1274.09 1411.89 1274.09 1409.14C1274.09 1403.66 1276.96 1399.21 1282.71 1395.82C1288.46 1392.42 1296.17 1390.72 1305.84 1390.72C1327.66 1390.72 1338.57 1399.93 1338.57 1418.36V1466.57C1338.57 1469.05 1339.42 1470.3 1341.12 1470.3L1348.37 1469.9ZM1300.35 1468.92C1306.1 1468.92 1311 1466.57 1315.05 1461.87C1319.1 1457.03 1321.32 1450.83 1321.71 1443.25V1429.72C1309.43 1429.72 1300.61 1431.55 1295.25 1435.21C1289.9 1438.74 1287.22 1444.42 1287.22 1452.26C1287.22 1457.75 1288.33 1461.93 1290.55 1464.81C1292.9 1467.55 1296.17 1468.92 1300.35 1468.92ZM1430.34 1447.76V1475H1379.38L1362.91 1475.2C1361.74 1475.33 1360.43 1475.39 1358.99 1475.39V1471.47L1407.8 1397.58H1388.59C1382.05 1397.58 1376.76 1399.54 1372.71 1403.46C1368.79 1407.38 1366.31 1412.93 1365.26 1420.12H1361.15L1362.91 1392.29C1363.3 1392.29 1365.2 1392.35 1368.6 1392.48C1372.12 1392.61 1376.5 1392.68 1381.73 1392.68H1428.38V1396.4L1380.16 1470.1H1400.94C1409.17 1470.1 1415.44 1468.27 1419.75 1464.61C1424.06 1460.82 1426.22 1455.2 1426.22 1447.76H1430.34ZM1462.56 1348.97C1465.7 1348.97 1468.24 1349.82 1470.2 1351.52C1472.29 1353.22 1473.34 1355.44 1473.34 1358.18C1473.34 1361.19 1472.36 1363.54 1470.4 1365.24C1468.44 1366.81 1465.83 1367.59 1462.56 1367.59C1459.42 1367.59 1456.88 1366.81 1454.92 1365.24C1452.96 1363.54 1451.98 1361.19 1451.98 1358.18C1451.98 1355.44 1452.96 1353.22 1454.92 1351.52C1456.88 1349.82 1459.42 1348.97 1462.56 1348.97ZM1472.36 1466.57C1472.36 1469.05 1473.21 1470.3 1474.91 1470.3L1481.96 1469.9V1475H1445.7V1469.9L1452.96 1470.3C1454.65 1470.3 1455.5 1469.05 1455.5 1466.57V1401.3C1455.5 1399.08 1454.72 1397.78 1453.15 1397.38L1445.9 1397.78V1392.68H1472.36V1466.57ZM1587.78 1469.9V1475H1549.56V1469.9L1558.58 1470.3C1560.28 1469.9 1561.12 1468.66 1561.12 1466.57V1422.08C1561.12 1415.81 1560.8 1410.97 1560.14 1407.58C1559.62 1404.18 1558.45 1401.57 1556.62 1399.74C1554.79 1397.91 1551.91 1396.99 1547.99 1396.99C1540.54 1396.99 1534.47 1400.19 1529.76 1406.6C1525.19 1412.87 1522.71 1421.36 1522.32 1432.08V1466.57C1522.32 1469.05 1523.17 1470.3 1524.86 1470.3L1533.88 1469.9V1475H1495.66V1469.9L1502.91 1470.3C1504.61 1469.9 1505.46 1468.66 1505.46 1466.57V1401.3C1505.46 1399.08 1504.61 1397.78 1502.91 1397.38L1495.66 1397.78V1392.68H1523.3C1522.64 1394.64 1522.32 1396.93 1522.32 1399.54V1410.32C1525.06 1404.18 1528.98 1399.41 1534.08 1396.01C1539.17 1392.48 1545.05 1390.72 1551.72 1390.72C1560.99 1390.72 1567.66 1392.94 1571.71 1397.38C1575.89 1401.7 1577.98 1408.75 1577.98 1418.55V1466.57C1577.98 1469.05 1578.83 1470.3 1580.53 1470.3L1587.78 1469.9ZM1638.03 1390.72C1648.36 1390.72 1656.65 1394.05 1662.93 1400.72C1669.33 1407.25 1672.66 1416.27 1672.92 1427.76V1433.45H1616.47C1616.47 1445.34 1618.5 1454.49 1622.55 1460.89C1626.73 1467.16 1632.94 1470.36 1641.17 1470.49C1647.7 1470.49 1653.19 1468.86 1657.63 1465.59C1662.21 1462.33 1665.54 1458.27 1667.63 1453.44L1672.14 1456.77C1669.52 1463.04 1665.08 1468.01 1658.81 1471.67C1652.67 1475.2 1645.87 1476.96 1638.43 1476.96C1611.9 1476.96 1598.64 1462.65 1598.64 1434.04C1598.64 1419.79 1601.97 1409.01 1608.63 1401.7C1615.3 1394.38 1625.1 1390.72 1638.03 1390.72ZM1638.03 1396.01C1630.72 1396.01 1625.29 1399.02 1621.77 1405.03C1618.37 1411.04 1616.67 1418.88 1616.67 1428.55H1652.34C1653.65 1428.55 1654.63 1428.09 1655.28 1427.18C1655.93 1426.26 1656.26 1424.56 1656.26 1422.08C1656.26 1413.19 1654.82 1406.66 1651.95 1402.48C1649.21 1398.17 1644.57 1396.01 1638.03 1396.01Z" fill="white"/>
<path d="M665.502 317.929C679.272 317.929 689.721 320.845 696.849 326.677C703.977 332.509 707.541 341.176 707.541 352.678C707.541 361.264 704.463 368.554 698.307 374.548C692.313 380.38 684.213 384.187 674.007 385.969C681.621 385.969 688.587 387.589 694.905 390.829C701.223 394.069 706.245 398.605 709.971 404.437C713.697 410.107 715.56 416.506 715.56 423.634C715.56 449.878 697.659 463 661.857 463H598.191V455.953L610.341 456.439C613.257 456.439 614.715 454.657 614.715 451.093V329.593C614.715 328.459 614.31 327.406 613.5 326.434C612.852 325.3 611.88 324.733 610.584 324.733L598.191 325.219V317.929H665.502ZM640.23 324.733C638.61 324.733 637.638 325.705 637.314 327.649V383.539H655.782C674.898 383.539 684.456 373.333 684.456 352.921C684.456 344.173 681.783 337.288 676.437 332.266C671.253 327.244 663.882 324.733 654.324 324.733H640.23ZM637.314 390.343V453.037C637.314 455.143 638.448 456.196 640.716 456.196H657.726C668.094 456.196 676.356 453.28 682.512 447.448C688.83 441.616 691.989 433.678 691.989 423.634C691.989 401.44 682.107 390.343 662.343 390.343H637.314ZM737.489 455.71L747.209 456.439C750.125 456.439 751.583 454.657 751.583 451.093V329.836C751.583 328.378 751.097 327.163 750.125 326.191C749.315 325.057 748.181 324.571 746.723 324.733L737.489 325.219V317.929H840.035C842.303 317.929 843.68 317.848 844.166 317.686V355.351H837.605C837.605 344.497 834.851 336.721 829.343 332.023C823.997 327.163 815.249 324.733 803.099 324.733H777.098C775.154 324.733 774.182 325.867 774.182 328.135V384.025H797.024C802.532 384.025 806.987 381.838 810.389 377.464C813.791 373.09 815.492 367.096 815.492 359.482H822.053V415.615H815.492C815.492 408.487 813.629 402.574 809.903 397.876C806.339 393.178 802.046 390.829 797.024 390.829H774.182V453.037C774.182 455.143 775.154 456.196 777.098 456.196H811.118C822.134 456.196 830.477 453.037 836.147 446.719C841.979 440.401 844.895 431.329 844.895 419.503H851.456V463.729C847.892 463.243 840.764 463 830.072 463H737.489V455.71ZM880.003 413.671C883.729 443.641 898.633 458.626 924.715 458.626C932.815 458.626 939.214 455.953 943.912 450.607C948.772 445.261 951.283 438.214 951.445 429.466C951.445 423.148 949.258 417.64 944.884 412.942C940.672 408.082 934.84 404.194 927.388 401.278L902.602 391.315C893.854 387.751 887.212 382.972 882.676 376.978C878.14 370.984 875.872 363.937 875.872 355.837C875.872 348.547 877.573 341.824 880.975 335.668C884.377 329.512 889.48 324.652 896.284 321.088C903.088 317.362 911.269 315.499 920.827 315.499C926.011 315.499 930.385 315.985 933.949 316.957C937.675 317.767 941.32 318.82 944.884 320.116C948.448 321.25 950.878 322.06 952.174 322.546C954.766 323.518 956.953 324.004 958.735 324.004C961.651 324.004 964 323.68 965.782 323.032C965.296 326.92 965.053 332.995 965.053 341.257C965.053 346.117 965.134 349.6 965.296 351.706C965.458 353.812 965.863 355.756 966.511 357.538H960.193C960.193 347.008 956.71 338.503 949.744 332.023C942.94 325.381 934.354 322.06 923.986 322.06C915.562 322.06 908.758 324.409 903.574 329.107C898.39 333.643 895.798 340.042 895.798 348.304C895.798 353.65 897.661 358.51 901.387 362.884C905.113 367.096 910.216 370.498 916.696 373.09L939.052 382.081C951.364 387.103 960.112 392.692 965.296 398.848C970.642 404.842 973.315 412.618 973.315 422.176C973.315 430.6 971.209 438.133 966.997 444.775C962.947 451.255 957.358 456.358 950.23 460.084C943.264 463.648 935.65 465.43 927.388 465.43C922.366 465.43 917.992 465.187 914.266 464.701C910.54 464.377 906.571 463.567 902.359 462.271C893.773 459.841 887.374 458.626 883.162 458.626C881.704 458.626 880.165 458.788 878.545 459.112C876.925 459.436 875.71 459.679 874.9 459.841C875.548 456.439 875.872 449.716 875.872 439.672C875.872 426.55 875.224 417.883 873.928 413.671H880.003ZM985.985 317.2C988.253 317.524 991.493 317.686 995.705 317.686H1097.52C1102.71 317.686 1105.95 317.524 1107.24 317.2V355.108H1100.92C1100.92 344.578 1098.57 336.883 1093.88 332.023C1089.34 327.001 1081.73 324.49 1071.03 324.49H1060.83C1059.21 324.49 1058.24 325.381 1057.91 327.163V451.093C1057.91 454.657 1059.53 456.439 1062.77 456.439L1075.65 455.953V463H1017.57V455.953L1030.7 456.439C1032.15 456.439 1033.29 455.872 1034.1 454.738C1034.91 453.442 1035.31 451.984 1035.31 450.364V327.406C1035.31 325.462 1034.34 324.49 1032.4 324.49H1022.43C1011.74 324.49 1004.05 327.001 999.35 332.023C994.652 336.883 992.303 344.578 992.303 355.108H985.985V317.2ZM517.78 597.929C531.55 597.929 541.999 600.845 549.127 606.677C556.255 612.509 559.819 621.176 559.819 632.678C559.819 641.264 556.741 648.554 550.585 654.548C544.591 660.38 536.491 664.187 526.285 665.969C533.899 665.969 540.865 667.589 547.183 670.829C553.501 674.069 558.523 678.605 562.249 684.437C565.975 690.107 567.838 696.506 567.838 703.634C567.838 729.878 549.937 743 514.135 743H450.469V735.953L462.619 736.439C465.535 736.439 466.993 734.657 466.993 731.093V609.593C466.993 608.459 466.588 607.406 465.778 606.434C465.13 605.3 464.158 604.733 462.862 604.733L450.469 605.219V597.929H517.78ZM492.508 604.733C490.888 604.733 489.916 605.705 489.592 607.649V663.539H508.06C527.176 663.539 536.734 653.333 536.734 632.921C536.734 624.173 534.061 617.288 528.715 612.266C523.531 607.244 516.16 604.733 506.602 604.733H492.508ZM489.592 670.343V733.037C489.592 735.143 490.726 736.196 492.994 736.196H510.004C520.372 736.196 528.634 733.28 534.79 727.448C541.108 721.616 544.267 713.678 544.267 703.634C544.267 681.44 534.385 670.343 514.621 670.343H489.592ZM586.122 597.929H639.339V605.219L627.432 604.733H626.946C625.65 604.733 624.597 605.219 623.787 606.191C622.977 607.163 622.572 608.297 622.572 609.593V694.643C622.572 708.251 626.298 718.862 633.75 726.476C641.364 734.09 651.975 737.897 665.583 737.897C673.359 737.897 680.406 736.034 686.724 732.308C693.042 728.582 697.983 723.479 701.547 716.999C705.111 710.357 706.893 702.986 706.893 694.886V609.836C706.893 608.216 706.488 606.92 705.678 605.948C704.868 604.976 703.815 604.571 702.519 604.733L690.612 605.219V597.929H729.735V605.219L720.258 604.733H719.772C718.476 604.733 717.423 605.219 716.613 606.191C715.803 607.163 715.398 608.297 715.398 609.593V697.073C715.398 706.307 713.049 714.65 708.351 722.102C703.653 729.392 697.173 735.143 688.911 739.355C680.811 743.405 671.577 745.43 661.209 745.43C641.445 745.43 626.298 741.137 615.768 732.551C605.238 723.803 599.973 711.167 599.973 694.643V609.836C599.973 608.378 599.487 607.163 598.515 606.191C597.705 605.057 596.652 604.571 595.356 604.733L586.122 605.219V597.929ZM748.049 735.71L757.769 736.439C760.685 736.439 762.143 734.657 762.143 731.093V609.836C762.143 606.434 760.766 604.733 758.012 604.733H757.526L748.049 605.219V597.929H853.511C855.455 597.929 856.67 597.848 857.156 597.686V635.351H850.595C850.595 624.659 847.841 616.883 842.333 612.023C836.825 607.163 828.077 604.733 816.089 604.733H787.658C785.714 604.733 784.742 605.786 784.742 607.892V666.455H802.967C808.799 666.455 813.416 664.268 816.818 659.894C820.382 655.358 822.164 649.283 822.164 641.669H828.725V697.559H822.164C822.164 690.269 820.382 684.437 816.818 680.063C813.254 675.527 808.637 673.259 802.967 673.259H784.742V731.336C784.742 732.794 785.147 734.009 785.957 734.981C786.929 735.953 788.063 736.439 789.359 736.439L801.995 735.71V743H748.049V735.71ZM876.668 735.71L886.388 736.439C889.304 736.439 890.762 734.657 890.762 731.093V609.836C890.762 606.434 889.385 604.733 886.631 604.733H886.145L876.668 605.219V597.929H982.13C984.074 597.929 985.289 597.848 985.775 597.686V635.351H979.214C979.214 624.659 976.46 616.883 970.952 612.023C965.444 607.163 956.696 604.733 944.708 604.733H916.277C914.333 604.733 913.361 605.786 913.361 607.892V666.455H931.586C937.418 666.455 942.035 664.268 945.437 659.894C949.001 655.358 950.783 649.283 950.783 641.669H957.344V697.559H950.783C950.783 690.269 949.001 684.437 945.437 680.063C941.873 675.527 937.256 673.259 931.586 673.259H913.361V731.336C913.361 732.794 913.766 734.009 914.576 734.981C915.548 735.953 916.682 736.439 917.978 736.439L930.614 735.71V743H876.668V735.71ZM1005.29 735.71L1015.01 736.439C1017.92 736.439 1019.38 734.657 1019.38 731.093V609.836C1019.38 608.378 1018.9 607.163 1017.92 606.191C1017.11 605.057 1015.98 604.571 1014.52 604.733L1005.29 605.219V597.929H1107.83C1110.1 597.929 1111.48 597.848 1111.96 597.686V635.351H1105.4C1105.4 624.497 1102.65 616.721 1097.14 612.023C1091.8 607.163 1083.05 604.733 1070.9 604.733H1044.9C1042.95 604.733 1041.98 605.867 1041.98 608.135V664.025H1064.82C1070.33 664.025 1074.79 661.838 1078.19 657.464C1081.59 653.09 1083.29 647.096 1083.29 639.482H1089.85V695.615H1083.29C1083.29 688.487 1081.43 682.574 1077.7 677.876C1074.14 673.178 1069.84 670.829 1064.82 670.829H1041.98V733.037C1041.98 735.143 1042.95 736.196 1044.9 736.196H1078.92C1089.93 736.196 1098.28 733.037 1103.95 726.719C1109.78 720.401 1112.69 711.329 1112.69 699.503H1119.25V743.729C1115.69 743.243 1108.56 743 1097.87 743H1005.29V735.71ZM1133.71 597.2C1135.98 597.524 1139.22 597.686 1143.43 597.686H1245.24C1250.43 597.686 1253.67 597.524 1254.96 597.2V635.108H1248.65C1248.65 624.578 1246.3 616.883 1241.6 612.023C1237.06 607.001 1229.45 604.49 1218.76 604.49H1208.55C1206.93 604.49 1205.96 605.381 1205.64 607.163V731.093C1205.64 734.657 1207.26 736.439 1210.5 736.439L1223.37 735.953V743H1165.3V735.953L1178.42 736.439C1179.88 736.439 1181.01 735.872 1181.82 734.738C1182.63 733.442 1183.04 731.984 1183.04 730.364V607.406C1183.04 605.462 1182.06 604.49 1180.12 604.49H1170.16C1159.47 604.49 1151.77 607.001 1147.07 612.023C1142.37 616.883 1140.03 624.578 1140.03 635.108H1133.71V597.2Z" fill="white"/>
<path d="M1272.45 0.629166C1272.45 1.02402 1274.17 10.1058 1276.4 20.767C1284.3 60.6477 1291.01 81.9701 1303.39 107.241C1323.65 149.096 1351.95 173.577 1391.7 183.58C1403.68 186.739 1425.13 189.767 1426.45 188.582C1426.84 188.187 1427.11 177.789 1427.11 165.417C1427.11 145.674 1426.71 141.331 1423.95 131.591C1413.29 93.2894 1387.36 61.9639 1343.79 35.1135C1330.89 27.0847 1300.36 11.422 1283.91 4.44614C1272.98 -0.292175 1272.45 -0.423798 1272.45 0.629166Z" fill="white"/>
<path d="M407.056 3.91876C404.16 5.36658 393.104 10.4997 382.575 15.5013C307.946 50.7753 270.171 90.5245 260.958 143.304C258.852 154.755 258.326 174.235 259.773 184.764L260.695 190.95L266.749 190.16C291.757 186.87 306.104 183.053 321.503 175.419C360.068 156.071 386.391 117.901 402.317 57.8828C405.871 44.7208 414.295 5.4982 414.295 2.33932C414.295 0.89151 413.11 1.15475 407.056 3.91876Z" fill="white"/>
<path d="M1481.2 60.1212C1464.09 94.6055 1454.22 120.271 1448.56 145.674C1444.35 164.364 1444.35 195.953 1448.56 211.879C1454.62 234.386 1465.94 253.734 1484.23 272.819L1495.29 284.401L1500.55 279.4C1514.77 265.843 1529.24 241.493 1535.04 221.75C1540.83 201.744 1541.35 172.656 1536.35 148.043C1533.46 133.828 1524.24 106.583 1515.95 88.1562C1509.11 72.8883 1492.65 40.7731 1491.6 40.7731C1491.21 40.7731 1486.6 49.46 1481.2 60.1212Z" fill="white"/>
<path d="M186.33 58.147C158.953 109.742 146.975 148.438 146.975 184.502C146.975 202.534 148.292 212.274 152.635 226.094C158.163 244.126 171.325 265.843 184.355 278.742L191.463 285.717L201.598 275.32C214.233 262.552 221.999 251.628 229.501 236.228C237.003 220.829 240.425 206.877 241.478 188.056C243.189 154.361 232.791 117.244 207.126 64.728C200.939 52.3557 195.675 42.0894 195.411 42.0894C195.148 42.0894 191.068 49.3285 186.33 58.147Z" fill="white"/>
<path d="M1301.41 175.025C1301.41 178.052 1318.92 228.594 1324.18 240.966C1348 296.378 1378.93 327.835 1421.18 339.944C1441.06 345.736 1473.17 348.236 1474.62 344.156C1475.02 343.103 1474.75 335.206 1473.96 326.651C1467.78 259.13 1425.79 216.748 1333 184.238C1309.57 175.946 1301.41 173.577 1301.41 175.025Z" fill="white"/>
<path d="M362.305 182.79C310.052 200.427 279.122 217.143 253.851 241.493C227.395 266.895 214.891 295.062 212.259 334.153L211.337 347.841L229.633 347.052C297.68 344.024 341.115 305.197 371.256 220.434C377.178 203.85 385.734 176.209 385.076 175.683C384.812 175.551 374.678 178.71 362.305 182.79Z" fill="white"/>
<path d="M1582.42 233.332C1540.7 285.322 1520.29 322.833 1514.63 358.239C1512.27 372.717 1513.58 399.304 1517.27 411.94C1520.95 424.839 1528.85 441.686 1537.27 454.321C1544.78 465.772 1543.46 465.641 1556.09 456.296C1606.9 418.652 1622.3 360.871 1604.14 277.161C1600.98 262.815 1591.11 227.409 1589.92 226.093C1589.39 225.566 1585.97 228.857 1582.42 233.332Z" fill="white"/>
<path d="M96.6967 227.278C95.5121 229.252 85.2458 266.763 82.6134 278.609C68.0036 345.472 75.111 396.014 104.331 432.604C109.069 438.527 116.045 446.029 119.862 449.188C128.68 456.691 140.921 465.904 142.105 465.904C143.553 465.904 154.346 448.793 160.137 437.342C168.956 419.574 172.378 406.28 173.036 385.484C173.563 371.796 173.299 365.083 171.588 356.528C165.665 327.44 153.425 301.774 129.075 267.422C116.176 249.39 97.4864 226.093 96.6967 227.278Z" fill="white"/>
<path d="M1395.39 364.689C1398.81 446.425 1416.18 494.861 1452.64 524.08C1468.83 536.979 1494.5 549.22 1511.61 551.984L1517 552.905L1520.03 540.664C1524.37 522.896 1524.51 492.36 1520.16 476.434C1512.26 447.214 1493.44 418.916 1464.62 392.724C1449.09 378.641 1420 357.187 1399.6 344.814L1394.47 341.655L1395.39 364.689Z" fill="white"/>
<path d="M270.171 357.713C243.847 375.35 233.055 383.905 215.154 401.279C177.906 437.474 161.585 472.748 163.296 513.945C164.086 533.293 168.561 554.089 171.983 554.089C181.46 554.089 211.206 541.848 226.21 531.582C258.589 509.865 279.648 469.721 287.15 416.152C289.651 398.646 292.283 360.082 291.625 350.473L291.23 343.498L270.171 357.713Z" fill="white"/>
<path d="M1643.36 436.816C1600.98 462.351 1573.6 484.858 1556.36 508.286C1536.22 535.663 1527.93 562.118 1529.51 593.444C1530.17 606.474 1533.06 624.111 1535.69 631.087L1536.88 634.114L1545.83 631.877C1597.42 618.451 1631.91 582.256 1648.89 523.29C1653.76 506.575 1658.76 477.618 1660.6 455.375C1662.84 429.709 1663.23 425.102 1662.84 425.102C1662.71 425.102 1653.89 430.367 1643.36 436.816Z" fill="white"/>
<path d="M23.911 431.946C24.3059 434.315 24.964 441.949 25.3589 448.794C31.4134 541.586 61.1594 599.235 115.913 624.506C124.074 628.323 146.449 635.694 149.608 635.694C150.792 635.694 154.478 620.163 156.452 606.737C158.426 593.839 157.11 569.226 153.951 557.38C143.29 518.552 116.44 486.568 66.161 452.742C53.3939 444.187 26.017 427.734 24.4375 427.734C23.7794 427.734 23.5162 429.709 23.911 431.946Z" fill="white"/>
<path d="M1401.71 506.18C1388.15 569.489 1387.1 617.398 1398.41 651.488C1409.47 685.314 1429.87 708.742 1465.15 728.091C1470.15 730.855 1474.36 732.96 1474.62 732.829C1474.75 732.566 1477.25 727.696 1480.15 721.904C1491.21 699.792 1495.68 678.338 1494.5 655.042C1492 610.423 1467.51 565.804 1416.45 513.419L1403.02 499.599L1401.71 506.18Z" fill="white"/>
<path d="M267.802 517.499C244.111 542.902 231.475 558.565 219.498 577.781C188.041 627.928 183.565 675.311 205.678 721.905C212.127 735.593 211.601 735.067 218.313 731.776C229.896 725.853 245.822 714.665 255.43 705.584C276.884 685.183 289.914 658.859 294.521 627.007C296.627 612.265 296.232 577.386 293.731 558.038C291.625 541.849 284.65 502.89 283.597 501.837C283.202 501.573 276.226 508.549 267.802 517.499Z" fill="white"/>
<path d="M1661.39 621.874C1595.58 632.403 1555.96 648.461 1528.32 675.838C1513.84 690.052 1502.79 708.742 1496.21 730.065C1493.44 738.883 1489.23 762.048 1490.15 762.97C1491.47 764.286 1508.84 765.997 1521.22 765.997C1576.1 765.997 1620.85 734.277 1660.6 667.151C1668.23 654.252 1685.74 620.952 1685.74 619.373C1685.74 618.188 1681.27 618.583 1661.39 621.874Z" fill="white"/>
<path d="M1.00926 620.821C1.00926 621.216 5.87919 631.219 11.9337 642.801C32.0715 681.761 46.418 702.425 68.0037 724.011C89.1944 745.07 108.543 757.047 132.761 763.628C142.369 766.26 146.844 766.655 166.85 766.655C179.486 766.655 191.463 766.26 193.569 765.602C196.991 764.681 197.123 764.286 196.333 759.021C188.567 705.189 163.691 671.231 115.124 648.198C91.1687 636.878 64.0551 629.508 23.253 623.19C-0.965037 619.373 1.00926 619.636 1.00926 620.821Z" fill="white"/>
<path d="M1362.22 687.684C1348.66 732.434 1344.05 760.469 1345.24 790.873C1346.69 828.122 1357.74 854.446 1382.49 879.322C1393.54 890.509 1412.5 904.856 1414.47 903.54C1416.97 902.092 1429.08 881.428 1433.03 871.688C1445.53 841.81 1446.46 812.591 1436.32 777.185C1431.85 761.786 1416.18 729.802 1404.07 711.375C1394.07 696.371 1371.04 664.782 1369.85 664.65C1369.46 664.65 1366.04 675.048 1362.22 687.684Z" fill="white"/>
<path d="M302.681 684.656C245.558 760.732 230.554 819.435 254.245 874.189C258.984 884.982 265.301 896.301 270.303 902.487L273.199 906.172L280.174 901.302C310.315 880.507 328.874 855.236 337.561 823.252C340.983 811.011 341.246 808.247 341.246 784.424C341.246 757.442 340.062 748.097 333.349 720.588C328.742 701.898 317.949 667.282 316.765 667.282C316.238 667.282 309.789 675.18 302.681 684.656Z" fill="white"/>
<path d="M1291.93 777.843C1260.61 835.756 1248.5 872.477 1248.63 909.594C1248.76 947.632 1263.11 979.221 1293.12 1007.26L1297.07 1010.81L1305.36 1002.39C1336.16 970.929 1348.53 930.653 1341.42 883.402C1337.34 855.762 1327.21 826.279 1308.91 789.031L1297.99 766.787L1291.93 777.843Z" fill="white"/>
<path d="M377.836 790.61C364.674 817.724 357.435 835.624 351.776 855.762C337.166 906.172 341.904 949.738 365.727 985.012C372.966 995.542 387.708 1012.13 389.945 1012.13C392.841 1012.13 412.452 989.093 419.691 977.378C441.935 941.183 444.173 900.249 426.667 848.654C421.666 833.518 395.605 778.106 390.077 770.604C388.761 768.761 387.05 771.525 377.836 790.61Z" fill="white"/>
<path d="M1608.87 771.394C1552.94 776 1513.06 789.952 1487.39 813.907C1467.52 832.465 1456.72 850.629 1448.17 879.585L1445.14 889.851L1448.56 891.167C1459.09 895.116 1472.65 896.959 1492.26 896.959C1509.5 896.827 1514.37 896.432 1523.85 893.8C1567.28 881.691 1604.79 849.181 1645.99 787.451C1651.91 778.633 1656.78 771.13 1656.78 770.735C1656.78 769.682 1624.41 770.077 1608.87 771.394Z" fill="white"/>
<path d="M29.9656 772.052C29.9656 774.158 54.9733 810.353 65.8977 823.91C79.5862 840.889 102.356 863.264 115.518 872.477C128.68 881.691 145.791 890.246 159.874 894.59C170.535 897.748 173.431 898.143 194.49 898.143C214.365 898.275 219.103 897.88 229.633 895.248L241.61 892.22L239.109 882.744C221.077 817.592 175.932 784.161 92.8798 774.684C72.6103 772.315 29.9656 770.472 29.9656 772.052Z" fill="white"/>
<path d="M1193.88 885.771C1160.31 918.939 1141.36 943.947 1130.31 969.613C1116.75 1001.2 1115.17 1030.16 1125.3 1062.14C1128.46 1072.14 1136.75 1091.1 1138.99 1093.6C1139.26 1093.86 1143.73 1091.89 1149 1089.12C1187.96 1069.38 1212.44 1036.08 1221.65 990.277C1226.91 964.216 1226.65 923.151 1221.12 884.718C1219.68 874.847 1218.49 865.896 1218.49 864.975C1218.49 864.185 1217.96 863.396 1217.44 863.396C1216.91 863.396 1206.25 873.399 1193.88 885.771Z" fill="white"/>
<path d="M467.206 874.978C461.546 912.358 459.835 954.345 462.862 978.168C466.153 1003.18 474.445 1027.26 485.896 1045.16C493.661 1057.14 510.509 1073.99 522.881 1082.02C532.358 1088.2 544.993 1095.05 546.967 1095.05C549.995 1095.05 562.104 1065.04 565.789 1048.32C568.685 1035.29 568.027 1008.31 564.473 995.015C558.155 971.324 547.626 950.791 529.989 927.889C520.38 915.385 486.159 879.453 474.708 869.845L468.654 864.844L467.206 874.978Z" fill="white"/>
<path d="M1446.98 915.386C1405.52 922.098 1374.72 941.578 1353.27 974.614C1346.03 985.802 1339.58 997.911 1339.58 1000.28C1339.58 1002.65 1361.17 1012.13 1374.46 1015.42C1420.92 1027.26 1466.2 1013.97 1516.61 973.956C1522.4 969.349 1536.88 955.924 1548.72 944.21L1570.44 923.019L1561.23 921.44C1528.98 915.78 1516.74 914.464 1488.31 914.069C1466.59 913.675 1455.54 913.938 1446.98 915.386Z" fill="white"/>
<path d="M172.115 916.175C160.137 917.492 117.756 923.941 117.098 924.599C116.308 925.389 151.845 960.136 162.901 969.481C190.015 992.383 220.946 1009.89 245.822 1016.73C268.46 1022.92 294.784 1022.52 316.765 1015.81C331.243 1011.47 347.169 1004.1 347.169 1001.86C347.169 998.569 335.586 978.431 327.294 967.507C305.051 937.893 274.12 921.177 232.66 916.044C219.629 914.464 188.172 914.596 172.115 916.175Z" fill="white"/>
<path d="M1100.69 984.749C1098.59 985.275 1087.27 987.908 1075.68 990.54C987.367 1010.55 940.247 1045.82 924.979 1103.6C922.083 1114.66 918.661 1140.45 919.978 1141.77C921.689 1143.48 956.305 1142.43 966.966 1140.45C1014.74 1131.24 1052.39 1096.76 1084.63 1032.4C1091.61 1018.44 1105.56 985.802 1105.03 984.486C1104.77 984.091 1102.93 984.091 1100.69 984.749Z" fill="white"/>
<path d="M581.452 986.197C581.452 988.039 592.639 1013.84 600.405 1029.89C615.541 1061.22 629.888 1083.07 647.13 1100.71C668.847 1123.21 690.696 1135.72 718.863 1142.03C728.602 1144.14 764.666 1145.19 766.509 1143.35C768.088 1141.9 764.929 1117.03 761.771 1104.92C760.191 1099.13 756.374 1088.86 753.084 1082.02C731.761 1036.74 688.853 1010.02 607.381 991.198C584.874 986.065 581.452 985.275 581.452 986.197Z" fill="white"/>
<path d="M1307.33 1028.05C1277.19 1031.08 1250.61 1043.58 1228.76 1065.3C1219.54 1074.38 1207.96 1088.6 1207.96 1090.83C1207.96 1092.81 1226.39 1105.05 1237.84 1110.84C1255.08 1119.4 1269.03 1122.95 1289.57 1123.61C1322.73 1124.79 1353.01 1116.5 1391.57 1095.31C1404.47 1088.33 1448.83 1059.51 1448.83 1058.19C1448.83 1057.01 1402.36 1041.08 1385.52 1036.61C1357.61 1029.1 1328.92 1025.95 1307.33 1028.05Z" fill="white"/>
<path d="M341.904 1030.03C340.061 1030.29 334.533 1031.21 329.4 1032C309.921 1035.03 274.515 1045.43 241.347 1058.19L237.53 1059.64L245.953 1065.7C262.932 1078.2 289.125 1094.13 307.025 1102.94C340.983 1119.66 363.49 1125.58 391.92 1125.58C412.584 1125.45 427.983 1122.29 445.225 1114.26C455.229 1109.66 476.551 1096.23 478.262 1093.6C479.446 1091.49 472.866 1082.54 460.757 1069.91C442.461 1050.95 423.245 1039.37 399.817 1033.18C390.867 1030.82 384.286 1030.16 366.912 1029.89C354.934 1029.63 343.747 1029.63 341.904 1030.03Z" fill="white"/>
<path d="M1127.54 1111.5C1116.22 1113.6 1101.48 1118.74 1090.69 1124.13C1082.79 1128.08 1067 1138.48 1062.26 1142.82L1059.36 1145.46L1065.02 1152.83C1079.24 1171.25 1100.95 1188.23 1120.43 1196.26C1150.84 1208.9 1189.8 1210.08 1236.26 1199.68C1253.24 1195.87 1300.09 1181.13 1300.09 1179.55C1300.09 1178.49 1266.66 1154.54 1255.34 1147.43C1229.68 1131.11 1204.67 1119.79 1182.82 1114.26C1165.45 1109.79 1142.15 1108.73 1127.54 1111.5Z" fill="white"/>
<path d="M521.96 1112.16C487.212 1116.5 446.937 1135.98 399.29 1171.39L386.129 1181.13L390.077 1182.84C397.974 1186.26 426.536 1195.21 441.54 1199.03C466.022 1205.21 479.183 1207.19 501.296 1207.84C539.597 1209.16 567.5 1201.53 593.166 1182.57C602.511 1175.6 617.121 1161.12 623.438 1152.3L627.65 1146.51L619.358 1140.32C588.822 1117.82 554.733 1107.95 521.96 1112.16Z" fill="white"/>
<path d="M835.872 1142.43C815.735 1147.17 804.942 1169.28 813.629 1187.84C825.474 1213.37 861.407 1212.98 872.726 1187.18C880.491 1169.67 870.883 1148.62 852.456 1143.22C844.954 1140.98 842.453 1140.85 835.872 1142.43Z" fill="white"/>
<path d="M966.439 1167.04C945.512 1169.67 923.531 1177.83 904.183 1190.08L897.207 1194.55L904.052 1205.08C917.214 1224.95 940.247 1245.09 959.727 1253.65C999.607 1271.29 1049.36 1271.42 1118.85 1253.91L1135.7 1249.7L1119.51 1235.75C1087.66 1208.37 1068.97 1195.34 1044.09 1183.1C1016.59 1169.67 989.736 1164.15 966.439 1167.04Z" fill="white"/>
<path d="M692.67 1168.89C651.21 1174.54 609.75 1198.5 552.759 1249.83C551.311 1251.02 554.865 1252.33 570.527 1256.02C611.33 1265.89 627.914 1268.13 658.449 1267.99C691.354 1267.99 711.755 1263.52 734.131 1251.54C752.557 1241.67 769.8 1225.61 782.698 1206.4L789.543 1196.39L781.251 1191C753.874 1173.36 720.705 1165.07 692.67 1168.89Z" fill="white"/>
</svg>
