<svg width="1686" height="1524" viewBox="0 0 1686 1524" fill="none" xmlns="http://www.w3.org/2000/svg">
<path d="M10.8 1469.32L18.444 1469.71C20.9267 1469.71 22.168 1468.27 22.168 1465.4V1367.79C22.168 1366.22 21.8413 1365.11 21.188 1364.46C20.5347 1363.67 19.3587 1363.35 17.66 1363.48L10.8 1363.87V1357.99H56.86C70.4493 1357.99 80.4453 1360.6 86.848 1365.83C93.3813 1370.92 96.648 1378.83 96.648 1389.54C96.648 1399.87 93.4467 1408.1 87.044 1414.24C80.6413 1420.38 71.952 1423.45 60.976 1423.45H40.396V1465.4C40.396 1468.27 41.7027 1469.71 44.316 1469.71L53.92 1469.32V1475H10.8V1469.32ZM56.86 1417.96C62.8707 1417.96 67.836 1415.29 71.756 1409.93C75.8067 1404.57 77.832 1397.78 77.832 1389.54C77.832 1381.7 75.6107 1375.43 71.168 1370.73C66.856 1365.89 61.0413 1363.48 53.724 1363.48H42.748C42.2253 1363.48 41.7027 1363.74 41.18 1364.26C40.6573 1364.65 40.396 1365.17 40.396 1365.83V1417.96H56.86ZM156.592 1390.72C161.688 1390.72 165.608 1392.16 168.352 1395.03C171.227 1397.91 172.664 1401.57 172.664 1406.01C172.664 1409.01 171.88 1411.3 170.312 1412.87C168.875 1414.44 166.915 1415.22 164.432 1415.22C162.603 1415.22 160.904 1414.76 159.336 1413.85C157.899 1412.8 157.18 1411.23 157.18 1409.14C157.18 1407.97 157.441 1406.47 157.964 1404.64C158.487 1402.81 158.748 1401.37 158.748 1400.32C158.748 1399.28 158.356 1398.36 157.572 1397.58C156.919 1396.67 155.808 1396.21 154.24 1396.21C150.189 1396.21 146.661 1398.17 143.656 1402.09C140.651 1405.88 138.299 1410.65 136.6 1416.4C134.901 1422.01 133.921 1427.44 133.66 1432.66V1466.57C133.66 1469.05 134.509 1470.3 136.208 1470.3L148.164 1469.9V1475H107.984V1469.9L114.256 1470.3C115.955 1470.3 116.804 1469.05 116.804 1466.57V1401.3C116.804 1398.69 115.955 1397.38 114.256 1397.38L107.2 1397.78V1392.68H134.836C134.575 1393.46 134.313 1394.77 134.052 1396.6C133.791 1398.3 133.66 1400 133.66 1401.7V1411.3C136.665 1403.98 139.997 1398.76 143.656 1395.62C147.445 1392.35 151.757 1390.72 156.592 1390.72ZM259.651 1469.9V1475H231.819C231.95 1474.09 232.08 1472.91 232.211 1471.47C232.472 1469.9 232.603 1468.66 232.603 1467.75L232.995 1460.1C230.12 1465.72 226.396 1469.77 221.823 1472.26C217.38 1474.74 212.023 1475.98 205.751 1475.98C197.519 1475.98 191.247 1474.15 186.935 1470.49C182.754 1466.7 180.663 1461.15 180.663 1453.83C180.663 1443.77 184.844 1436.39 193.207 1431.68C201.7 1426.85 214.963 1424.43 232.995 1424.43V1413.06C232.995 1406.92 231.558 1402.55 228.683 1399.93C225.808 1397.32 221.17 1396.01 214.767 1396.01C204.836 1396.01 199.871 1398.76 199.871 1404.24C199.871 1405.29 200.132 1406.53 200.655 1407.97C201.308 1409.27 201.635 1410.52 201.635 1411.69C201.635 1413.91 200.916 1415.61 199.479 1416.79C198.042 1417.83 196.212 1418.36 193.991 1418.36C191.247 1418.36 189.091 1417.51 187.523 1415.81C186.086 1414.11 185.367 1411.89 185.367 1409.14C185.367 1403.66 188.242 1399.21 193.991 1395.82C199.74 1392.42 207.45 1390.72 217.119 1390.72C238.94 1390.72 249.851 1399.93 249.851 1418.36V1466.57C249.851 1469.05 250.7 1470.3 252.399 1470.3L259.651 1469.9ZM211.631 1468.92C217.38 1468.92 222.28 1466.57 226.331 1461.87C230.382 1457.03 232.603 1450.83 232.995 1443.25V1429.72C220.712 1429.72 211.892 1431.55 206.535 1435.21C201.178 1438.74 198.499 1444.42 198.499 1452.26C198.499 1457.75 199.61 1461.93 201.831 1464.81C204.183 1467.55 207.45 1468.92 211.631 1468.92ZM287.325 1348.97C290.461 1348.97 293.009 1349.82 294.969 1351.52C297.06 1353.22 298.105 1355.44 298.105 1358.18C298.105 1361.19 297.125 1363.54 295.165 1365.24C293.205 1366.81 290.592 1367.59 287.325 1367.59C284.189 1367.59 281.641 1366.81 279.681 1365.24C277.721 1363.54 276.741 1361.19 276.741 1358.18C276.741 1355.44 277.721 1353.22 279.681 1351.52C281.641 1349.82 284.189 1348.97 287.325 1348.97ZM297.125 1466.57C297.125 1469.05 297.975 1470.3 299.673 1470.3L306.729 1469.9V1475H270.469V1469.9L277.721 1470.3C279.42 1470.3 280.269 1469.05 280.269 1466.57V1401.3C280.269 1399.08 279.485 1397.78 277.917 1397.38L270.665 1397.78V1392.68H297.125V1466.57ZM369.818 1390.72C374.914 1390.72 378.834 1392.16 381.578 1395.03C384.453 1397.91 385.89 1401.57 385.89 1406.01C385.89 1409.01 385.106 1411.3 383.538 1412.87C382.101 1414.44 380.141 1415.22 377.658 1415.22C375.829 1415.22 374.13 1414.76 372.562 1413.85C371.125 1412.8 370.406 1411.23 370.406 1409.14C370.406 1407.97 370.668 1406.47 371.19 1404.64C371.713 1402.81 371.974 1401.37 371.974 1400.32C371.974 1399.28 371.582 1398.36 370.798 1397.58C370.145 1396.67 369.034 1396.21 367.466 1396.21C363.416 1396.21 359.888 1398.17 356.882 1402.09C353.877 1405.88 351.525 1410.65 349.826 1416.4C348.128 1422.01 347.148 1427.44 346.886 1432.66V1466.57C346.886 1469.05 347.736 1470.3 349.434 1470.3L361.39 1469.9V1475H321.21V1469.9L327.482 1470.3C329.181 1470.3 330.03 1469.05 330.03 1466.57V1401.3C330.03 1398.69 329.181 1397.38 327.482 1397.38L320.426 1397.78V1392.68H348.062C347.801 1393.46 347.54 1394.77 347.278 1396.6C347.017 1398.3 346.886 1400 346.886 1401.7V1411.3C349.892 1403.98 353.224 1398.76 356.882 1395.62C360.672 1392.35 364.984 1390.72 369.818 1390.72ZM412.314 1348.97C415.45 1348.97 417.998 1349.82 419.958 1351.52C422.048 1353.22 423.094 1355.44 423.094 1358.18C423.094 1361.19 422.114 1363.54 420.154 1365.24C418.194 1366.81 415.58 1367.59 412.314 1367.59C409.178 1367.59 406.63 1366.81 404.67 1365.24C402.71 1363.54 401.73 1361.19 401.73 1358.18C401.73 1355.44 402.71 1353.22 404.67 1351.52C406.63 1349.82 409.178 1348.97 412.314 1348.97ZM422.114 1466.57C422.114 1469.05 422.963 1470.3 424.662 1470.3L431.718 1469.9V1475H395.458V1469.9L402.71 1470.3C404.408 1470.3 405.258 1469.05 405.258 1466.57V1401.3C405.258 1399.08 404.474 1397.78 402.906 1397.38L395.654 1397.78V1392.68H422.114V1466.57ZM484.811 1390.72C495.133 1390.72 503.431 1394.05 509.703 1400.72C516.105 1407.25 519.437 1416.27 519.699 1427.76V1433.45H463.251C463.251 1445.34 465.276 1454.49 469.327 1460.89C473.508 1467.16 479.715 1470.36 487.947 1470.49C494.48 1470.49 499.968 1468.86 504.411 1465.59C508.984 1462.33 512.316 1458.27 514.407 1453.44L518.915 1456.77C516.301 1463.04 511.859 1468.01 505.587 1471.67C499.445 1475.2 492.651 1476.96 485.203 1476.96C458.677 1476.96 445.415 1462.65 445.415 1434.04C445.415 1419.79 448.747 1409.01 455.411 1401.7C462.075 1394.38 471.875 1390.72 484.811 1390.72ZM484.811 1396.01C477.493 1396.01 472.071 1399.02 468.543 1405.03C465.145 1411.04 463.447 1418.88 463.447 1428.55H499.119C500.425 1428.55 501.405 1428.09 502.059 1427.18C502.712 1426.26 503.039 1424.56 503.039 1422.08C503.039 1413.19 501.601 1406.66 498.727 1402.48C495.983 1398.17 491.344 1396.01 484.811 1396.01ZM579.468 1469.32L587.896 1469.71C589.856 1469.71 590.836 1468.27 590.836 1465.4V1367.59C590.836 1366.42 590.509 1365.44 589.856 1364.65C589.203 1363.87 588.288 1363.48 587.112 1363.48L579.468 1363.87V1357.99H623.568C644.475 1357.99 659.893 1362.56 669.824 1371.71C679.885 1380.72 684.916 1395.62 684.916 1416.4C684.916 1455.47 665.251 1475 625.92 1475H579.468V1469.32ZM609.064 1466.96C609.064 1468.66 609.848 1469.51 611.416 1469.51H620.236C631.212 1469.51 639.901 1467.81 646.304 1464.42C652.837 1460.89 657.541 1455.27 660.416 1447.56C663.421 1439.85 664.924 1429.53 664.924 1416.59C664.924 1403.66 663.421 1393.33 660.416 1385.62C657.541 1377.91 652.837 1372.3 646.304 1368.77C639.771 1365.24 631.081 1363.48 620.236 1363.48H611.416C609.848 1363.48 609.064 1364.33 609.064 1366.02V1466.96ZM698.645 1433.64C698.645 1420.32 701.977 1409.86 708.641 1402.28C715.305 1394.57 725.105 1390.72 738.041 1390.72C750.977 1390.72 760.777 1394.57 767.441 1402.28C774.105 1409.86 777.437 1420.32 777.437 1433.64C777.437 1447.23 774.105 1457.88 767.441 1465.59C760.777 1473.17 750.977 1476.96 738.041 1476.96C725.105 1476.96 715.305 1473.17 708.641 1465.59C701.977 1457.88 698.645 1447.23 698.645 1433.64ZM716.481 1434.04C716.481 1447.23 718.114 1456.84 721.381 1462.85C724.778 1468.73 730.332 1471.67 738.041 1471.67C745.75 1471.67 751.238 1468.73 754.505 1462.85C757.902 1456.84 759.601 1447.23 759.601 1434.04C759.601 1420.71 757.902 1411.04 754.505 1405.03C751.238 1399.02 745.75 1396.01 738.041 1396.01C730.332 1396.01 724.778 1399.02 721.381 1405.03C718.114 1411.04 716.481 1420.71 716.481 1434.04ZM860.674 1387.39C859.368 1387.39 857.277 1388.11 854.402 1389.54C851.658 1390.98 849.437 1392.75 847.738 1394.84C857.408 1399.67 862.242 1408.1 862.242 1420.12C862.242 1428.74 859.172 1435.8 853.03 1441.29C846.889 1446.65 838.788 1449.32 828.726 1449.32C823.238 1449.32 818.142 1448.34 813.438 1446.38C808.996 1449.13 806.774 1452 806.774 1455.01C806.774 1459.84 810.433 1462.26 817.75 1462.26H843.818C853.488 1462.26 860.74 1464.35 865.574 1468.53C870.54 1472.71 873.022 1479.7 873.022 1489.5C873.022 1496.17 871.062 1502.05 867.142 1507.14C863.353 1512.24 857.93 1516.16 850.874 1518.9C843.818 1521.65 835.652 1523.02 826.374 1523.02C814.876 1523.02 805.99 1520.8 799.718 1516.36C793.577 1511.91 790.506 1505.45 790.506 1496.95C790.506 1491.73 791.944 1487.28 794.818 1483.62C797.824 1479.97 802.266 1476.76 808.146 1474.02C798.477 1472.19 793.642 1467.88 793.642 1461.08C793.642 1458.6 794.296 1456.51 795.602 1454.81C797.04 1452.98 799.457 1450.7 802.854 1447.95L808.146 1443.64C804.226 1441.16 801.09 1437.96 798.738 1434.04C796.517 1429.99 795.406 1425.35 795.406 1420.12C795.406 1411.37 798.477 1404.31 804.618 1398.95C810.89 1393.46 818.926 1390.72 828.726 1390.72C834.214 1390.72 839.18 1391.5 843.622 1393.07C846.889 1388.63 850.874 1384.71 855.578 1381.31C860.413 1377.78 864.137 1376.02 866.75 1376.02C870.017 1376.02 872.304 1376.93 873.61 1378.76C875.048 1380.46 875.766 1382.42 875.766 1384.64C875.766 1386.34 875.178 1387.98 874.002 1389.54C872.826 1391.11 871.324 1391.9 869.494 1391.9C867.926 1391.9 866.75 1391.7 865.966 1391.31C865.182 1390.79 864.333 1390 863.418 1388.96C862.634 1387.91 861.72 1387.39 860.674 1387.39ZM828.726 1444.82C834.868 1444.82 839.049 1442.99 841.27 1439.33C843.622 1435.54 844.798 1429.14 844.798 1420.12C844.798 1411.37 843.622 1405.16 841.27 1401.5C838.918 1397.84 834.737 1396.01 828.726 1396.01C822.716 1396.01 818.534 1397.78 816.182 1401.3C813.961 1404.7 812.85 1410.97 812.85 1420.12C812.85 1426.52 813.308 1431.49 814.222 1435.02C815.137 1438.54 816.705 1441.09 818.926 1442.66C821.278 1444.1 824.545 1444.82 828.726 1444.82ZM821.278 1475C817.489 1475 813.961 1476.05 810.694 1478.14C807.428 1480.23 804.814 1482.91 802.854 1486.17C801.025 1489.57 800.11 1493.03 800.11 1496.56C800.11 1502.96 802.266 1508.12 806.578 1512.04C811.021 1515.96 817.554 1517.92 826.178 1517.92C837.024 1517.92 845.386 1515.44 851.266 1510.48C857.146 1505.51 860.086 1498.98 860.086 1490.88C860.086 1485.52 858.518 1481.53 855.382 1478.92C852.377 1476.31 847.542 1475 840.878 1475H821.278ZM1075.82 1469.32V1475H1032.7V1469.32L1042.31 1469.71C1044.92 1469.71 1046.23 1468.27 1046.23 1465.4V1373.28L999.577 1476.96H994.873L944.501 1371.71V1465.4C944.501 1468.27 945.742 1469.71 948.225 1469.71L957.829 1469.32V1475H926.273V1469.32L933.917 1469.71C936.53 1469.71 937.837 1468.27 937.837 1465.4V1364.65C937.837 1363.74 937.184 1363.35 935.877 1363.48L927.645 1363.87V1357.99H957.829L1003.5 1452.85L1046.42 1357.99H1074.84V1363.87L1068.18 1363.48H1067.79C1066.74 1363.48 1065.89 1363.87 1065.24 1364.65C1064.58 1365.44 1064.26 1366.35 1064.26 1367.4V1465.4C1064.26 1468.27 1065.56 1469.71 1068.18 1469.71L1075.82 1469.32ZM1169.98 1469.9V1475H1142.15C1142.28 1474.09 1142.41 1472.91 1142.54 1471.47C1142.8 1469.9 1142.93 1468.66 1142.93 1467.75L1143.32 1460.1C1140.45 1465.72 1136.72 1469.77 1132.15 1472.26C1127.71 1474.74 1122.35 1475.98 1116.08 1475.98C1107.85 1475.98 1101.58 1474.15 1097.26 1470.49C1093.08 1466.7 1090.99 1461.15 1090.99 1453.83C1090.99 1443.77 1095.17 1436.39 1103.54 1431.68C1112.03 1426.85 1125.29 1424.43 1143.32 1424.43V1413.06C1143.32 1406.92 1141.89 1402.55 1139.01 1399.93C1136.14 1397.32 1131.5 1396.01 1125.1 1396.01C1115.16 1396.01 1110.2 1398.76 1110.2 1404.24C1110.2 1405.29 1110.46 1406.53 1110.98 1407.97C1111.64 1409.27 1111.96 1410.52 1111.96 1411.69C1111.96 1413.91 1111.24 1415.61 1109.81 1416.79C1108.37 1417.83 1106.54 1418.36 1104.32 1418.36C1101.58 1418.36 1099.42 1417.51 1097.85 1415.81C1096.41 1414.11 1095.7 1411.89 1095.7 1409.14C1095.7 1403.66 1098.57 1399.21 1104.32 1395.82C1110.07 1392.42 1117.78 1390.72 1127.45 1390.72C1149.27 1390.72 1160.18 1399.93 1160.18 1418.36V1466.57C1160.18 1469.05 1161.03 1470.3 1162.73 1470.3L1169.98 1469.9ZM1121.96 1468.92C1127.71 1468.92 1132.61 1466.57 1136.66 1461.87C1140.71 1457.03 1142.93 1450.83 1143.32 1443.25V1429.72C1131.04 1429.72 1122.22 1431.55 1116.86 1435.21C1111.51 1438.74 1108.83 1444.42 1108.83 1452.26C1108.83 1457.75 1109.94 1461.93 1112.16 1464.81C1114.51 1467.55 1117.78 1468.92 1121.96 1468.92ZM1250.38 1387.39C1249.07 1387.39 1246.98 1388.11 1244.11 1389.54C1241.36 1390.98 1239.14 1392.75 1237.44 1394.84C1247.11 1399.67 1251.95 1408.1 1251.95 1420.12C1251.95 1428.74 1248.87 1435.8 1242.73 1441.29C1236.59 1446.65 1228.49 1449.32 1218.43 1449.32C1212.94 1449.32 1207.85 1448.34 1203.14 1446.38C1198.7 1449.13 1196.48 1452 1196.48 1455.01C1196.48 1459.84 1200.14 1462.26 1207.45 1462.26H1233.52C1243.19 1462.26 1250.44 1464.35 1255.28 1468.53C1260.24 1472.71 1262.73 1479.7 1262.73 1489.5C1262.73 1496.17 1260.77 1502.05 1256.85 1507.14C1253.06 1512.24 1247.63 1516.16 1240.58 1518.9C1233.52 1521.65 1225.35 1523.02 1216.08 1523.02C1204.58 1523.02 1195.69 1520.8 1189.42 1516.36C1183.28 1511.91 1180.21 1505.45 1180.21 1496.95C1180.21 1491.73 1181.65 1487.28 1184.52 1483.62C1187.53 1479.97 1191.97 1476.76 1197.85 1474.02C1188.18 1472.19 1183.35 1467.88 1183.35 1461.08C1183.35 1458.6 1184 1456.51 1185.31 1454.81C1186.74 1452.98 1189.16 1450.7 1192.56 1447.95L1197.85 1443.64C1193.93 1441.16 1190.79 1437.96 1188.44 1434.04C1186.22 1429.99 1185.11 1425.35 1185.11 1420.12C1185.11 1411.37 1188.18 1404.31 1194.32 1398.95C1200.59 1393.46 1208.63 1390.72 1218.43 1390.72C1223.92 1390.72 1228.88 1391.5 1233.33 1393.07C1236.59 1388.63 1240.58 1384.71 1245.28 1381.31C1250.12 1377.78 1253.84 1376.02 1256.45 1376.02C1259.72 1376.02 1262.01 1376.93 1263.31 1378.76C1264.75 1380.46 1265.47 1382.42 1265.47 1384.64C1265.47 1386.34 1264.88 1387.98 1263.71 1389.54C1262.53 1391.11 1261.03 1391.9 1259.2 1391.9C1257.63 1391.9 1256.45 1391.7 1255.67 1391.31C1254.89 1390.79 1254.04 1390 1253.12 1388.96C1252.34 1387.91 1251.42 1387.39 1250.38 1387.39ZM1218.43 1444.82C1224.57 1444.82 1228.75 1442.99 1230.97 1439.33C1233.33 1435.54 1234.5 1429.14 1234.5 1420.12C1234.5 1411.37 1233.33 1405.16 1230.97 1401.5C1228.62 1397.84 1224.44 1396.01 1218.43 1396.01C1212.42 1396.01 1208.24 1397.78 1205.89 1401.3C1203.66 1404.7 1202.55 1410.97 1202.55 1420.12C1202.55 1426.52 1203.01 1431.49 1203.93 1435.02C1204.84 1438.54 1206.41 1441.09 1208.63 1442.66C1210.98 1444.1 1214.25 1444.82 1218.43 1444.82ZM1210.98 1475C1207.19 1475 1203.66 1476.05 1200.4 1478.14C1197.13 1480.23 1194.52 1482.91 1192.56 1486.17C1190.73 1489.57 1189.81 1493.03 1189.81 1496.56C1189.81 1502.96 1191.97 1508.12 1196.28 1512.04C1200.72 1515.96 1207.26 1517.92 1215.88 1517.92C1226.73 1517.92 1235.09 1515.44 1240.97 1510.48C1246.85 1505.51 1249.79 1498.98 1249.79 1490.88C1249.79 1485.52 1248.22 1481.53 1245.09 1478.92C1242.08 1476.31 1237.25 1475 1230.58 1475H1210.98ZM1348.37 1469.9V1475H1320.54C1320.67 1474.09 1320.8 1472.91 1320.93 1471.47C1321.19 1469.9 1321.32 1468.66 1321.32 1467.75L1321.71 1460.1C1318.84 1465.72 1315.12 1469.77 1310.54 1472.26C1306.1 1474.74 1300.74 1475.98 1294.47 1475.98C1286.24 1475.98 1279.97 1474.15 1275.65 1470.49C1271.47 1466.7 1269.38 1461.15 1269.38 1453.83C1269.38 1443.77 1273.56 1436.39 1281.93 1431.68C1290.42 1426.85 1303.68 1424.43 1321.71 1424.43V1413.06C1321.71 1406.92 1320.28 1402.55 1317.4 1399.93C1314.53 1397.32 1309.89 1396.01 1303.49 1396.01C1293.56 1396.01 1288.59 1398.76 1288.59 1404.24C1288.59 1405.29 1288.85 1406.53 1289.37 1407.97C1290.03 1409.27 1290.35 1410.52 1290.35 1411.69C1290.35 1413.91 1289.64 1415.61 1288.2 1416.79C1286.76 1417.83 1284.93 1418.36 1282.71 1418.36C1279.97 1418.36 1277.81 1417.51 1276.24 1415.81C1274.8 1414.11 1274.09 1411.89 1274.09 1409.14C1274.09 1403.66 1276.96 1399.21 1282.71 1395.82C1288.46 1392.42 1296.17 1390.72 1305.84 1390.72C1327.66 1390.72 1338.57 1399.93 1338.57 1418.36V1466.57C1338.57 1469.05 1339.42 1470.3 1341.12 1470.3L1348.37 1469.9ZM1300.35 1468.92C1306.1 1468.92 1311 1466.57 1315.05 1461.87C1319.1 1457.03 1321.32 1450.83 1321.71 1443.25V1429.72C1309.43 1429.72 1300.61 1431.55 1295.25 1435.21C1289.9 1438.74 1287.22 1444.42 1287.22 1452.26C1287.22 1457.75 1288.33 1461.93 1290.55 1464.81C1292.9 1467.55 1296.17 1468.92 1300.35 1468.92ZM1430.34 1447.76V1475H1379.38L1362.91 1475.2C1361.74 1475.33 1360.43 1475.39 1358.99 1475.39V1471.47L1407.8 1397.58H1388.59C1382.05 1397.58 1376.76 1399.54 1372.71 1403.46C1368.79 1407.38 1366.31 1412.93 1365.26 1420.12H1361.15L1362.91 1392.29C1363.3 1392.29 1365.2 1392.35 1368.6 1392.48C1372.12 1392.61 1376.5 1392.68 1381.73 1392.68H1428.38V1396.4L1380.16 1470.1H1400.94C1409.17 1470.1 1415.44 1468.27 1419.75 1464.61C1424.06 1460.82 1426.22 1455.2 1426.22 1447.76H1430.34ZM1462.56 1348.97C1465.7 1348.97 1468.24 1349.82 1470.2 1351.52C1472.29 1353.22 1473.34 1355.44 1473.34 1358.18C1473.34 1361.19 1472.36 1363.54 1470.4 1365.24C1468.44 1366.81 1465.83 1367.59 1462.56 1367.59C1459.42 1367.59 1456.88 1366.81 1454.92 1365.24C1452.96 1363.54 1451.98 1361.19 1451.98 1358.18C1451.98 1355.44 1452.96 1353.22 1454.92 1351.52C1456.88 1349.82 1459.42 1348.97 1462.56 1348.97ZM1472.36 1466.57C1472.36 1469.05 1473.21 1470.3 1474.91 1470.3L1481.96 1469.9V1475H1445.7V1469.9L1452.96 1470.3C1454.65 1470.3 1455.5 1469.05 1455.5 1466.57V1401.3C1455.5 1399.08 1454.72 1397.78 1453.15 1397.38L1445.9 1397.78V1392.68H1472.36V1466.57ZM1587.78 1469.9V1475H1549.56V1469.9L1558.58 1470.3C1560.28 1469.9 1561.12 1468.66 1561.12 1466.57V1422.08C1561.12 1415.81 1560.8 1410.97 1560.14 1407.58C1559.62 1404.18 1558.45 1401.57 1556.62 1399.74C1554.79 1397.91 1551.91 1396.99 1547.99 1396.99C1540.54 1396.99 1534.47 1400.19 1529.76 1406.6C1525.19 1412.87 1522.71 1421.36 1522.32 1432.08V1466.57C1522.32 1469.05 1523.17 1470.3 1524.86 1470.3L1533.88 1469.9V1475H1495.66V1469.9L1502.91 1470.3C1504.61 1469.9 1505.46 1468.66 1505.46 1466.57V1401.3C1505.46 1399.08 1504.61 1397.78 1502.91 1397.38L1495.66 1397.78V1392.68H1523.3C1522.64 1394.64 1522.32 1396.93 1522.32 1399.54V1410.32C1525.06 1404.18 1528.98 1399.41 1534.08 1396.01C1539.17 1392.48 1545.05 1390.72 1551.72 1390.72C1560.99 1390.72 1567.66 1392.94 1571.71 1397.38C1575.89 1401.7 1577.98 1408.75 1577.98 1418.55V1466.57C1577.98 1469.05 1578.83 1470.3 1580.53 1470.3L1587.78 1469.9ZM1638.03 1390.72C1648.36 1390.72 1656.65 1394.05 1662.93 1400.72C1669.33 1407.25 1672.66 1416.27 1672.92 1427.76V1433.45H1616.47C1616.47 1445.34 1618.5 1454.49 1622.55 1460.89C1626.73 1467.16 1632.94 1470.36 1641.17 1470.49C1647.7 1470.49 1653.19 1468.86 1657.63 1465.59C1662.21 1462.33 1665.54 1458.27 1667.63 1453.44L1672.14 1456.77C1669.52 1463.04 1665.08 1468.01 1658.81 1471.67C1652.67 1475.2 1645.87 1476.96 1638.43 1476.96C1611.9 1476.96 1598.64 1462.65 1598.64 1434.04C1598.64 1419.79 1601.97 1409.01 1608.63 1401.7C1615.3 1394.38 1625.1 1390.72 1638.03 1390.72ZM1638.03 1396.01C1630.72 1396.01 1625.29 1399.02 1621.77 1405.03C1618.37 1411.04 1616.67 1418.88 1616.67 1428.55H1652.34C1653.65 1428.55 1654.63 1428.09 1655.28 1427.18C1655.93 1426.26 1656.26 1424.56 1656.26 1422.08C1656.26 1413.19 1654.82 1406.66 1651.95 1402.48C1649.21 1398.17 1644.57 1396.01 1638.03 1396.01Z" fill="white"/>
<path d="M702.978 254.092C712.271 254.092 719.323 256.06 724.134 259.996C728.944 263.932 731.35 269.781 731.35 277.544C731.35 283.339 729.272 288.259 725.118 292.304C721.072 296.24 715.606 298.809 708.718 300.012C713.856 300.012 718.558 301.105 722.822 303.292C727.086 305.479 730.475 308.54 732.99 312.476C735.504 316.303 736.762 320.621 736.762 325.432C736.762 343.144 724.68 352 700.518 352H657.55V347.244L665.75 347.572C667.718 347.572 668.702 346.369 668.702 343.964V261.964C668.702 261.199 668.428 260.488 667.882 259.832C667.444 259.067 666.788 258.684 665.914 258.684L657.55 259.012V254.092H702.978ZM685.922 258.684C684.828 258.684 684.172 259.34 683.954 260.652V298.372H696.418C709.319 298.372 715.77 291.484 715.77 277.708C715.77 271.804 713.966 267.157 710.358 263.768C706.859 260.379 701.884 258.684 695.434 258.684H685.922ZM683.954 302.964V345.276C683.954 346.697 684.719 347.408 686.25 347.408H697.73C704.727 347.408 710.303 345.44 714.458 341.504C718.722 337.568 720.854 332.211 720.854 325.432C720.854 310.453 714.184 302.964 700.846 302.964H683.954ZM751.561 347.08L758.121 347.572C760.089 347.572 761.073 346.369 761.073 343.964V262.128C761.073 261.144 760.745 260.324 760.089 259.668C759.543 258.903 758.777 258.575 757.793 258.684L751.561 259.012V254.092H820.769C822.3 254.092 823.229 254.037 823.557 253.928V279.348H819.129C819.129 272.023 817.271 266.775 813.553 263.604C809.945 260.324 804.041 258.684 795.841 258.684H778.293C776.981 258.684 776.325 259.449 776.325 260.98V298.7H791.741C795.459 298.7 798.465 297.224 800.761 294.272C803.057 291.32 804.205 287.275 804.205 282.136H808.633V320.02H804.205C804.205 315.209 802.948 311.219 800.433 308.048C798.028 304.877 795.131 303.292 791.741 303.292H776.325V345.276C776.325 346.697 776.981 347.408 778.293 347.408H801.253C808.688 347.408 814.319 345.276 818.145 341.012C822.081 336.748 824.049 330.625 824.049 322.644H828.477V352.492C826.072 352.164 821.261 352 814.045 352H751.561V347.08ZM847.743 318.708C850.258 338.935 860.317 349.048 877.919 349.048C883.386 349.048 887.705 347.244 890.875 343.636C894.155 340.028 895.85 335.272 895.959 329.368C895.959 325.104 894.483 321.387 891.531 318.216C888.689 314.936 884.753 312.312 879.723 310.344L862.995 303.62C857.091 301.215 852.609 297.989 849.547 293.944C846.486 289.899 844.955 285.143 844.955 279.676C844.955 274.756 846.103 270.219 848.399 266.064C850.695 261.909 854.139 258.629 858.731 256.224C863.323 253.709 868.845 252.452 875.295 252.452C878.794 252.452 881.746 252.78 884.151 253.436C886.666 253.983 889.126 254.693 891.531 255.568C893.937 256.333 895.577 256.88 896.451 257.208C898.201 257.864 899.677 258.192 900.879 258.192C902.847 258.192 904.433 257.973 905.635 257.536C905.307 260.16 905.143 264.26 905.143 269.836C905.143 273.116 905.198 275.467 905.307 276.888C905.417 278.309 905.69 279.621 906.127 280.824H901.863C901.863 273.717 899.513 267.977 894.811 263.604C890.219 259.121 884.425 256.88 877.427 256.88C871.742 256.88 867.15 258.465 863.651 261.636C860.153 264.697 858.403 269.016 858.403 274.592C858.403 278.2 859.661 281.48 862.175 284.432C864.69 287.275 868.134 289.571 872.507 291.32L887.595 297.388C895.905 300.777 901.809 304.549 905.307 308.704C908.915 312.749 910.719 317.997 910.719 324.448C910.719 330.133 909.298 335.217 906.455 339.7C903.722 344.073 899.95 347.517 895.139 350.032C890.438 352.437 885.299 353.64 879.723 353.64C876.334 353.64 873.382 353.476 870.867 353.148C868.353 352.929 865.674 352.383 862.831 351.508C857.037 349.868 852.718 349.048 849.875 349.048C848.891 349.048 847.853 349.157 846.759 349.376C845.666 349.595 844.846 349.759 844.299 349.868C844.737 347.572 844.955 343.035 844.955 336.256C844.955 327.4 844.518 321.551 843.643 318.708H847.743ZM919.271 253.6C920.801 253.819 922.988 253.928 925.831 253.928H994.547C998.045 253.928 1000.23 253.819 1001.11 253.6V279.184H996.843C996.843 272.077 995.257 266.884 992.087 263.604C989.025 260.215 983.887 258.52 976.671 258.52H969.783C968.689 258.52 968.033 259.121 967.815 260.324V343.964C967.815 346.369 968.908 347.572 971.095 347.572L979.787 347.244V352H940.591V347.244L949.447 347.572C950.431 347.572 951.196 347.189 951.743 346.424C952.289 345.549 952.563 344.565 952.563 343.472V260.488C952.563 259.176 951.907 258.52 950.595 258.52H943.871C936.655 258.52 931.461 260.215 928.291 263.604C925.12 266.884 923.535 272.077 923.535 279.184H919.271V253.6ZM593.007 536.244L599.403 536.572C601.48 536.572 602.519 535.369 602.519 532.964V451.128C602.519 450.144 602.245 449.324 601.699 448.668C601.152 447.903 600.387 447.575 599.403 447.684L593.007 448.012V443.092H627.447V448.012L621.051 447.684H620.723C619.848 447.684 619.137 448.012 618.591 448.668C618.044 449.324 617.771 450.144 617.771 451.128V532.964C617.771 535.369 618.864 536.572 621.051 536.572L627.447 536.244V541H593.007V536.244ZM736.764 443.092V448.012L730.368 447.684H730.04C728.182 447.684 727.252 448.832 727.252 451.128V541.984H722.332L658.208 454.9V532.964C658.208 535.369 659.247 536.572 661.324 536.572L669.36 536.244V541H642.956V536.244L649.352 536.572C651.539 536.572 652.632 535.369 652.632 532.964V451.128C652.632 450.144 652.304 449.324 651.648 448.668C651.102 447.903 650.336 447.575 649.352 447.684L642.956 448.012V443.092H668.376L721.676 515.58V450.964C721.676 448.777 720.747 447.684 718.888 447.684H718.396L710.36 448.012V443.092H736.764ZM752.362 536.244L759.414 536.572C761.054 536.572 761.874 535.369 761.874 532.964V451.128C761.874 450.144 761.601 449.324 761.054 448.668C760.507 448.012 759.742 447.684 758.758 447.684L752.362 448.012V443.092H789.262C806.755 443.092 819.657 446.919 827.966 454.572C836.385 462.116 840.594 474.58 840.594 491.964C840.594 524.655 824.139 541 791.23 541H752.362V536.244ZM777.126 534.276C777.126 535.697 777.782 536.408 779.094 536.408H786.474C795.658 536.408 802.929 534.987 808.286 532.144C813.753 529.192 817.689 524.491 820.094 518.04C822.609 511.589 823.866 502.952 823.866 492.128C823.866 481.304 822.609 472.667 820.094 466.216C817.689 459.765 813.753 455.064 808.286 452.112C802.819 449.16 795.549 447.684 786.474 447.684H779.094C777.782 447.684 777.126 448.395 777.126 449.816V534.276ZM854.542 536.244L860.938 536.572C863.015 536.572 864.054 535.369 864.054 532.964V451.128C864.054 450.144 863.78 449.324 863.234 448.668C862.687 447.903 861.922 447.575 860.938 447.684L854.542 448.012V443.092H888.982V448.012L882.586 447.684H882.258C881.383 447.684 880.672 448.012 880.126 448.668C879.579 449.324 879.306 450.144 879.306 451.128V532.964C879.306 535.369 880.399 536.572 882.586 536.572L888.982 536.244V541H854.542V536.244ZM998.955 536.244V541H955.495V536.244L963.531 536.572C966.811 536.9 968.451 535.588 968.451 532.636C968.451 530.777 967.905 528.645 966.811 526.24L958.775 506.888H920.563L913.019 525.256C911.489 528.645 910.723 531.379 910.723 533.456C910.723 535.752 911.926 536.845 914.331 536.736L922.203 536.244V541H893.831V536.244L898.095 536.572H898.751C900.938 536.572 902.742 535.533 904.163 533.456C905.803 531.051 907.443 527.88 909.083 523.944L943.359 441.452H947.623L982.227 524.272C983.758 528.208 985.343 531.324 986.983 533.62C988.514 535.588 990.427 536.572 992.723 536.572H993.543L998.955 536.244ZM922.531 502.296H956.807L939.587 460.968L922.531 502.296ZM1096.8 443.092V448.012L1090.4 447.684H1090.07C1088.21 447.684 1087.28 448.832 1087.28 451.128V541.984H1082.36L1018.24 454.9V532.964C1018.24 535.369 1019.28 536.572 1021.36 536.572L1029.39 536.244V541H1002.99V536.244L1009.38 536.572C1011.57 536.572 1012.66 535.369 1012.66 532.964V451.128C1012.66 450.144 1012.34 449.324 1011.68 448.668C1011.13 447.903 1010.37 447.575 1009.38 447.684L1002.99 448.012V443.092H1028.41L1081.71 515.58V450.964C1081.71 448.777 1080.78 447.684 1078.92 447.684H1078.43L1070.39 448.012V443.092H1096.8ZM382.241 725.244L388.637 725.572C390.714 725.572 391.753 724.369 391.753 721.964V640.128C391.753 639.144 391.425 638.324 390.769 637.668C390.222 636.903 389.348 636.575 388.145 636.684L382.241 637.012V632.092H419.141C431.277 632.092 440.078 634.169 445.545 638.324C451.012 642.369 453.745 648.984 453.745 658.168C453.745 663.744 451.886 668.609 448.169 672.764C444.561 676.809 439.75 679.652 433.737 681.292C437.126 681.292 440.516 682.44 443.905 684.736C447.404 687.032 450.301 690.367 452.597 694.74C454.893 699.113 456.041 704.197 456.041 709.992C456.041 713.272 456.424 716.607 457.189 719.996C458.064 723.385 459.266 725.189 460.797 725.408C461.453 725.627 462.218 725.736 463.093 725.736C464.405 725.736 465.444 725.517 466.209 725.08V730H443.905C442.593 727.267 441.828 723.659 441.609 719.176C441.39 716.333 441.281 714.256 441.281 712.944V707.532C441.281 699.332 438.602 693.209 433.245 689.164C427.997 685.119 421.546 683.096 413.893 683.096H407.005V721.964C407.005 724.369 408.098 725.572 410.285 725.572L418.321 725.244V730H382.241V725.244ZM422.257 678.668C427.286 678.668 431.222 676.864 434.065 673.256C436.908 669.648 438.329 664.619 438.329 658.168C438.329 650.624 436.744 645.157 433.573 641.768C430.512 638.379 425.701 636.684 419.141 636.684H408.973C407.661 636.684 407.005 637.231 407.005 638.324V678.668H422.257ZM477.534 725.08L484.094 725.572C486.062 725.572 487.046 724.369 487.046 721.964V640.128C487.046 639.144 486.718 638.324 486.062 637.668C485.515 636.903 484.75 636.575 483.766 636.684L477.534 637.012V632.092H546.742C548.273 632.092 549.202 632.037 549.53 631.928V657.348H545.102C545.102 650.023 543.243 644.775 539.526 641.604C535.918 638.324 530.014 636.684 521.814 636.684H504.266C502.954 636.684 502.298 637.449 502.298 638.98V676.7H517.714C521.431 676.7 524.438 675.224 526.734 672.272C529.03 669.32 530.178 665.275 530.178 660.136H534.606V698.02H530.178C530.178 693.209 528.921 689.219 526.406 686.048C524.001 682.877 521.103 681.292 517.714 681.292H502.298V723.276C502.298 724.697 502.954 725.408 504.266 725.408H527.226C534.661 725.408 540.291 723.276 544.118 719.012C548.054 714.748 550.022 708.625 550.022 700.644H554.45V730.492C552.045 730.164 547.234 730 540.018 730H477.534V725.08ZM573.716 696.708C576.231 716.935 586.289 727.048 603.892 727.048C609.359 727.048 613.677 725.244 616.848 721.636C620.128 718.028 621.823 713.272 621.932 707.368C621.932 703.104 620.456 699.387 617.504 696.216C614.661 692.936 610.725 690.312 605.696 688.344L588.968 681.62C583.064 679.215 578.581 675.989 575.52 671.944C572.459 667.899 570.928 663.143 570.928 657.676C570.928 652.756 572.076 648.219 574.372 644.064C576.668 639.909 580.112 636.629 584.704 634.224C589.296 631.709 594.817 630.452 601.268 630.452C604.767 630.452 607.719 630.78 610.124 631.436C612.639 631.983 615.099 632.693 617.504 633.568C619.909 634.333 621.549 634.88 622.424 635.208C624.173 635.864 625.649 636.192 626.852 636.192C628.82 636.192 630.405 635.973 631.608 635.536C631.28 638.16 631.116 642.26 631.116 647.836C631.116 651.116 631.171 653.467 631.28 654.888C631.389 656.309 631.663 657.621 632.1 658.824H627.836C627.836 651.717 625.485 645.977 620.784 641.604C616.192 637.121 610.397 634.88 603.4 634.88C597.715 634.88 593.123 636.465 589.624 639.636C586.125 642.697 584.376 647.016 584.376 652.592C584.376 656.2 585.633 659.48 588.148 662.432C590.663 665.275 594.107 667.571 598.48 669.32L613.568 675.388C621.877 678.777 627.781 682.549 631.28 686.704C634.888 690.749 636.692 695.997 636.692 702.448C636.692 708.133 635.271 713.217 632.428 717.7C629.695 722.073 625.923 725.517 621.112 728.032C616.411 730.437 611.272 731.64 605.696 731.64C602.307 731.64 599.355 731.476 596.84 731.148C594.325 730.929 591.647 730.383 588.804 729.508C583.009 727.868 578.691 727.048 575.848 727.048C574.864 727.048 573.825 727.157 572.732 727.376C571.639 727.595 570.819 727.759 570.272 727.868C570.709 725.572 570.928 721.035 570.928 714.256C570.928 705.4 570.491 699.551 569.616 696.708H573.716ZM645.243 631.6C646.774 631.819 648.961 631.928 651.803 631.928H720.519C724.018 631.928 726.205 631.819 727.079 631.6V657.184H722.815C722.815 650.077 721.23 644.884 718.059 641.604C714.998 638.215 709.859 636.52 702.643 636.52H695.755C694.662 636.52 694.006 637.121 693.787 638.324V721.964C693.787 724.369 694.881 725.572 697.067 725.572L705.759 725.244V730H666.563V725.244L675.419 725.572C676.403 725.572 677.169 725.189 677.715 724.424C678.262 723.549 678.535 722.565 678.535 721.472V638.488C678.535 637.176 677.879 636.52 676.567 636.52H669.843C662.627 636.52 657.434 638.215 654.263 641.604C651.093 644.884 649.507 650.077 649.507 657.184H645.243V631.6ZM822.303 725.244V730H778.843V725.244L786.879 725.572C790.159 725.9 791.799 724.588 791.799 721.636C791.799 719.777 791.252 717.645 790.159 715.24L782.123 695.888H743.911L736.367 714.256C734.836 717.645 734.071 720.379 734.071 722.456C734.071 724.752 735.274 725.845 737.679 725.736L745.551 725.244V730H717.179V725.244L721.443 725.572H722.099C724.286 725.572 726.09 724.533 727.511 722.456C729.151 720.051 730.791 716.88 732.431 712.944L766.707 630.452H770.971L805.575 713.272C807.106 717.208 808.691 720.324 810.331 722.62C811.862 724.588 813.775 725.572 816.071 725.572H816.891L822.303 725.244ZM745.879 691.296H780.155L762.935 649.968L745.879 691.296ZM824.695 632.092H860.611V637.012L852.575 636.684H852.247C851.372 636.684 850.662 637.012 850.115 637.668C849.568 638.324 849.295 639.089 849.295 639.964V697.364C849.295 706.548 851.81 713.709 856.839 718.848C861.978 723.987 869.139 726.556 878.323 726.556C883.571 726.556 888.327 725.299 892.591 722.784C896.855 720.269 900.19 716.825 902.595 712.452C905 707.969 906.203 702.995 906.203 697.528V640.128C906.203 639.035 905.93 638.16 905.383 637.504C904.836 636.848 904.126 636.575 903.251 636.684L895.215 637.012V632.092H921.619V637.012L915.223 636.684H914.895C914.02 636.684 913.31 637.012 912.763 637.668C912.216 638.324 911.943 639.089 911.943 639.964V699.004C911.943 705.236 910.358 710.867 907.187 715.896C904.016 720.816 899.643 724.697 894.067 727.54C888.6 730.273 882.368 731.64 875.371 731.64C862.032 731.64 851.81 728.743 844.703 722.948C837.596 717.044 834.043 708.516 834.043 697.364V640.128C834.043 639.144 833.715 638.324 833.059 637.668C832.512 636.903 831.802 636.575 830.927 636.684L824.695 637.012V632.092ZM933.979 725.244L940.375 725.572C942.453 725.572 943.491 724.369 943.491 721.964V640.128C943.491 639.144 943.163 638.324 942.507 637.668C941.961 636.903 941.086 636.575 939.883 636.684L933.979 637.012V632.092H970.879C983.015 632.092 991.817 634.169 997.283 638.324C1002.75 642.369 1005.48 648.984 1005.48 658.168C1005.48 663.744 1003.62 668.609 999.907 672.764C996.299 676.809 991.489 679.652 985.475 681.292C988.865 681.292 992.254 682.44 995.643 684.736C999.142 687.032 1002.04 690.367 1004.34 694.74C1006.63 699.113 1007.78 704.197 1007.78 709.992C1007.78 713.272 1008.16 716.607 1008.93 719.996C1009.8 723.385 1011 725.189 1012.54 725.408C1013.19 725.627 1013.96 725.736 1014.83 725.736C1016.14 725.736 1017.18 725.517 1017.95 725.08V730H995.643C994.331 727.267 993.566 723.659 993.347 719.176C993.129 716.333 993.019 714.256 993.019 712.944V707.532C993.019 699.332 990.341 693.209 984.983 689.164C979.735 685.119 973.285 683.096 965.631 683.096H958.743V721.964C958.743 724.369 959.837 725.572 962.023 725.572L970.059 725.244V730H933.979V725.244ZM973.995 678.668C979.025 678.668 982.961 676.864 985.803 673.256C988.646 669.648 990.067 664.619 990.067 658.168C990.067 650.624 988.482 645.157 985.311 641.768C982.25 638.379 977.439 636.684 970.879 636.684H960.711C959.399 636.684 958.743 637.231 958.743 638.324V678.668H973.995ZM1122.92 725.244V730H1079.46V725.244L1087.49 725.572C1090.77 725.9 1092.41 724.588 1092.41 721.636C1092.41 719.777 1091.87 717.645 1090.77 715.24L1082.74 695.888H1044.52L1036.98 714.256C1035.45 717.645 1034.68 720.379 1034.68 722.456C1034.68 724.752 1035.89 725.845 1038.29 725.736L1046.16 725.244V730H1017.79V725.244L1022.06 725.572H1022.71C1024.9 725.572 1026.7 724.533 1028.12 722.456C1029.76 720.051 1031.4 716.88 1033.04 712.944L1067.32 630.452H1071.58L1106.19 713.272C1107.72 717.208 1109.3 720.324 1110.94 722.62C1112.47 724.588 1114.39 725.572 1116.68 725.572H1117.5L1122.92 725.244ZM1046.49 691.296H1080.77L1063.55 649.968L1046.49 691.296ZM1220.76 632.092V637.012L1214.36 636.684H1214.03C1212.17 636.684 1211.24 637.832 1211.24 640.128V730.984H1206.32L1142.2 643.9V721.964C1142.2 724.369 1143.24 725.572 1145.32 725.572L1153.35 725.244V730H1126.95V725.244L1133.34 725.572C1135.53 725.572 1136.62 724.369 1136.62 721.964V640.128C1136.62 639.144 1136.3 638.324 1135.64 637.668C1135.09 636.903 1134.33 636.575 1133.34 636.684L1126.95 637.012V632.092H1152.37L1205.67 704.58V639.964C1205.67 637.777 1204.74 636.684 1202.88 636.684H1202.39L1194.35 637.012V632.092H1220.76ZM1230.61 631.6C1232.14 631.819 1234.33 631.928 1237.17 631.928H1305.89C1309.39 631.928 1311.58 631.819 1312.45 631.6V657.184H1308.19C1308.19 650.077 1306.6 644.884 1303.43 641.604C1300.37 638.215 1295.23 636.52 1288.01 636.52H1281.13C1280.03 636.52 1279.38 637.121 1279.16 638.324V721.964C1279.16 724.369 1280.25 725.572 1282.44 725.572L1291.13 725.244V730H1251.93V725.244L1260.79 725.572C1261.77 725.572 1262.54 725.189 1263.09 724.424C1263.63 723.549 1263.91 722.565 1263.91 721.472V638.488C1263.91 637.176 1263.25 636.52 1261.94 636.52H1255.21C1248 636.52 1242.8 638.215 1239.63 641.604C1236.46 644.884 1234.88 650.077 1234.88 657.184H1230.61V631.6ZM491.297 825.8C491.297 808.79 498.052 792.305 511.562 776.345H516.077C513.067 780.195 510.407 785.06 508.097 790.94C505.857 796.82 504.142 802.875 502.952 809.105C501.762 815.335 501.167 820.9 501.167 825.8C501.167 830.7 501.762 836.265 502.952 842.495C504.142 848.725 505.857 854.78 508.097 860.66C510.407 866.54 513.067 871.405 516.077 875.255H511.562C498.052 859.295 491.297 842.81 491.297 825.8ZM540.217 843.125C540.217 845.295 540.357 847.92 540.637 851H530.767C530.907 844.98 531.537 839.205 532.657 833.675C533.847 828.145 536.122 822.16 539.482 815.72C542.842 809.21 547.672 802.42 553.972 795.35H532.342C529.262 795.35 526.987 795.84 525.517 796.82C524.117 797.73 523.277 799.27 522.997 801.44H519.217L519.532 799.34C520.372 792.76 520.792 788.98 520.792 788C521.702 788.21 525.867 788.315 533.287 788.315H559.852L560.272 792.725C554.182 799.515 549.317 807.18 545.677 815.72C542.037 824.26 540.217 833.395 540.217 843.125ZM634.558 806.9V809.63L630.253 809.42H630.043C628.923 809.42 628.048 810.085 627.418 811.415L605.263 864.86C603.583 868.99 601.798 871.895 599.908 873.575C598.018 875.255 595.673 876.095 592.873 876.095C590.983 876.095 589.373 875.64 588.043 874.73C586.783 873.82 586.083 872.56 585.943 870.95C585.943 869.2 586.328 867.87 587.098 866.96C587.938 866.05 588.918 865.595 590.038 865.595C591.088 865.595 591.893 865.805 592.453 866.225C593.013 866.715 593.538 867.345 594.028 868.115C594.098 868.255 594.273 868.5 594.553 868.85C594.833 869.27 595.148 869.55 595.498 869.69C595.848 869.9 596.233 870.005 596.653 870.005C597.493 870.005 598.333 869.585 599.173 868.745C600.083 867.975 600.853 866.785 601.483 865.175L607.573 850.58L589.408 810.785C588.988 809.875 588.428 809.42 587.728 809.42L582.583 809.63V806.9H605.578V809.63L600.853 809.42C600.363 809.42 599.978 809.63 599.698 810.05C599.418 810.4 599.383 810.785 599.593 811.205L612.403 839.345L624.268 810.995C624.338 810.855 624.373 810.645 624.373 810.365C624.373 809.735 623.988 809.42 623.218 809.42L618.283 809.63V806.9H634.558ZM657.639 805.85C663.169 805.85 667.614 807.635 670.974 811.205C674.404 814.705 676.189 819.535 676.329 825.695V828.74H646.089C646.089 835.11 647.174 840.01 649.344 843.44C651.584 846.8 654.909 848.515 659.319 848.585C662.819 848.585 665.759 847.71 668.139 845.96C670.589 844.21 672.374 842.04 673.494 839.45L675.909 841.235C674.509 844.595 672.129 847.255 668.769 849.215C665.479 851.105 661.839 852.05 657.849 852.05C643.639 852.05 636.534 844.385 636.534 829.055C636.534 821.425 638.319 815.65 641.889 811.73C645.459 807.81 650.709 805.85 657.639 805.85ZM657.639 808.685C653.719 808.685 650.814 810.295 648.924 813.515C647.104 816.735 646.194 820.935 646.194 826.115H665.304C666.004 826.115 666.529 825.87 666.879 825.38C667.229 824.89 667.404 823.98 667.404 822.65C667.404 817.89 666.634 814.39 665.094 812.15C663.624 809.84 661.139 808.685 657.639 808.685ZM725.177 848.27V851H710.267C710.337 850.51 710.407 849.88 710.477 849.11C710.617 848.27 710.687 847.605 710.687 847.115L710.897 843.02C709.357 846.03 707.362 848.2 704.912 849.53C702.532 850.86 699.662 851.525 696.302 851.525C691.892 851.525 688.532 850.545 686.222 848.585C683.982 846.555 682.862 843.58 682.862 839.66C682.862 834.27 685.102 830.315 689.582 827.795C694.132 825.205 701.237 823.91 710.897 823.91V817.82C710.897 814.53 710.127 812.185 708.587 810.785C707.047 809.385 704.562 808.685 701.132 808.685C695.812 808.685 693.152 810.155 693.152 813.095C693.152 813.655 693.292 814.32 693.572 815.09C693.922 815.79 694.097 816.455 694.097 817.085C694.097 818.275 693.712 819.185 692.942 819.815C692.172 820.375 691.192 820.655 690.002 820.655C688.532 820.655 687.377 820.2 686.537 819.29C685.767 818.38 685.382 817.19 685.382 815.72C685.382 812.78 686.922 810.4 690.002 808.58C693.082 806.76 697.212 805.85 702.392 805.85C714.082 805.85 719.927 810.785 719.927 820.655V846.485C719.927 847.815 720.382 848.48 721.292 848.48L725.177 848.27ZM699.452 847.745C702.532 847.745 705.157 846.485 707.327 843.965C709.497 841.375 710.687 838.05 710.897 833.99V826.745C704.317 826.745 699.592 827.725 696.722 829.685C693.852 831.575 692.417 834.62 692.417 838.82C692.417 841.76 693.012 844 694.202 845.54C695.462 847.01 697.212 847.745 699.452 847.745ZM757.433 805.85C760.163 805.85 762.263 806.62 763.733 808.16C765.273 809.7 766.043 811.66 766.043 814.04C766.043 815.65 765.623 816.875 764.783 817.715C764.013 818.555 762.963 818.975 761.633 818.975C760.653 818.975 759.743 818.73 758.903 818.24C758.133 817.68 757.748 816.84 757.748 815.72C757.748 815.09 757.888 814.285 758.168 813.305C758.448 812.325 758.588 811.555 758.588 810.995C758.588 810.435 758.378 809.945 757.958 809.525C757.608 809.035 757.013 808.79 756.173 808.79C754.003 808.79 752.113 809.84 750.503 811.94C748.893 813.97 747.633 816.525 746.723 819.605C745.813 822.615 745.288 825.52 745.148 828.32V846.485C745.148 847.815 745.603 848.48 746.513 848.48L752.918 848.27V851H731.393V848.27L734.753 848.48C735.663 848.48 736.118 847.815 736.118 846.485V811.52C736.118 810.12 735.663 809.42 734.753 809.42L730.973 809.63V806.9H745.778C745.638 807.32 745.498 808.02 745.358 809C745.218 809.91 745.148 810.82 745.148 811.73V816.875C746.758 812.955 748.543 810.155 750.503 808.475C752.533 806.725 754.843 805.85 757.433 805.85ZM772.638 836.09L775.368 835.88C775.368 838.47 776.068 840.78 777.468 842.81C778.868 844.84 780.723 846.415 783.033 847.535C785.343 848.655 787.863 849.215 790.593 849.215C793.393 849.215 795.563 848.515 797.103 847.115C798.643 845.645 799.413 843.685 799.413 841.235C799.413 839.275 798.853 837.665 797.733 836.405C796.613 835.145 794.723 834.13 792.063 833.36L781.983 830.525C779.183 829.685 776.978 828.285 775.368 826.325C773.758 824.295 772.953 821.81 772.953 818.87C772.953 815.02 774.388 811.905 777.258 809.525C780.128 807.075 784.048 805.85 789.018 805.85C790.418 805.85 791.643 805.955 792.693 806.165C793.813 806.375 795.178 806.725 796.788 807.215C798.958 807.845 800.568 808.16 801.618 808.16C802.668 808.16 803.648 807.88 804.558 807.32L803.928 819.29H801.618C801.618 816.49 800.498 814.04 798.258 811.94C796.088 809.77 793.113 808.685 789.333 808.685C786.673 808.685 784.573 809.385 783.033 810.785C781.563 812.185 780.828 813.97 780.828 816.14C780.828 819.57 782.998 821.88 787.338 823.07L797.418 825.905C800.988 826.885 803.508 828.355 804.978 830.315C806.448 832.205 807.183 834.69 807.183 837.77C807.183 842.32 805.573 845.855 802.353 848.375C799.133 850.825 794.933 852.05 789.753 852.05C788.283 852.05 786.743 851.875 785.133 851.525C783.593 851.245 781.213 850.65 777.993 849.74C776.943 849.46 775.998 849.32 775.158 849.32C773.758 849.32 772.743 849.53 772.113 849.95L772.638 836.09ZM846.438 783.485C848.118 783.485 849.483 783.94 850.533 784.85C851.653 785.76 852.213 786.95 852.213 788.42C852.213 790.03 851.688 791.29 850.638 792.2C849.588 793.04 848.188 793.46 846.438 793.46C844.758 793.46 843.393 793.04 842.343 792.2C841.293 791.29 840.768 790.03 840.768 788.42C840.768 786.95 841.293 785.76 842.343 784.85C843.393 783.94 844.758 783.485 846.438 783.485ZM851.688 846.485C851.688 847.815 852.143 848.48 853.053 848.48L856.833 848.27V851H837.408V848.27L841.293 848.48C842.203 848.48 842.658 847.815 842.658 846.485V811.52C842.658 810.33 842.238 809.63 841.398 809.42L837.513 809.63V806.9H851.688V846.485ZM913.521 848.27V851H893.046V848.27L897.876 848.48C898.786 848.27 899.241 847.605 899.241 846.485V822.65C899.241 819.29 899.066 816.7 898.716 814.88C898.436 813.06 897.806 811.66 896.826 810.68C895.846 809.7 894.306 809.21 892.206 809.21C888.216 809.21 884.961 810.925 882.441 814.355C879.991 817.715 878.661 822.265 878.451 828.005V846.485C878.451 847.815 878.906 848.48 879.816 848.48L884.646 848.27V851H864.171V848.27L868.056 848.48C868.966 848.27 869.421 847.605 869.421 846.485V811.52C869.421 810.33 868.966 809.63 868.056 809.42L864.171 809.63V806.9H878.976C878.626 807.95 878.451 809.175 878.451 810.575V816.35C879.921 813.06 882.021 810.505 884.751 808.685C887.481 806.795 890.631 805.85 894.201 805.85C899.171 805.85 902.741 807.04 904.911 809.42C907.151 811.73 908.271 815.51 908.271 820.76V846.485C908.271 847.815 908.726 848.48 909.636 848.48L913.521 848.27ZM983.883 848.27V851H968.973C969.043 850.51 969.113 849.88 969.183 849.11C969.323 848.27 969.393 847.605 969.393 847.115L969.603 843.02C968.063 846.03 966.068 848.2 963.618 849.53C961.238 850.86 958.368 851.525 955.008 851.525C950.598 851.525 947.238 850.545 944.928 848.585C942.688 846.555 941.568 843.58 941.568 839.66C941.568 834.27 943.808 830.315 948.288 827.795C952.838 825.205 959.943 823.91 969.603 823.91V817.82C969.603 814.53 968.833 812.185 967.293 810.785C965.753 809.385 963.268 808.685 959.838 808.685C954.518 808.685 951.858 810.155 951.858 813.095C951.858 813.655 951.998 814.32 952.278 815.09C952.628 815.79 952.803 816.455 952.803 817.085C952.803 818.275 952.418 819.185 951.648 819.815C950.878 820.375 949.898 820.655 948.708 820.655C947.238 820.655 946.083 820.2 945.243 819.29C944.473 818.38 944.088 817.19 944.088 815.72C944.088 812.78 945.628 810.4 948.708 808.58C951.788 806.76 955.918 805.85 961.098 805.85C972.788 805.85 978.633 810.785 978.633 820.655V846.485C978.633 847.815 979.088 848.48 979.998 848.48L983.883 848.27ZM958.158 847.745C961.238 847.745 963.863 846.485 966.033 843.965C968.203 841.375 969.393 838.05 969.603 833.99V826.745C963.023 826.745 958.298 827.725 955.428 829.685C952.558 831.575 951.123 834.62 951.123 838.82C951.123 841.76 951.718 844 952.908 845.54C954.168 847.01 955.918 847.745 958.158 847.745ZM1039.21 805.85C1041.94 805.85 1044.04 806.62 1045.51 808.16C1047.05 809.7 1047.82 811.66 1047.82 814.04C1047.82 815.65 1047.4 816.875 1046.56 817.715C1045.79 818.555 1044.74 818.975 1043.41 818.975C1042.43 818.975 1041.52 818.73 1040.68 818.24C1039.91 817.68 1039.53 816.84 1039.53 815.72C1039.53 815.09 1039.67 814.285 1039.95 813.305C1040.23 812.325 1040.37 811.555 1040.37 810.995C1040.37 810.435 1040.16 809.945 1039.74 809.525C1039.39 809.035 1038.79 808.79 1037.95 808.79C1035.78 808.79 1033.89 809.84 1032.28 811.94C1030.67 813.97 1029.41 816.525 1028.5 819.605C1027.59 822.615 1027.07 825.52 1026.93 828.32V846.485C1026.93 847.815 1027.38 848.48 1028.29 848.48L1034.7 848.27V851H1013.17V848.27L1016.53 848.48C1017.44 848.48 1017.9 847.815 1017.9 846.485V811.52C1017.9 810.12 1017.44 809.42 1016.53 809.42L1012.75 809.63V806.9H1027.56C1027.42 807.32 1027.28 808.02 1027.14 809C1027 809.91 1026.93 810.82 1026.93 811.73V816.875C1028.54 812.955 1030.32 810.155 1032.28 808.475C1034.31 806.725 1036.62 805.85 1039.21 805.85ZM1052.02 828.845C1052.02 821.705 1053.81 816.105 1057.38 812.045C1060.95 807.915 1066.2 805.85 1073.13 805.85C1080.06 805.85 1085.31 807.915 1088.88 812.045C1092.45 816.105 1094.23 821.705 1094.23 828.845C1094.23 836.125 1092.45 841.83 1088.88 845.96C1085.31 850.02 1080.06 852.05 1073.13 852.05C1066.2 852.05 1060.95 850.02 1057.38 845.96C1053.81 841.83 1052.02 836.125 1052.02 828.845ZM1061.58 829.055C1061.58 836.125 1062.45 841.27 1064.2 844.49C1066.02 847.64 1069 849.215 1073.13 849.215C1077.26 849.215 1080.2 847.64 1081.95 844.49C1083.77 841.27 1084.68 836.125 1084.68 829.055C1084.68 821.915 1083.77 816.735 1081.95 813.515C1080.2 810.295 1077.26 808.685 1073.13 808.685C1069 808.685 1066.02 810.295 1064.2 813.515C1062.45 816.735 1061.58 821.915 1061.58 829.055ZM1172.03 806.9V809.63L1167.72 809.42C1166.67 809.42 1165.94 810.015 1165.52 811.205L1149.87 852.05H1147.56L1133.49 819.29L1119 852.05H1116.9L1102.1 810.785C1101.68 809.875 1101.08 809.42 1100.31 809.42L1095.48 809.63V806.9H1117.85V809.63L1113.23 809.42H1113.02C1112.39 809.42 1111.93 809.63 1111.65 810.05C1111.44 810.47 1111.44 810.96 1111.65 811.52L1121.52 839.345L1135.91 806.375H1138.11L1152.08 838.715L1162.05 811.205L1162.26 810.365C1162.26 809.665 1161.81 809.35 1160.9 809.42L1155.33 809.63V806.9H1172.03ZM1197.71 825.8C1197.71 842.81 1190.96 859.295 1177.45 875.255H1172.93C1175.94 871.405 1178.57 866.54 1180.81 860.66C1183.12 854.78 1184.87 848.725 1186.06 842.495C1187.25 836.265 1187.84 830.7 1187.84 825.8C1187.84 820.9 1187.25 815.335 1186.06 809.105C1184.87 802.875 1183.12 796.82 1180.81 790.94C1178.57 785.06 1175.94 780.195 1172.93 776.345H1177.45C1190.96 792.305 1197.71 808.79 1197.71 825.8Z" fill="white"/>
<path d="M1272.45 0.629166C1272.45 1.02402 1274.17 10.1058 1276.4 20.767C1284.3 60.6477 1291.01 81.9701 1303.39 107.241C1323.65 149.096 1351.95 173.577 1391.7 183.58C1403.68 186.739 1425.13 189.767 1426.45 188.582C1426.84 188.187 1427.11 177.789 1427.11 165.417C1427.11 145.674 1426.71 141.331 1423.95 131.591C1413.29 93.2894 1387.36 61.9639 1343.79 35.1135C1330.89 27.0847 1300.36 11.422 1283.91 4.44614C1272.98 -0.292175 1272.45 -0.423798 1272.45 0.629166Z" fill="white"/>
<path d="M407.056 3.91876C404.16 5.36658 393.104 10.4997 382.575 15.5013C307.946 50.7753 270.171 90.5245 260.958 143.304C258.852 154.755 258.326 174.235 259.773 184.764L260.695 190.95L266.749 190.16C291.757 186.87 306.104 183.053 321.503 175.419C360.068 156.071 386.391 117.901 402.317 57.8828C405.871 44.7208 414.295 5.4982 414.295 2.33932C414.295 0.89151 413.11 1.15475 407.056 3.91876Z" fill="white"/>
<path d="M1481.2 60.1212C1464.09 94.6055 1454.22 120.271 1448.56 145.674C1444.35 164.364 1444.35 195.953 1448.56 211.879C1454.62 234.386 1465.94 253.734 1484.23 272.819L1495.29 284.401L1500.55 279.4C1514.77 265.843 1529.24 241.493 1535.04 221.75C1540.83 201.744 1541.35 172.656 1536.35 148.043C1533.46 133.828 1524.24 106.583 1515.95 88.1562C1509.11 72.8883 1492.65 40.7731 1491.6 40.7731C1491.21 40.7731 1486.6 49.46 1481.2 60.1212Z" fill="white"/>
<path d="M186.33 58.147C158.953 109.742 146.975 148.438 146.975 184.502C146.975 202.534 148.292 212.274 152.635 226.094C158.163 244.126 171.325 265.843 184.355 278.742L191.463 285.717L201.598 275.32C214.233 262.552 221.999 251.628 229.501 236.228C237.003 220.829 240.425 206.877 241.478 188.056C243.189 154.361 232.791 117.244 207.126 64.728C200.939 52.3557 195.675 42.0894 195.411 42.0894C195.148 42.0894 191.068 49.3285 186.33 58.147Z" fill="white"/>
<path d="M1301.41 175.025C1301.41 178.052 1318.92 228.594 1324.18 240.966C1348 296.378 1378.93 327.835 1421.18 339.944C1441.06 345.736 1473.17 348.236 1474.62 344.156C1475.02 343.103 1474.75 335.206 1473.96 326.651C1467.78 259.13 1425.79 216.748 1333 184.238C1309.57 175.946 1301.41 173.577 1301.41 175.025Z" fill="white"/>
<path d="M362.305 182.79C310.052 200.427 279.122 217.143 253.851 241.493C227.395 266.895 214.891 295.062 212.259 334.153L211.337 347.841L229.633 347.052C297.68 344.024 341.115 305.197 371.256 220.434C377.178 203.85 385.734 176.209 385.076 175.683C384.812 175.551 374.678 178.71 362.305 182.79Z" fill="white"/>
<path d="M1582.42 233.332C1540.7 285.322 1520.29 322.833 1514.63 358.239C1512.27 372.717 1513.58 399.304 1517.27 411.94C1520.95 424.839 1528.85 441.686 1537.27 454.321C1544.78 465.772 1543.46 465.641 1556.09 456.296C1606.9 418.652 1622.3 360.871 1604.14 277.161C1600.98 262.815 1591.11 227.409 1589.92 226.093C1589.39 225.566 1585.97 228.857 1582.42 233.332Z" fill="white"/>
<path d="M96.6967 227.278C95.5121 229.252 85.2458 266.763 82.6134 278.609C68.0036 345.472 75.111 396.014 104.331 432.604C109.069 438.527 116.045 446.029 119.862 449.188C128.68 456.691 140.921 465.904 142.105 465.904C143.553 465.904 154.346 448.793 160.137 437.342C168.956 419.574 172.378 406.28 173.036 385.484C173.563 371.796 173.299 365.083 171.588 356.528C165.665 327.44 153.425 301.774 129.075 267.422C116.176 249.39 97.4864 226.093 96.6967 227.278Z" fill="white"/>
<path d="M1395.39 364.689C1398.81 446.425 1416.18 494.861 1452.64 524.08C1468.83 536.979 1494.5 549.22 1511.61 551.984L1517 552.905L1520.03 540.664C1524.37 522.896 1524.51 492.36 1520.16 476.434C1512.26 447.214 1493.44 418.916 1464.62 392.724C1449.09 378.641 1420 357.187 1399.6 344.814L1394.47 341.655L1395.39 364.689Z" fill="white"/>
<path d="M270.171 357.713C243.847 375.35 233.055 383.905 215.154 401.279C177.906 437.474 161.585 472.748 163.296 513.945C164.086 533.293 168.561 554.089 171.983 554.089C181.46 554.089 211.206 541.848 226.21 531.582C258.589 509.865 279.648 469.721 287.15 416.152C289.651 398.646 292.283 360.082 291.625 350.473L291.23 343.498L270.171 357.713Z" fill="white"/>
<path d="M1643.36 436.816C1600.98 462.351 1573.6 484.858 1556.36 508.286C1536.22 535.663 1527.93 562.118 1529.51 593.444C1530.17 606.474 1533.06 624.111 1535.69 631.087L1536.88 634.114L1545.83 631.877C1597.42 618.451 1631.91 582.256 1648.89 523.29C1653.76 506.575 1658.76 477.618 1660.6 455.375C1662.84 429.709 1663.23 425.102 1662.84 425.102C1662.71 425.102 1653.89 430.367 1643.36 436.816Z" fill="white"/>
<path d="M23.911 431.946C24.3059 434.315 24.964 441.949 25.3589 448.794C31.4134 541.586 61.1594 599.235 115.913 624.506C124.074 628.323 146.449 635.694 149.608 635.694C150.792 635.694 154.478 620.163 156.452 606.737C158.426 593.839 157.11 569.226 153.951 557.38C143.29 518.552 116.44 486.568 66.161 452.742C53.3939 444.187 26.017 427.734 24.4375 427.734C23.7794 427.734 23.5162 429.709 23.911 431.946Z" fill="white"/>
<path d="M1401.71 506.18C1388.15 569.489 1387.1 617.398 1398.41 651.488C1409.47 685.314 1429.87 708.742 1465.15 728.091C1470.15 730.855 1474.36 732.96 1474.62 732.829C1474.75 732.566 1477.25 727.696 1480.15 721.904C1491.21 699.792 1495.68 678.338 1494.5 655.042C1492 610.423 1467.51 565.804 1416.45 513.419L1403.02 499.599L1401.71 506.18Z" fill="white"/>
<path d="M267.802 517.499C244.111 542.902 231.475 558.565 219.498 577.781C188.041 627.928 183.565 675.311 205.678 721.905C212.127 735.593 211.601 735.067 218.313 731.776C229.896 725.853 245.822 714.665 255.43 705.584C276.884 685.183 289.914 658.859 294.521 627.007C296.627 612.265 296.232 577.386 293.731 558.038C291.625 541.849 284.65 502.89 283.597 501.837C283.202 501.573 276.226 508.549 267.802 517.499Z" fill="white"/>
<path d="M1661.39 621.874C1595.58 632.403 1555.96 648.461 1528.32 675.838C1513.84 690.052 1502.79 708.742 1496.21 730.065C1493.44 738.883 1489.23 762.048 1490.15 762.97C1491.47 764.286 1508.84 765.997 1521.22 765.997C1576.1 765.997 1620.85 734.277 1660.6 667.151C1668.23 654.252 1685.74 620.952 1685.74 619.373C1685.74 618.188 1681.27 618.583 1661.39 621.874Z" fill="white"/>
<path d="M1.00926 620.821C1.00926 621.216 5.87919 631.219 11.9337 642.801C32.0715 681.761 46.418 702.425 68.0037 724.011C89.1944 745.07 108.543 757.047 132.761 763.628C142.369 766.26 146.844 766.655 166.85 766.655C179.486 766.655 191.463 766.26 193.569 765.602C196.991 764.681 197.123 764.286 196.333 759.021C188.567 705.189 163.691 671.231 115.124 648.198C91.1687 636.878 64.0551 629.508 23.253 623.19C-0.965037 619.373 1.00926 619.636 1.00926 620.821Z" fill="white"/>
<path d="M1362.22 687.684C1348.66 732.434 1344.05 760.469 1345.24 790.873C1346.69 828.122 1357.74 854.446 1382.49 879.322C1393.54 890.509 1412.5 904.856 1414.47 903.54C1416.97 902.092 1429.08 881.428 1433.03 871.688C1445.53 841.81 1446.46 812.591 1436.32 777.185C1431.85 761.786 1416.18 729.802 1404.07 711.375C1394.07 696.371 1371.04 664.782 1369.85 664.65C1369.46 664.65 1366.04 675.048 1362.22 687.684Z" fill="white"/>
<path d="M302.681 684.656C245.558 760.732 230.554 819.435 254.245 874.189C258.984 884.982 265.301 896.301 270.303 902.487L273.199 906.172L280.174 901.302C310.315 880.507 328.874 855.236 337.561 823.252C340.983 811.011 341.246 808.247 341.246 784.424C341.246 757.442 340.062 748.097 333.349 720.588C328.742 701.898 317.949 667.282 316.765 667.282C316.238 667.282 309.789 675.18 302.681 684.656Z" fill="white"/>
<path d="M1291.93 777.843C1260.61 835.756 1248.5 872.477 1248.63 909.594C1248.76 947.632 1263.11 979.221 1293.12 1007.26L1297.07 1010.81L1305.36 1002.39C1336.16 970.929 1348.53 930.653 1341.42 883.402C1337.34 855.762 1327.21 826.279 1308.91 789.031L1297.99 766.787L1291.93 777.843Z" fill="white"/>
<path d="M377.836 790.61C364.674 817.724 357.435 835.624 351.776 855.762C337.166 906.172 341.904 949.738 365.727 985.012C372.966 995.542 387.708 1012.13 389.945 1012.13C392.841 1012.13 412.452 989.093 419.691 977.378C441.935 941.183 444.173 900.249 426.667 848.654C421.666 833.518 395.605 778.106 390.077 770.604C388.761 768.761 387.05 771.525 377.836 790.61Z" fill="white"/>
<path d="M1608.87 771.394C1552.94 776 1513.06 789.952 1487.39 813.907C1467.52 832.465 1456.72 850.629 1448.17 879.585L1445.14 889.851L1448.56 891.167C1459.09 895.116 1472.65 896.959 1492.26 896.959C1509.5 896.827 1514.37 896.432 1523.85 893.8C1567.28 881.691 1604.79 849.181 1645.99 787.451C1651.91 778.633 1656.78 771.13 1656.78 770.735C1656.78 769.682 1624.41 770.077 1608.87 771.394Z" fill="white"/>
<path d="M29.9656 772.052C29.9656 774.158 54.9733 810.353 65.8977 823.91C79.5862 840.889 102.356 863.264 115.518 872.477C128.68 881.691 145.791 890.246 159.874 894.59C170.535 897.748 173.431 898.143 194.49 898.143C214.365 898.275 219.103 897.88 229.633 895.248L241.61 892.22L239.109 882.744C221.077 817.592 175.932 784.161 92.8798 774.684C72.6103 772.315 29.9656 770.472 29.9656 772.052Z" fill="white"/>
<path d="M1193.88 885.771C1160.31 918.939 1141.36 943.947 1130.31 969.613C1116.75 1001.2 1115.17 1030.16 1125.3 1062.14C1128.46 1072.14 1136.75 1091.1 1138.99 1093.6C1139.26 1093.86 1143.73 1091.89 1149 1089.12C1187.96 1069.38 1212.44 1036.08 1221.65 990.277C1226.91 964.216 1226.65 923.151 1221.12 884.718C1219.68 874.847 1218.49 865.896 1218.49 864.975C1218.49 864.185 1217.96 863.396 1217.44 863.396C1216.91 863.396 1206.25 873.399 1193.88 885.771Z" fill="white"/>
<path d="M467.206 874.978C461.546 912.358 459.835 954.345 462.862 978.168C466.153 1003.18 474.445 1027.26 485.896 1045.16C493.661 1057.14 510.509 1073.99 522.881 1082.02C532.358 1088.2 544.993 1095.05 546.967 1095.05C549.995 1095.05 562.104 1065.04 565.789 1048.32C568.685 1035.29 568.027 1008.31 564.473 995.015C558.155 971.324 547.626 950.791 529.989 927.889C520.38 915.385 486.159 879.453 474.708 869.845L468.654 864.844L467.206 874.978Z" fill="white"/>
<path d="M1446.98 915.386C1405.52 922.098 1374.72 941.578 1353.27 974.614C1346.03 985.802 1339.58 997.911 1339.58 1000.28C1339.58 1002.65 1361.17 1012.13 1374.46 1015.42C1420.92 1027.26 1466.2 1013.97 1516.61 973.956C1522.4 969.349 1536.88 955.924 1548.72 944.21L1570.44 923.019L1561.23 921.44C1528.98 915.78 1516.74 914.464 1488.31 914.069C1466.59 913.675 1455.54 913.938 1446.98 915.386Z" fill="white"/>
<path d="M172.115 916.175C160.137 917.492 117.756 923.941 117.098 924.599C116.308 925.389 151.845 960.136 162.901 969.481C190.015 992.383 220.946 1009.89 245.822 1016.73C268.46 1022.92 294.784 1022.52 316.765 1015.81C331.243 1011.47 347.169 1004.1 347.169 1001.86C347.169 998.569 335.586 978.431 327.294 967.507C305.051 937.893 274.12 921.177 232.66 916.044C219.629 914.464 188.172 914.596 172.115 916.175Z" fill="white"/>
<path d="M1100.69 984.749C1098.59 985.275 1087.27 987.908 1075.68 990.54C987.367 1010.55 940.247 1045.82 924.979 1103.6C922.083 1114.66 918.661 1140.45 919.978 1141.77C921.689 1143.48 956.305 1142.43 966.966 1140.45C1014.74 1131.24 1052.39 1096.76 1084.63 1032.4C1091.61 1018.44 1105.56 985.802 1105.03 984.486C1104.77 984.091 1102.93 984.091 1100.69 984.749Z" fill="white"/>
<path d="M581.452 986.197C581.452 988.039 592.639 1013.84 600.405 1029.89C615.541 1061.22 629.888 1083.07 647.13 1100.71C668.847 1123.21 690.696 1135.72 718.863 1142.03C728.602 1144.14 764.666 1145.19 766.509 1143.35C768.088 1141.9 764.929 1117.03 761.771 1104.92C760.191 1099.13 756.374 1088.86 753.084 1082.02C731.761 1036.74 688.853 1010.02 607.381 991.198C584.874 986.065 581.452 985.275 581.452 986.197Z" fill="white"/>
<path d="M1307.33 1028.05C1277.19 1031.08 1250.61 1043.58 1228.76 1065.3C1219.54 1074.38 1207.96 1088.6 1207.96 1090.83C1207.96 1092.81 1226.39 1105.05 1237.84 1110.84C1255.08 1119.4 1269.03 1122.95 1289.57 1123.61C1322.73 1124.79 1353.01 1116.5 1391.57 1095.31C1404.47 1088.33 1448.83 1059.51 1448.83 1058.19C1448.83 1057.01 1402.36 1041.08 1385.52 1036.61C1357.61 1029.1 1328.92 1025.95 1307.33 1028.05Z" fill="white"/>
<path d="M341.904 1030.03C340.061 1030.29 334.533 1031.21 329.4 1032C309.921 1035.03 274.515 1045.43 241.347 1058.19L237.53 1059.64L245.953 1065.7C262.932 1078.2 289.125 1094.13 307.025 1102.94C340.983 1119.66 363.49 1125.58 391.92 1125.58C412.584 1125.45 427.983 1122.29 445.225 1114.26C455.229 1109.66 476.551 1096.23 478.262 1093.6C479.446 1091.49 472.866 1082.54 460.757 1069.91C442.461 1050.95 423.245 1039.37 399.817 1033.18C390.867 1030.82 384.286 1030.16 366.912 1029.89C354.934 1029.63 343.747 1029.63 341.904 1030.03Z" fill="white"/>
<path d="M1127.54 1111.5C1116.22 1113.6 1101.48 1118.74 1090.69 1124.13C1082.79 1128.08 1067 1138.48 1062.26 1142.82L1059.36 1145.46L1065.02 1152.83C1079.24 1171.25 1100.95 1188.23 1120.43 1196.26C1150.84 1208.9 1189.8 1210.08 1236.26 1199.68C1253.24 1195.87 1300.09 1181.13 1300.09 1179.55C1300.09 1178.49 1266.66 1154.54 1255.34 1147.43C1229.68 1131.11 1204.67 1119.79 1182.82 1114.26C1165.45 1109.79 1142.15 1108.73 1127.54 1111.5Z" fill="white"/>
<path d="M521.96 1112.16C487.212 1116.5 446.937 1135.98 399.29 1171.39L386.129 1181.13L390.077 1182.84C397.974 1186.26 426.536 1195.21 441.54 1199.03C466.022 1205.21 479.183 1207.19 501.296 1207.84C539.597 1209.16 567.5 1201.53 593.166 1182.57C602.511 1175.6 617.121 1161.12 623.438 1152.3L627.65 1146.51L619.358 1140.32C588.822 1117.82 554.733 1107.95 521.96 1112.16Z" fill="white"/>
<path d="M835.872 1142.43C815.735 1147.17 804.942 1169.28 813.629 1187.84C825.474 1213.37 861.407 1212.98 872.726 1187.18C880.491 1169.67 870.883 1148.62 852.456 1143.22C844.954 1140.98 842.453 1140.85 835.872 1142.43Z" fill="white"/>
<path d="M966.439 1167.04C945.512 1169.67 923.531 1177.83 904.183 1190.08L897.207 1194.55L904.052 1205.08C917.214 1224.95 940.247 1245.09 959.727 1253.65C999.607 1271.29 1049.36 1271.42 1118.85 1253.91L1135.7 1249.7L1119.51 1235.75C1087.66 1208.37 1068.97 1195.34 1044.09 1183.1C1016.59 1169.67 989.736 1164.15 966.439 1167.04Z" fill="white"/>
<path d="M692.67 1168.89C651.21 1174.54 609.75 1198.5 552.759 1249.83C551.311 1251.02 554.865 1252.33 570.527 1256.02C611.33 1265.89 627.914 1268.13 658.449 1267.99C691.354 1267.99 711.755 1263.52 734.131 1251.54C752.557 1241.67 769.8 1225.61 782.698 1206.4L789.543 1196.39L781.251 1191C753.874 1173.36 720.705 1165.07 692.67 1168.89Z" fill="white"/>
</svg>
