<svg width="1686" height="1477" viewBox="0 0 1686 1477" fill="none" xmlns="http://www.w3.org/2000/svg">
<path d="M201.21 1357.4C203.039 1357.66 205.652 1357.79 209.05 1357.79H291.174C295.355 1357.79 297.968 1357.66 299.014 1357.4V1387.98H293.918C293.918 1379.48 292.023 1373.28 288.234 1369.36C284.575 1365.31 278.434 1363.28 269.81 1363.28H261.578C260.271 1363.28 259.487 1364 259.226 1365.44V1465.4C259.226 1468.27 260.532 1469.71 263.146 1469.71L273.534 1469.32V1475H226.69V1469.32L237.274 1469.71C238.45 1469.71 239.364 1469.25 240.018 1468.34C240.671 1467.29 240.998 1466.11 240.998 1464.81V1365.63C240.998 1364.06 240.214 1363.28 238.646 1363.28H230.61C221.986 1363.28 215.779 1365.31 211.99 1369.36C208.2 1373.28 206.306 1379.48 206.306 1387.98H201.21V1357.4ZM400.992 1469.9V1475H362.772V1469.9L371.788 1470.3C373.486 1469.9 374.336 1468.66 374.336 1466.57V1422.08C374.336 1415.81 374.009 1410.97 373.356 1407.58C372.833 1404.18 371.657 1401.57 369.828 1399.74C367.998 1397.91 365.124 1396.99 361.204 1396.99C353.756 1396.99 347.68 1400.19 342.976 1406.6C338.402 1412.87 335.92 1421.36 335.528 1432.08V1466.57C335.528 1469.05 336.377 1470.3 338.076 1470.3L347.092 1469.9V1475H308.872V1469.9L316.124 1470.3C317.822 1469.9 318.672 1468.66 318.672 1466.57V1340.54C318.672 1337.8 317.822 1336.43 316.124 1336.43L308.872 1336.82V1331.92H335.528V1410.32C338.272 1404.18 342.192 1399.41 347.288 1396.01C352.384 1392.48 358.264 1390.72 364.928 1390.72C374.205 1390.72 380.869 1392.94 384.92 1397.38C389.101 1401.7 391.192 1408.75 391.192 1418.55V1466.57C391.192 1469.05 392.041 1470.3 393.74 1470.3L400.992 1469.9ZM461.24 1390.72C466.336 1390.72 470.256 1392.16 473 1395.03C475.875 1397.91 477.312 1401.57 477.312 1406.01C477.312 1409.01 476.528 1411.3 474.96 1412.87C473.523 1414.44 471.563 1415.22 469.08 1415.22C467.251 1415.22 465.552 1414.76 463.984 1413.85C462.547 1412.8 461.828 1411.23 461.828 1409.14C461.828 1407.97 462.09 1406.47 462.612 1404.64C463.135 1402.81 463.396 1401.37 463.396 1400.32C463.396 1399.28 463.004 1398.36 462.22 1397.58C461.567 1396.67 460.456 1396.21 458.888 1396.21C454.838 1396.21 451.31 1398.17 448.304 1402.09C445.299 1405.88 442.947 1410.65 441.248 1416.4C439.55 1422.01 438.57 1427.44 438.308 1432.66V1466.57C438.308 1469.05 439.158 1470.3 440.856 1470.3L452.812 1469.9V1475H412.632V1469.9L418.904 1470.3C420.603 1470.3 421.452 1469.05 421.452 1466.57V1401.3C421.452 1398.69 420.603 1397.38 418.904 1397.38L411.848 1397.78V1392.68H439.484C439.223 1393.46 438.962 1394.77 438.7 1396.6C438.439 1398.3 438.308 1400 438.308 1401.7V1411.3C441.314 1403.98 444.646 1398.76 448.304 1395.62C452.094 1392.35 456.406 1390.72 461.24 1390.72ZM524.553 1390.72C534.876 1390.72 543.173 1394.05 549.445 1400.72C555.848 1407.25 559.18 1416.27 559.441 1427.76V1433.45H502.993C502.993 1445.34 505.018 1454.49 509.069 1460.89C513.25 1467.16 519.457 1470.36 527.689 1470.49C534.222 1470.49 539.71 1468.86 544.153 1465.59C548.726 1462.33 552.058 1458.27 554.149 1453.44L558.657 1456.77C556.044 1463.04 551.601 1468.01 545.329 1471.67C539.188 1475.2 532.393 1476.96 524.945 1476.96C498.42 1476.96 485.157 1462.65 485.157 1434.04C485.157 1419.79 488.489 1409.01 495.153 1401.7C501.817 1394.38 511.617 1390.72 524.553 1390.72ZM524.553 1396.01C517.236 1396.01 511.813 1399.02 508.285 1405.03C504.888 1411.04 503.189 1418.88 503.189 1428.55H538.861C540.168 1428.55 541.148 1428.09 541.801 1427.18C542.454 1426.26 542.781 1424.56 542.781 1422.08C542.781 1413.19 541.344 1406.66 538.469 1402.48C535.725 1398.17 531.086 1396.01 524.553 1396.01ZM612.6 1390.72C622.922 1390.72 631.22 1394.05 637.492 1400.72C643.894 1407.25 647.226 1416.27 647.488 1427.76V1433.45H591.04C591.04 1445.34 593.065 1454.49 597.116 1460.89C601.297 1467.16 607.504 1470.36 615.736 1470.49C622.269 1470.49 627.757 1468.86 632.2 1465.59C636.773 1462.33 640.105 1458.27 642.196 1453.44L646.704 1456.77C644.09 1463.04 639.648 1468.01 633.376 1471.67C627.234 1475.2 620.44 1476.96 612.992 1476.96C586.466 1476.96 573.204 1462.65 573.204 1434.04C573.204 1419.79 576.536 1409.01 583.2 1401.7C589.864 1394.38 599.664 1390.72 612.6 1390.72ZM612.6 1396.01C605.282 1396.01 599.86 1399.02 596.332 1405.03C592.934 1411.04 591.236 1418.88 591.236 1428.55H626.908C628.214 1428.55 629.194 1428.09 629.848 1427.18C630.501 1426.26 630.828 1424.56 630.828 1422.08C630.828 1413.19 629.39 1406.66 626.516 1402.48C623.772 1398.17 619.133 1396.01 612.6 1396.01ZM718.483 1357.99C729.589 1357.99 738.017 1360.34 743.767 1365.04C749.516 1369.75 752.391 1376.74 752.391 1386.02C752.391 1392.94 749.908 1398.82 744.943 1403.66C740.108 1408.36 733.575 1411.43 725.343 1412.87C731.484 1412.87 737.103 1414.17 742.199 1416.79C747.295 1419.4 751.345 1423.06 754.351 1427.76C757.356 1432.34 758.859 1437.5 758.859 1443.25C758.859 1464.42 744.42 1475 715.543 1475H664.191V1469.32L673.991 1469.71C676.343 1469.71 677.519 1468.27 677.519 1465.4V1367.4C677.519 1366.48 677.192 1365.63 676.539 1364.85C676.016 1363.93 675.232 1363.48 674.187 1363.48L664.191 1363.87V1357.99H718.483ZM698.099 1363.48C696.792 1363.48 696.008 1364.26 695.747 1365.83V1410.91H710.643C726.061 1410.91 733.771 1402.68 733.771 1386.21C733.771 1379.16 731.615 1373.6 727.303 1369.55C723.121 1365.5 717.176 1363.48 709.467 1363.48H698.099ZM695.747 1416.4V1466.96C695.747 1468.66 696.661 1469.51 698.491 1469.51H712.211C720.573 1469.51 727.237 1467.16 732.203 1462.46C737.299 1457.75 739.847 1451.35 739.847 1443.25C739.847 1425.35 731.876 1416.4 715.935 1416.4H695.747ZM813.002 1390.72C823.325 1390.72 831.622 1394.05 837.894 1400.72C844.297 1407.25 847.629 1416.27 847.89 1427.76V1433.45H791.442C791.442 1445.34 793.467 1454.49 797.518 1460.89C801.699 1467.16 807.906 1470.36 816.138 1470.49C822.671 1470.49 828.159 1468.86 832.602 1465.59C837.175 1462.33 840.507 1458.27 842.598 1453.44L847.106 1456.77C844.493 1463.04 840.05 1468.01 833.778 1471.67C827.637 1475.2 820.842 1476.96 813.394 1476.96C786.869 1476.96 773.606 1462.65 773.606 1434.04C773.606 1419.79 776.938 1409.01 783.602 1401.7C790.266 1394.38 800.066 1390.72 813.002 1390.72ZM813.002 1396.01C805.685 1396.01 800.262 1399.02 796.734 1405.03C793.337 1411.04 791.638 1418.88 791.638 1428.55H827.31C828.617 1428.55 829.597 1428.09 830.25 1427.18C830.903 1426.26 831.23 1424.56 831.23 1422.08C831.23 1413.19 829.793 1406.66 826.918 1402.48C824.174 1398.17 819.535 1396.01 813.002 1396.01ZM864.397 1447.17L869.493 1446.78C869.493 1451.61 870.8 1455.92 873.413 1459.71C876.026 1463.5 879.489 1466.44 883.801 1468.53C888.113 1470.62 892.817 1471.67 897.913 1471.67C903.14 1471.67 907.19 1470.36 910.065 1467.75C912.94 1465 914.377 1461.35 914.377 1456.77C914.377 1453.11 913.332 1450.11 911.241 1447.76C909.15 1445.4 905.622 1443.51 900.657 1442.07L881.841 1436.78C876.614 1435.21 872.498 1432.6 869.493 1428.94C866.488 1425.15 864.985 1420.51 864.985 1415.02C864.985 1407.84 867.664 1402.02 873.021 1397.58C878.378 1393.01 885.696 1390.72 894.973 1390.72C897.586 1390.72 899.873 1390.92 901.833 1391.31C903.924 1391.7 906.472 1392.35 909.477 1393.27C913.528 1394.44 916.533 1395.03 918.493 1395.03C920.453 1395.03 922.282 1394.51 923.981 1393.46L922.805 1415.81H918.493C918.493 1410.58 916.402 1406.01 912.221 1402.09C908.17 1398.04 902.617 1396.01 895.561 1396.01C890.596 1396.01 886.676 1397.32 883.801 1399.93C881.057 1402.55 879.685 1405.88 879.685 1409.93C879.685 1416.33 883.736 1420.64 891.837 1422.86L910.653 1428.16C917.317 1429.99 922.021 1432.73 924.765 1436.39C927.509 1439.92 928.881 1444.55 928.881 1450.3C928.881 1458.8 925.876 1465.4 919.865 1470.1C913.854 1474.67 906.014 1476.96 896.345 1476.96C893.601 1476.96 890.726 1476.63 887.721 1475.98C884.846 1475.46 880.404 1474.35 874.393 1472.65C872.433 1472.13 870.669 1471.86 869.101 1471.86C866.488 1471.86 864.593 1472.26 863.417 1473.04L864.397 1447.17ZM968.891 1392.68H990.451V1397.58H968.891V1457.75C968.891 1462.72 969.479 1466.11 970.655 1467.94C971.831 1469.64 973.922 1470.49 976.927 1470.49C978.887 1470.49 980.912 1469.77 983.003 1468.34C985.094 1466.77 986.466 1464.87 987.119 1462.65L991.235 1465.2C988.622 1472.52 981.696 1476.18 970.459 1476.18C963.795 1476.18 959.026 1474.61 956.151 1471.47C953.407 1468.34 952.035 1463.24 952.035 1456.18V1397.58H940.275V1392.68C945.502 1392.68 949.487 1392.22 952.231 1391.31C954.975 1390.26 957.131 1388.37 958.699 1385.62C960.398 1382.88 961.966 1378.57 963.403 1372.69H968.891V1392.68ZM1049.68 1469.32L1057.33 1469.71C1059.81 1469.71 1061.05 1468.27 1061.05 1465.4V1367.59C1061.05 1366.42 1060.66 1365.44 1059.87 1364.65C1059.22 1363.74 1058.18 1363.35 1056.74 1363.48L1049.68 1363.87V1357.99H1093.78C1108.29 1357.99 1118.81 1360.47 1125.34 1365.44C1131.87 1370.27 1135.14 1378.18 1135.14 1389.15C1135.14 1395.82 1132.92 1401.63 1128.47 1406.6C1124.16 1411.43 1118.41 1414.83 1111.23 1416.79C1115.28 1416.79 1119.33 1418.16 1123.38 1420.9C1127.56 1423.65 1131.02 1427.63 1133.77 1432.86C1136.51 1438.09 1137.88 1444.16 1137.88 1451.09C1137.88 1455.01 1138.34 1458.99 1139.25 1463.04C1140.3 1467.09 1141.74 1469.25 1143.57 1469.51C1144.35 1469.77 1145.27 1469.9 1146.31 1469.9C1147.88 1469.9 1149.12 1469.64 1150.03 1469.12V1475H1123.38C1121.81 1471.73 1120.9 1467.42 1120.63 1462.06C1120.37 1458.67 1120.24 1456.18 1120.24 1454.62V1448.15C1120.24 1438.35 1117.04 1431.03 1110.64 1426.2C1104.37 1421.36 1096.66 1418.94 1087.51 1418.94H1079.28V1465.4C1079.28 1468.27 1080.59 1469.71 1083.2 1469.71L1092.8 1469.32V1475H1049.68V1469.32ZM1097.51 1413.65C1103.52 1413.65 1108.22 1411.5 1111.62 1407.18C1115.02 1402.87 1116.71 1396.86 1116.71 1389.15C1116.71 1380.14 1114.82 1373.6 1111.03 1369.55C1107.37 1365.5 1101.62 1363.48 1093.78 1363.48H1081.63C1080.06 1363.48 1079.28 1364.13 1079.28 1365.44V1413.65H1097.51ZM1238.05 1469.9V1475H1210.22C1210.35 1474.09 1210.48 1472.91 1210.61 1471.47C1210.87 1469.9 1211 1468.66 1211 1467.75L1211.39 1460.1C1208.52 1465.72 1204.79 1469.77 1200.22 1472.26C1195.78 1474.74 1190.42 1475.98 1184.15 1475.98C1175.92 1475.98 1169.65 1474.15 1165.33 1470.49C1161.15 1466.7 1159.06 1461.15 1159.06 1453.83C1159.06 1443.77 1163.24 1436.39 1171.61 1431.68C1180.1 1426.85 1193.36 1424.43 1211.39 1424.43V1413.06C1211.39 1406.92 1209.96 1402.55 1207.08 1399.93C1204.21 1397.32 1199.57 1396.01 1193.17 1396.01C1183.23 1396.01 1178.27 1398.76 1178.27 1404.24C1178.27 1405.29 1178.53 1406.53 1179.05 1407.97C1179.71 1409.27 1180.03 1410.52 1180.03 1411.69C1180.03 1413.91 1179.31 1415.61 1177.88 1416.79C1176.44 1417.83 1174.61 1418.36 1172.39 1418.36C1169.65 1418.36 1167.49 1417.51 1165.92 1415.81C1164.48 1414.11 1163.77 1411.89 1163.77 1409.14C1163.77 1403.66 1166.64 1399.21 1172.39 1395.82C1178.14 1392.42 1185.85 1390.72 1195.52 1390.72C1217.34 1390.72 1228.25 1399.93 1228.25 1418.36V1466.57C1228.25 1469.05 1229.1 1470.3 1230.8 1470.3L1238.05 1469.9ZM1190.03 1468.92C1195.78 1468.92 1200.68 1466.57 1204.73 1461.87C1208.78 1457.03 1211 1450.83 1211.39 1443.25V1429.72C1199.11 1429.72 1190.29 1431.55 1184.93 1435.21C1179.58 1438.74 1176.9 1444.42 1176.9 1452.26C1176.9 1457.75 1178.01 1461.93 1180.23 1464.81C1182.58 1467.55 1185.85 1468.92 1190.03 1468.92ZM1275.52 1392.68H1297.08V1397.58H1275.52V1457.75C1275.52 1462.72 1276.11 1466.11 1277.29 1467.94C1278.46 1469.64 1280.55 1470.49 1283.56 1470.49C1285.52 1470.49 1287.55 1469.77 1289.64 1468.34C1291.73 1466.77 1293.1 1464.87 1293.75 1462.65L1297.87 1465.2C1295.25 1472.52 1288.33 1476.18 1277.09 1476.18C1270.43 1476.18 1265.66 1474.61 1262.78 1471.47C1260.04 1468.34 1258.67 1463.24 1258.67 1456.18V1397.58H1246.91V1392.68C1252.13 1392.68 1256.12 1392.22 1258.86 1391.31C1261.61 1390.26 1263.76 1388.37 1265.33 1385.62C1267.03 1382.88 1268.6 1378.57 1270.04 1372.69H1275.52V1392.68ZM1349.71 1390.72C1360.03 1390.72 1368.33 1394.05 1374.6 1400.72C1381 1407.25 1384.33 1416.27 1384.59 1427.76V1433.45H1328.15C1328.15 1445.34 1330.17 1454.49 1334.22 1460.89C1338.4 1467.16 1344.61 1470.36 1352.84 1470.49C1359.37 1470.49 1364.86 1468.86 1369.31 1465.59C1373.88 1462.33 1377.21 1458.27 1379.3 1453.44L1383.81 1456.77C1381.2 1463.04 1376.75 1468.01 1370.48 1471.67C1364.34 1475.2 1357.55 1476.96 1350.1 1476.96C1323.57 1476.96 1310.31 1462.65 1310.31 1434.04C1310.31 1419.79 1313.64 1409.01 1320.31 1401.7C1326.97 1394.38 1336.77 1390.72 1349.71 1390.72ZM1349.71 1396.01C1342.39 1396.01 1336.97 1399.02 1333.44 1405.03C1330.04 1411.04 1328.34 1418.88 1328.34 1428.55H1364.01C1365.32 1428.55 1366.3 1428.09 1366.95 1427.18C1367.61 1426.26 1367.93 1424.56 1367.93 1422.08C1367.93 1413.19 1366.5 1406.66 1363.62 1402.48C1360.88 1398.17 1356.24 1396.01 1349.71 1396.01ZM1398.36 1434.04C1398.36 1419.79 1401.43 1409.01 1407.57 1401.7C1413.84 1394.38 1423.12 1390.72 1435.4 1390.72C1441.41 1390.72 1446.31 1392.22 1450.1 1395.23C1454.02 1398.23 1456.63 1402.09 1457.94 1406.79V1340.35C1457.94 1337.73 1457.09 1336.43 1455.39 1336.43L1446.38 1336.82V1331.92H1474.99V1466.57C1474.99 1469.05 1475.84 1470.3 1477.54 1470.3L1484.79 1469.9V1475H1456.57C1456.83 1473.95 1456.96 1472.91 1456.96 1471.86V1467.55C1456.96 1465.85 1457.03 1464.55 1457.16 1463.63C1457.29 1462.72 1457.35 1462.13 1457.35 1461.87C1455.78 1466.7 1453.24 1470.43 1449.71 1473.04C1446.31 1475.65 1441.61 1476.96 1435.6 1476.96C1422.27 1476.96 1412.73 1473.5 1406.98 1466.57C1401.23 1459.52 1398.36 1448.67 1398.36 1434.04ZM1416.39 1434.04C1416.39 1443.57 1416.91 1451.02 1417.96 1456.38C1419.13 1461.74 1421.09 1465.66 1423.84 1468.14C1426.58 1470.49 1430.5 1471.67 1435.6 1471.67C1443.57 1471.67 1449.19 1469.05 1452.45 1463.83C1455.85 1458.6 1457.55 1450.3 1457.55 1438.94V1430.7C1457.55 1419.73 1455.72 1411.23 1452.06 1405.22C1448.4 1399.08 1442.85 1396.01 1435.4 1396.01C1428.34 1396.01 1423.38 1399.28 1420.5 1405.81C1417.76 1412.35 1416.39 1421.75 1416.39 1434.04Z" fill="white"/>
<path d="M628.048 222.6C629.579 222.819 631.765 222.928 634.608 222.928H703.324C706.823 222.928 709.009 222.819 709.884 222.6V248.184H705.62C705.62 241.077 704.035 235.884 700.864 232.604C697.803 229.215 692.664 227.52 685.448 227.52H678.56C677.467 227.52 676.811 228.121 676.592 229.324V312.964C676.592 315.369 677.685 316.572 679.872 316.572L688.564 316.244V321H649.368V316.244L658.224 316.572C659.208 316.572 659.973 316.189 660.52 315.424C661.067 314.549 661.34 313.565 661.34 312.472V229.488C661.34 228.176 660.684 227.52 659.372 227.52H652.648C645.432 227.52 640.239 229.215 637.068 232.604C633.897 235.884 632.312 241.077 632.312 248.184H628.048V222.6ZM718.331 271.964C718.331 255.673 722.486 243.209 730.795 234.572C739.214 225.825 750.913 221.452 765.891 221.452C781.089 221.452 792.787 225.88 800.987 234.736C809.297 243.592 813.451 256.001 813.451 271.964C813.451 288.036 809.242 300.5 800.823 309.356C792.514 318.212 780.87 322.64 765.891 322.64C750.913 322.64 739.214 318.212 730.795 309.356C722.486 300.5 718.331 288.036 718.331 271.964ZM735.059 271.964C735.059 288.364 737.519 300.172 742.439 307.388C747.469 314.604 755.286 318.212 765.891 318.212C776.497 318.212 784.259 314.604 789.179 307.388C794.209 300.172 796.723 288.364 796.723 271.964C796.723 255.673 794.209 243.92 789.179 236.704C784.259 229.488 776.497 225.88 765.891 225.88C755.286 225.88 747.469 229.488 742.439 236.704C737.519 243.92 735.059 255.673 735.059 271.964ZM829.018 316.244L835.414 316.572C837.492 316.572 838.53 315.369 838.53 312.964V231.292C838.53 229.98 838.257 229.051 837.71 228.504C837.164 227.848 836.18 227.575 834.758 227.684L829.018 228.012V223.092H867.558C878.929 223.092 887.293 225.279 892.65 229.652C898.117 233.916 900.85 240.531 900.85 249.496C900.85 258.133 898.172 265.021 892.814 270.16C887.457 275.299 880.186 277.868 871.002 277.868H853.782V312.964C853.782 315.369 854.876 316.572 857.062 316.572L865.098 316.244V321H829.018V316.244ZM867.558 273.276C872.588 273.276 876.742 271.035 880.022 266.552C883.412 262.069 885.106 256.384 885.106 249.496C885.106 242.936 883.248 237.688 879.53 233.752C875.922 229.707 871.057 227.684 864.934 227.684H855.75C855.313 227.684 854.876 227.903 854.438 228.34C854.001 228.668 853.782 229.105 853.782 229.652V273.276H867.558ZM978.449 268.848C1005.13 269.504 1018.47 278.032 1018.47 294.432C1018.47 300.445 1016.77 305.584 1013.38 309.848C1009.99 314.112 1005.45 317.337 999.769 319.524C994.084 321.601 987.797 322.64 980.909 322.64C974.568 322.64 968.937 321.711 964.017 319.852C959.097 317.993 955.271 315.533 952.537 312.472C949.804 309.301 948.437 305.857 948.437 302.14C948.437 299.625 949.093 297.657 950.405 296.236C951.827 294.705 953.849 293.94 956.473 293.94C958.879 293.94 960.737 294.541 962.049 295.744C963.471 296.947 964.181 298.477 964.181 300.336C964.181 301.648 963.908 302.96 963.361 304.272C963.252 304.6 963.088 305.147 962.869 305.912C962.651 306.677 962.541 307.497 962.541 308.372C962.541 311.433 964.181 313.839 967.461 315.588C970.741 317.337 974.787 318.212 979.597 318.212C987.469 318.212 993.483 315.971 997.637 311.488C1001.79 306.896 1003.87 301.375 1003.87 294.924C1003.87 287.817 1001.08 282.351 995.505 278.524C989.929 274.588 981.073 272.401 968.937 271.964V267.372C976.919 266.279 983.697 263.381 989.273 258.68C994.849 253.979 997.637 248.184 997.637 241.296C997.637 236.595 996.216 232.877 993.373 230.144C990.64 227.301 986.431 225.88 980.745 225.88C976.263 225.88 972.436 226.809 969.265 228.668C966.204 230.527 964.673 232.932 964.673 235.884C964.673 236.649 964.783 237.415 965.001 238.18C965.22 238.945 965.384 239.437 965.493 239.656C966.149 241.405 966.477 242.772 966.477 243.756C966.477 245.833 965.657 247.419 964.017 248.512C962.487 249.605 960.683 250.152 958.605 250.152C955.872 250.152 953.849 249.387 952.537 247.856C951.225 246.216 950.569 244.139 950.569 241.624C950.569 237.797 952.045 234.353 954.997 231.292C958.059 228.121 962.049 225.716 966.969 224.076C971.889 222.327 977.192 221.452 982.877 221.452C991.077 221.452 998.02 223.201 1003.71 226.7C1009.39 230.089 1012.23 235.009 1012.23 241.46C1012.23 248.457 1008.95 254.416 1002.39 259.336C995.833 264.147 987.852 267.208 978.449 268.52V268.848ZM591.507 505.244L597.903 505.572C599.98 505.572 601.019 504.369 601.019 501.964V420.128C601.019 419.144 600.745 418.324 600.199 417.668C599.652 416.903 598.887 416.575 597.903 416.684L591.507 417.012V412.092H625.947V417.012L619.551 416.684H619.223C618.348 416.684 617.637 417.012 617.091 417.668C616.544 418.324 616.271 419.144 616.271 420.128V501.964C616.271 504.369 617.364 505.572 619.551 505.572L625.947 505.244V510H591.507V505.244ZM735.264 412.092V417.012L728.868 416.684H728.54C726.682 416.684 725.752 417.832 725.752 420.128V510.984H720.832L656.708 423.9V501.964C656.708 504.369 657.747 505.572 659.824 505.572L667.86 505.244V510H641.456V505.244L647.852 505.572C650.039 505.572 651.132 504.369 651.132 501.964V420.128C651.132 419.144 650.804 418.324 650.148 417.668C649.602 416.903 648.836 416.575 647.852 416.684L641.456 417.012V412.092H666.876L720.176 484.58V419.964C720.176 417.777 719.247 416.684 717.388 416.684H716.896L708.86 417.012V412.092H735.264ZM750.862 505.244L757.914 505.572C759.554 505.572 760.374 504.369 760.374 501.964V420.128C760.374 419.144 760.101 418.324 759.554 417.668C759.007 417.012 758.242 416.684 757.258 416.684L750.862 417.012V412.092H787.762C805.255 412.092 818.157 415.919 826.466 423.572C834.885 431.116 839.094 443.58 839.094 460.964C839.094 493.655 822.639 510 789.73 510H750.862V505.244ZM775.626 503.276C775.626 504.697 776.282 505.408 777.594 505.408H784.974C794.158 505.408 801.429 503.987 806.786 501.144C812.253 498.192 816.189 493.491 818.594 487.04C821.109 480.589 822.366 471.952 822.366 461.128C822.366 450.304 821.109 441.667 818.594 435.216C816.189 428.765 812.253 424.064 806.786 421.112C801.319 418.16 794.049 416.684 784.974 416.684H777.594C776.282 416.684 775.626 417.395 775.626 418.816V503.276ZM853.042 505.244L859.438 505.572C861.515 505.572 862.554 504.369 862.554 501.964V420.128C862.554 419.144 862.28 418.324 861.734 417.668C861.187 416.903 860.422 416.575 859.438 416.684L853.042 417.012V412.092H887.482V417.012L881.086 416.684H880.758C879.883 416.684 879.172 417.012 878.626 417.668C878.079 418.324 877.806 419.144 877.806 420.128V501.964C877.806 504.369 878.899 505.572 881.086 505.572L887.482 505.244V510H853.042V505.244ZM997.455 505.244V510H953.995V505.244L962.031 505.572C965.311 505.9 966.951 504.588 966.951 501.636C966.951 499.777 966.405 497.645 965.311 495.24L957.275 475.888H919.063L911.519 494.256C909.989 497.645 909.223 500.379 909.223 502.456C909.223 504.752 910.426 505.845 912.831 505.736L920.703 505.244V510H892.331V505.244L896.595 505.572H897.251C899.438 505.572 901.242 504.533 902.663 502.456C904.303 500.051 905.943 496.88 907.583 492.944L941.859 410.452H946.123L980.727 493.272C982.258 497.208 983.843 500.324 985.483 502.62C987.014 504.588 988.927 505.572 991.223 505.572H992.043L997.455 505.244ZM921.031 471.296H955.307L938.087 429.968L921.031 471.296ZM1095.3 412.092V417.012L1088.9 416.684H1088.57C1086.71 416.684 1085.78 417.832 1085.78 420.128V510.984H1080.86L1016.74 423.9V501.964C1016.74 504.369 1017.78 505.572 1019.86 505.572L1027.89 505.244V510H1001.49V505.244L1007.88 505.572C1010.07 505.572 1011.16 504.369 1011.16 501.964V420.128C1011.16 419.144 1010.84 418.324 1010.18 417.668C1009.63 416.903 1008.87 416.575 1007.88 416.684L1001.49 417.012V412.092H1026.91L1080.21 484.58V419.964C1080.21 417.777 1079.28 416.684 1077.42 416.684H1076.93L1068.89 417.012V412.092H1095.3ZM340.221 694.244L346.617 694.572C348.695 694.572 349.733 693.369 349.733 690.964V609.128C349.733 608.144 349.405 607.324 348.749 606.668C348.203 605.903 347.328 605.575 346.125 605.684L340.221 606.012V601.092H377.121C389.257 601.092 398.059 603.169 403.525 607.324C408.992 611.369 411.725 617.984 411.725 627.168C411.725 632.744 409.867 637.609 406.149 641.764C402.541 645.809 397.731 648.652 391.717 650.292C395.107 650.292 398.496 651.44 401.885 653.736C405.384 656.032 408.281 659.367 410.577 663.74C412.873 668.113 414.021 673.197 414.021 678.992C414.021 682.272 414.404 685.607 415.169 688.996C416.044 692.385 417.247 694.189 418.777 694.408C419.433 694.627 420.199 694.736 421.073 694.736C422.385 694.736 423.424 694.517 424.189 694.08V699H401.885C400.573 696.267 399.808 692.659 399.589 688.176C399.371 685.333 399.261 683.256 399.261 681.944V676.532C399.261 668.332 396.583 662.209 391.225 658.164C385.977 654.119 379.527 652.096 371.873 652.096H364.985V690.964C364.985 693.369 366.079 694.572 368.265 694.572L376.301 694.244V699H340.221V694.244ZM380.237 647.668C385.267 647.668 389.203 645.864 392.045 642.256C394.888 638.648 396.309 633.619 396.309 627.168C396.309 619.624 394.724 614.157 391.553 610.768C388.492 607.379 383.681 605.684 377.121 605.684H366.953C365.641 605.684 364.985 606.231 364.985 607.324V647.668H380.237ZM435.514 694.08L442.074 694.572C444.042 694.572 445.026 693.369 445.026 690.964V609.128C445.026 608.144 444.698 607.324 444.042 606.668C443.496 605.903 442.73 605.575 441.746 605.684L435.514 606.012V601.092H504.722C506.253 601.092 507.182 601.037 507.51 600.928V626.348H503.082C503.082 619.023 501.224 613.775 497.506 610.604C493.898 607.324 487.994 605.684 479.794 605.684H462.246C460.934 605.684 460.278 606.449 460.278 607.98V645.7H475.694C479.412 645.7 482.418 644.224 484.714 641.272C487.01 638.32 488.158 634.275 488.158 629.136H492.586V667.02H488.158C488.158 662.209 486.901 658.219 484.386 655.048C481.981 651.877 479.084 650.292 475.694 650.292H460.278V692.276C460.278 693.697 460.934 694.408 462.246 694.408H485.206C492.641 694.408 498.272 692.276 502.098 688.012C506.034 683.748 508.002 677.625 508.002 669.644H512.43V699.492C510.025 699.164 505.214 699 497.998 699H435.514V694.08ZM531.697 665.708C534.211 685.935 544.27 696.048 561.873 696.048C567.339 696.048 571.658 694.244 574.829 690.636C578.109 687.028 579.803 682.272 579.913 676.368C579.913 672.104 578.437 668.387 575.485 665.216C572.642 661.936 568.706 659.312 563.677 657.344L546.949 650.62C541.045 648.215 536.562 644.989 533.501 640.944C530.439 636.899 528.909 632.143 528.909 626.676C528.909 621.756 530.057 617.219 532.353 613.064C534.649 608.909 538.093 605.629 542.685 603.224C547.277 600.709 552.798 599.452 559.249 599.452C562.747 599.452 565.699 599.78 568.105 600.436C570.619 600.983 573.079 601.693 575.485 602.568C577.89 603.333 579.53 603.88 580.405 604.208C582.154 604.864 583.63 605.192 584.833 605.192C586.801 605.192 588.386 604.973 589.589 604.536C589.261 607.16 589.097 611.26 589.097 616.836C589.097 620.116 589.151 622.467 589.261 623.888C589.37 625.309 589.643 626.621 590.081 627.824H585.817C585.817 620.717 583.466 614.977 578.765 610.604C574.173 606.121 568.378 603.88 561.381 603.88C555.695 603.88 551.103 605.465 547.605 608.636C544.106 611.697 542.357 616.016 542.357 621.592C542.357 625.2 543.614 628.48 546.129 631.432C548.643 634.275 552.087 636.571 556.461 638.32L571.549 644.388C579.858 647.777 585.762 651.549 589.261 655.704C592.869 659.749 594.673 664.997 594.673 671.448C594.673 677.133 593.251 682.217 590.409 686.7C587.675 691.073 583.903 694.517 579.093 697.032C574.391 699.437 569.253 700.64 563.677 700.64C560.287 700.64 557.335 700.476 554.821 700.148C552.306 699.929 549.627 699.383 546.785 698.508C540.99 696.868 536.671 696.048 533.829 696.048C532.845 696.048 531.806 696.157 530.713 696.376C529.619 696.595 528.799 696.759 528.253 696.868C528.69 694.572 528.909 690.035 528.909 683.256C528.909 674.4 528.471 668.551 527.597 665.708H531.697ZM603.224 600.6C604.754 600.819 606.941 600.928 609.784 600.928H678.5C681.998 600.928 684.185 600.819 685.06 600.6V626.184H680.796C680.796 619.077 679.21 613.884 676.04 610.604C672.978 607.215 667.84 605.52 660.624 605.52H653.736C652.642 605.52 651.986 606.121 651.768 607.324V690.964C651.768 693.369 652.861 694.572 655.048 694.572L663.74 694.244V699H624.544V694.244L633.4 694.572C634.384 694.572 635.149 694.189 635.696 693.424C636.242 692.549 636.516 691.565 636.516 690.472V607.488C636.516 606.176 635.86 605.52 634.548 605.52H627.824C620.608 605.52 615.414 607.215 612.244 610.604C609.073 613.884 607.488 619.077 607.488 626.184H603.224V600.6ZM780.283 694.244V699H736.823V694.244L744.859 694.572C748.139 694.9 749.779 693.588 749.779 690.636C749.779 688.777 749.233 686.645 748.139 684.24L740.103 664.888H701.891L694.347 683.256C692.817 686.645 692.051 689.379 692.051 691.456C692.051 693.752 693.254 694.845 695.659 694.736L703.531 694.244V699H675.159V694.244L679.423 694.572H680.079C682.266 694.572 684.07 693.533 685.491 691.456C687.131 689.051 688.771 685.88 690.411 681.944L724.687 599.452H728.951L763.555 682.272C765.086 686.208 766.671 689.324 768.311 691.62C769.842 693.588 771.755 694.572 774.051 694.572H774.871L780.283 694.244ZM703.859 660.296H738.135L720.915 618.968L703.859 660.296ZM782.676 601.092H818.592V606.012L810.556 605.684H810.228C809.353 605.684 808.642 606.012 808.096 606.668C807.549 607.324 807.276 608.089 807.276 608.964V666.364C807.276 675.548 809.79 682.709 814.82 687.848C819.958 692.987 827.12 695.556 836.304 695.556C841.552 695.556 846.308 694.299 850.572 691.784C854.836 689.269 858.17 685.825 860.576 681.452C862.981 676.969 864.184 671.995 864.184 666.528V609.128C864.184 608.035 863.91 607.16 863.364 606.504C862.817 605.848 862.106 605.575 861.232 605.684L853.196 606.012V601.092H879.6V606.012L873.204 605.684H872.876C872.001 605.684 871.29 606.012 870.744 606.668C870.197 607.324 869.924 608.089 869.924 608.964V668.004C869.924 674.236 868.338 679.867 865.168 684.896C861.997 689.816 857.624 693.697 852.048 696.54C846.581 699.273 840.349 700.64 833.352 700.64C820.013 700.64 809.79 697.743 802.684 691.948C795.577 686.044 792.024 677.516 792.024 666.364V609.128C792.024 608.144 791.696 607.324 791.04 606.668C790.493 605.903 789.782 605.575 788.908 605.684L782.676 606.012V601.092ZM891.96 694.244L898.356 694.572C900.433 694.572 901.472 693.369 901.472 690.964V609.128C901.472 608.144 901.144 607.324 900.488 606.668C899.941 605.903 899.066 605.575 897.864 605.684L891.96 606.012V601.092H928.86C940.996 601.092 949.797 603.169 955.264 607.324C960.73 611.369 963.464 617.984 963.464 627.168C963.464 632.744 961.605 637.609 957.888 641.764C954.28 645.809 949.469 648.652 943.456 650.292C946.845 650.292 950.234 651.44 953.624 653.736C957.122 656.032 960.02 659.367 962.316 663.74C964.612 668.113 965.76 673.197 965.76 678.992C965.76 682.272 966.142 685.607 966.908 688.996C967.782 692.385 968.985 694.189 970.516 694.408C971.172 694.627 971.937 694.736 972.812 694.736C974.124 694.736 975.162 694.517 975.928 694.08V699H953.624C952.312 696.267 951.546 692.659 951.328 688.176C951.109 685.333 951 683.256 951 681.944V676.532C951 668.332 948.321 662.209 942.964 658.164C937.716 654.119 931.265 652.096 923.612 652.096H916.724V690.964C916.724 693.369 917.817 694.572 920.004 694.572L928.04 694.244V699H891.96V694.244ZM931.976 647.668C937.005 647.668 940.941 645.864 943.784 642.256C946.626 638.648 948.048 633.619 948.048 627.168C948.048 619.624 946.462 614.157 943.292 610.768C940.23 607.379 935.42 605.684 928.86 605.684H918.692C917.38 605.684 916.724 606.231 916.724 607.324V647.668H931.976ZM1080.9 694.244V699H1037.44V694.244L1045.47 694.572C1048.75 694.9 1050.39 693.588 1050.39 690.636C1050.39 688.777 1049.85 686.645 1048.75 684.24L1040.72 664.888H1002.5L994.961 683.256C993.43 686.645 992.665 689.379 992.665 691.456C992.665 693.752 993.867 694.845 996.273 694.736L1004.14 694.244V699H975.773V694.244L980.037 694.572H980.693C982.879 694.572 984.683 693.533 986.105 691.456C987.745 689.051 989.385 685.88 991.025 681.944L1025.3 599.452H1029.56L1064.17 682.272C1065.7 686.208 1067.28 689.324 1068.92 691.62C1070.46 693.588 1072.37 694.572 1074.66 694.572H1075.48L1080.9 694.244ZM1004.47 660.296H1038.75L1021.53 618.968L1004.47 660.296ZM1178.74 601.092V606.012L1172.34 605.684H1172.01C1170.15 605.684 1169.22 606.832 1169.22 609.128V699.984H1164.3L1100.18 612.9V690.964C1100.18 693.369 1101.22 694.572 1103.3 694.572L1111.33 694.244V699H1084.93V694.244L1091.32 694.572C1093.51 694.572 1094.6 693.369 1094.6 690.964V609.128C1094.6 608.144 1094.28 607.324 1093.62 606.668C1093.07 605.903 1092.31 605.575 1091.32 605.684L1084.93 606.012V601.092H1110.35L1163.65 673.58V608.964C1163.65 606.777 1162.72 605.684 1160.86 605.684H1160.37L1152.33 606.012V601.092H1178.74ZM1188.59 600.6C1190.13 600.819 1192.31 600.928 1195.15 600.928H1263.87C1267.37 600.928 1269.56 600.819 1270.43 600.6V626.184H1266.17C1266.17 619.077 1264.58 613.884 1261.41 610.604C1258.35 607.215 1253.21 605.52 1245.99 605.52H1239.11C1238.01 605.52 1237.36 606.121 1237.14 607.324V690.964C1237.14 693.369 1238.23 694.572 1240.42 694.572L1249.11 694.244V699H1209.91V694.244L1218.77 694.572C1219.75 694.572 1220.52 694.189 1221.07 693.424C1221.61 692.549 1221.89 691.565 1221.89 690.472V607.488C1221.89 606.176 1221.23 605.52 1219.92 605.52H1213.19C1205.98 605.52 1200.79 607.215 1197.61 610.604C1194.44 613.884 1192.86 619.077 1192.86 626.184H1188.59V600.6ZM1284.91 665.708C1287.43 685.935 1297.48 696.048 1315.09 696.048C1320.55 696.048 1324.87 694.244 1328.04 690.636C1331.32 687.028 1333.02 682.272 1333.13 676.368C1333.13 672.104 1331.65 668.387 1328.7 665.216C1325.86 661.936 1321.92 659.312 1316.89 657.344L1300.16 650.62C1294.26 648.215 1289.78 644.989 1286.72 640.944C1283.65 636.899 1282.12 632.143 1282.12 626.676C1282.12 621.756 1283.27 617.219 1285.57 613.064C1287.86 608.909 1291.31 605.629 1295.9 603.224C1300.49 600.709 1306.01 599.452 1312.46 599.452C1315.96 599.452 1318.91 599.78 1321.32 600.436C1323.83 600.983 1326.29 601.693 1328.7 602.568C1331.1 603.333 1332.74 603.88 1333.62 604.208C1335.37 604.864 1336.84 605.192 1338.05 605.192C1340.02 605.192 1341.6 604.973 1342.8 604.536C1342.48 607.16 1342.31 611.26 1342.31 616.836C1342.31 620.116 1342.37 622.467 1342.48 623.888C1342.58 625.309 1342.86 626.621 1343.3 627.824H1339.03C1339.03 620.717 1336.68 614.977 1331.98 610.604C1327.39 606.121 1321.59 603.88 1314.6 603.88C1308.91 603.88 1304.32 605.465 1300.82 608.636C1297.32 611.697 1295.57 616.016 1295.57 621.592C1295.57 625.2 1296.83 628.48 1299.34 631.432C1301.86 634.275 1305.3 636.571 1309.68 638.32L1324.76 644.388C1333.07 647.777 1338.98 651.549 1342.48 655.704C1346.08 659.749 1347.89 664.997 1347.89 671.448C1347.89 677.133 1346.47 682.217 1343.62 686.7C1340.89 691.073 1337.12 694.517 1332.31 697.032C1327.61 699.437 1322.47 700.64 1316.89 700.64C1313.5 700.64 1310.55 700.476 1308.04 700.148C1305.52 699.929 1302.84 699.383 1300 698.508C1294.2 696.868 1289.89 696.048 1287.04 696.048C1286.06 696.048 1285.02 696.157 1283.93 696.376C1282.83 696.595 1282.01 696.759 1281.47 696.868C1281.9 694.572 1282.12 690.035 1282.12 683.256C1282.12 674.4 1281.69 668.551 1280.81 665.708H1284.91Z" fill="white"/>
<path d="M1272.45 0.629166C1272.45 1.02402 1274.17 10.1058 1276.4 20.767C1284.3 60.6477 1291.01 81.9701 1303.39 107.241C1323.65 149.096 1351.95 173.577 1391.7 183.58C1403.68 186.739 1425.13 189.767 1426.45 188.582C1426.84 188.187 1427.11 177.789 1427.11 165.417C1427.11 145.674 1426.71 141.331 1423.95 131.591C1413.29 93.2894 1387.36 61.9639 1343.79 35.1135C1330.89 27.0847 1300.36 11.422 1283.91 4.44614C1272.98 -0.292175 1272.45 -0.423798 1272.45 0.629166Z" fill="white"/>
<path d="M407.056 3.91876C404.16 5.36658 393.104 10.4997 382.575 15.5013C307.946 50.7753 270.171 90.5245 260.958 143.304C258.852 154.755 258.326 174.235 259.773 184.764L260.695 190.95L266.749 190.16C291.757 186.87 306.104 183.053 321.503 175.419C360.068 156.071 386.391 117.901 402.317 57.8828C405.871 44.7208 414.295 5.4982 414.295 2.33932C414.295 0.89151 413.11 1.15475 407.056 3.91876Z" fill="white"/>
<path d="M1481.2 60.1212C1464.09 94.6055 1454.22 120.271 1448.56 145.674C1444.35 164.364 1444.35 195.953 1448.56 211.879C1454.62 234.386 1465.94 253.734 1484.23 272.819L1495.29 284.401L1500.55 279.4C1514.77 265.843 1529.24 241.493 1535.04 221.75C1540.83 201.744 1541.35 172.656 1536.35 148.043C1533.46 133.828 1524.24 106.583 1515.95 88.1562C1509.11 72.8883 1492.65 40.7731 1491.6 40.7731C1491.21 40.7731 1486.6 49.46 1481.2 60.1212Z" fill="white"/>
<path d="M186.33 58.147C158.953 109.742 146.975 148.438 146.975 184.502C146.975 202.534 148.292 212.274 152.635 226.094C158.163 244.126 171.325 265.843 184.355 278.742L191.463 285.717L201.598 275.32C214.233 262.552 221.999 251.628 229.501 236.228C237.003 220.829 240.425 206.877 241.478 188.056C243.189 154.361 232.791 117.244 207.126 64.728C200.939 52.3557 195.675 42.0894 195.411 42.0894C195.148 42.0894 191.068 49.3285 186.33 58.147Z" fill="white"/>
<path d="M1301.41 175.025C1301.41 178.052 1318.92 228.594 1324.18 240.966C1348 296.378 1378.93 327.835 1421.18 339.944C1441.06 345.736 1473.17 348.236 1474.62 344.156C1475.02 343.103 1474.75 335.206 1473.96 326.651C1467.78 259.13 1425.79 216.748 1333 184.238C1309.57 175.946 1301.41 173.577 1301.41 175.025Z" fill="white"/>
<path d="M362.305 182.79C310.052 200.427 279.122 217.143 253.851 241.493C227.395 266.895 214.891 295.062 212.259 334.153L211.337 347.841L229.633 347.052C297.68 344.024 341.115 305.197 371.256 220.434C377.178 203.85 385.734 176.209 385.076 175.683C384.812 175.551 374.678 178.71 362.305 182.79Z" fill="white"/>
<path d="M1582.42 233.332C1540.7 285.322 1520.29 322.833 1514.63 358.239C1512.27 372.717 1513.58 399.304 1517.27 411.94C1520.95 424.839 1528.85 441.686 1537.27 454.321C1544.78 465.772 1543.46 465.641 1556.09 456.296C1606.9 418.652 1622.3 360.871 1604.14 277.161C1600.98 262.815 1591.11 227.409 1589.92 226.093C1589.39 225.566 1585.97 228.857 1582.42 233.332Z" fill="white"/>
<path d="M96.6967 227.278C95.5121 229.252 85.2458 266.763 82.6134 278.609C68.0036 345.472 75.111 396.014 104.331 432.604C109.069 438.527 116.045 446.029 119.862 449.188C128.68 456.691 140.921 465.904 142.105 465.904C143.553 465.904 154.346 448.793 160.137 437.342C168.956 419.574 172.378 406.28 173.036 385.484C173.563 371.796 173.299 365.083 171.588 356.528C165.665 327.44 153.425 301.774 129.075 267.422C116.176 249.39 97.4864 226.093 96.6967 227.278Z" fill="white"/>
<path d="M1395.39 364.689C1398.81 446.425 1416.18 494.861 1452.64 524.08C1468.83 536.979 1494.5 549.22 1511.61 551.984L1517 552.905L1520.03 540.664C1524.37 522.896 1524.51 492.36 1520.16 476.434C1512.26 447.214 1493.44 418.916 1464.62 392.724C1449.09 378.641 1420 357.187 1399.6 344.814L1394.47 341.655L1395.39 364.689Z" fill="white"/>
<path d="M270.171 357.713C243.847 375.35 233.055 383.905 215.154 401.279C177.906 437.474 161.585 472.748 163.296 513.945C164.086 533.293 168.561 554.089 171.983 554.089C181.46 554.089 211.206 541.848 226.21 531.582C258.589 509.865 279.648 469.721 287.15 416.152C289.651 398.646 292.283 360.082 291.625 350.473L291.23 343.498L270.171 357.713Z" fill="white"/>
<path d="M1643.36 436.816C1600.98 462.351 1573.6 484.858 1556.36 508.286C1536.22 535.663 1527.93 562.118 1529.51 593.444C1530.17 606.474 1533.06 624.111 1535.69 631.087L1536.88 634.114L1545.83 631.877C1597.42 618.451 1631.91 582.256 1648.89 523.29C1653.76 506.575 1658.76 477.618 1660.6 455.375C1662.84 429.709 1663.23 425.102 1662.84 425.102C1662.71 425.102 1653.89 430.367 1643.36 436.816Z" fill="white"/>
<path d="M23.911 431.946C24.3059 434.315 24.964 441.949 25.3589 448.794C31.4134 541.586 61.1594 599.235 115.913 624.506C124.074 628.323 146.449 635.694 149.608 635.694C150.792 635.694 154.478 620.163 156.452 606.737C158.426 593.839 157.11 569.226 153.951 557.38C143.29 518.552 116.44 486.568 66.161 452.742C53.3939 444.187 26.017 427.734 24.4375 427.734C23.7794 427.734 23.5162 429.709 23.911 431.946Z" fill="white"/>
<path d="M1401.71 506.18C1388.15 569.489 1387.1 617.398 1398.41 651.488C1409.47 685.314 1429.87 708.742 1465.15 728.091C1470.15 730.855 1474.36 732.96 1474.62 732.829C1474.75 732.566 1477.25 727.696 1480.15 721.904C1491.21 699.792 1495.68 678.338 1494.5 655.042C1492 610.423 1467.51 565.804 1416.45 513.419L1403.02 499.599L1401.71 506.18Z" fill="white"/>
<path d="M267.802 517.499C244.111 542.902 231.475 558.565 219.498 577.781C188.041 627.928 183.565 675.311 205.678 721.905C212.127 735.593 211.601 735.067 218.313 731.776C229.896 725.853 245.822 714.665 255.43 705.584C276.884 685.183 289.914 658.859 294.521 627.007C296.627 612.265 296.232 577.386 293.731 558.038C291.625 541.849 284.65 502.89 283.597 501.837C283.202 501.573 276.226 508.549 267.802 517.499Z" fill="white"/>
<path d="M1661.39 621.874C1595.58 632.403 1555.96 648.461 1528.32 675.838C1513.84 690.052 1502.79 708.742 1496.21 730.065C1493.44 738.883 1489.23 762.048 1490.15 762.97C1491.47 764.286 1508.84 765.997 1521.22 765.997C1576.1 765.997 1620.85 734.277 1660.6 667.151C1668.23 654.252 1685.74 620.952 1685.74 619.373C1685.74 618.188 1681.27 618.583 1661.39 621.874Z" fill="white"/>
<path d="M1.00926 620.821C1.00926 621.216 5.87919 631.219 11.9337 642.801C32.0715 681.761 46.418 702.425 68.0037 724.011C89.1944 745.07 108.543 757.047 132.761 763.628C142.369 766.26 146.844 766.655 166.85 766.655C179.486 766.655 191.463 766.26 193.569 765.602C196.991 764.681 197.123 764.286 196.333 759.021C188.567 705.189 163.691 671.231 115.124 648.198C91.1687 636.878 64.0551 629.508 23.253 623.19C-0.965037 619.373 1.00926 619.636 1.00926 620.821Z" fill="white"/>
<path d="M1362.22 687.684C1348.66 732.434 1344.05 760.469 1345.24 790.873C1346.69 828.122 1357.74 854.446 1382.49 879.322C1393.54 890.509 1412.5 904.856 1414.47 903.54C1416.97 902.092 1429.08 881.428 1433.03 871.688C1445.53 841.81 1446.46 812.591 1436.32 777.185C1431.85 761.786 1416.18 729.802 1404.07 711.375C1394.07 696.371 1371.04 664.782 1369.85 664.65C1369.46 664.65 1366.04 675.048 1362.22 687.684Z" fill="white"/>
<path d="M302.681 684.656C245.558 760.732 230.554 819.435 254.245 874.189C258.984 884.982 265.301 896.301 270.303 902.487L273.199 906.172L280.174 901.302C310.315 880.507 328.874 855.236 337.561 823.252C340.983 811.011 341.246 808.247 341.246 784.424C341.246 757.442 340.062 748.097 333.349 720.588C328.742 701.898 317.949 667.282 316.765 667.282C316.238 667.282 309.789 675.18 302.681 684.656Z" fill="white"/>
<path d="M1291.93 777.843C1260.61 835.756 1248.5 872.477 1248.63 909.594C1248.76 947.632 1263.11 979.221 1293.12 1007.26L1297.07 1010.81L1305.36 1002.39C1336.16 970.929 1348.53 930.653 1341.42 883.402C1337.34 855.762 1327.21 826.279 1308.91 789.031L1297.99 766.787L1291.93 777.843Z" fill="white"/>
<path d="M377.836 790.61C364.674 817.724 357.435 835.624 351.776 855.762C337.166 906.172 341.904 949.738 365.727 985.012C372.966 995.542 387.708 1012.13 389.945 1012.13C392.841 1012.13 412.452 989.093 419.691 977.378C441.935 941.183 444.173 900.249 426.667 848.654C421.666 833.518 395.605 778.106 390.077 770.604C388.761 768.761 387.05 771.525 377.836 790.61Z" fill="white"/>
<path d="M1608.87 771.394C1552.94 776 1513.06 789.952 1487.39 813.907C1467.52 832.465 1456.72 850.629 1448.17 879.585L1445.14 889.851L1448.56 891.167C1459.09 895.116 1472.65 896.959 1492.26 896.959C1509.5 896.827 1514.37 896.432 1523.85 893.8C1567.28 881.691 1604.79 849.181 1645.99 787.451C1651.91 778.633 1656.78 771.13 1656.78 770.735C1656.78 769.682 1624.41 770.077 1608.87 771.394Z" fill="white"/>
<path d="M29.9656 772.052C29.9656 774.158 54.9733 810.353 65.8977 823.91C79.5862 840.889 102.356 863.264 115.518 872.477C128.68 881.691 145.791 890.246 159.874 894.59C170.535 897.748 173.431 898.143 194.49 898.143C214.365 898.275 219.103 897.88 229.633 895.248L241.61 892.22L239.109 882.744C221.077 817.592 175.932 784.161 92.8798 774.684C72.6103 772.315 29.9656 770.472 29.9656 772.052Z" fill="white"/>
<path d="M1193.88 885.771C1160.31 918.939 1141.36 943.947 1130.31 969.613C1116.75 1001.2 1115.17 1030.16 1125.3 1062.14C1128.46 1072.14 1136.75 1091.1 1138.99 1093.6C1139.26 1093.86 1143.73 1091.89 1149 1089.12C1187.96 1069.38 1212.44 1036.08 1221.65 990.277C1226.91 964.216 1226.65 923.151 1221.12 884.718C1219.68 874.847 1218.49 865.896 1218.49 864.975C1218.49 864.185 1217.96 863.396 1217.44 863.396C1216.91 863.396 1206.25 873.399 1193.88 885.771Z" fill="white"/>
<path d="M467.206 874.978C461.546 912.358 459.835 954.345 462.862 978.168C466.153 1003.18 474.445 1027.26 485.896 1045.16C493.661 1057.14 510.509 1073.99 522.881 1082.02C532.358 1088.2 544.993 1095.05 546.967 1095.05C549.995 1095.05 562.104 1065.04 565.789 1048.32C568.685 1035.29 568.027 1008.31 564.473 995.015C558.155 971.324 547.626 950.791 529.989 927.889C520.38 915.385 486.159 879.453 474.708 869.845L468.654 864.844L467.206 874.978Z" fill="white"/>
<path d="M1446.98 915.386C1405.52 922.098 1374.72 941.578 1353.27 974.614C1346.03 985.802 1339.58 997.911 1339.58 1000.28C1339.58 1002.65 1361.17 1012.13 1374.46 1015.42C1420.92 1027.26 1466.2 1013.97 1516.61 973.956C1522.4 969.349 1536.88 955.924 1548.72 944.21L1570.44 923.019L1561.23 921.44C1528.98 915.78 1516.74 914.464 1488.31 914.069C1466.59 913.675 1455.54 913.938 1446.98 915.386Z" fill="white"/>
<path d="M172.115 916.175C160.137 917.492 117.756 923.941 117.098 924.599C116.308 925.389 151.845 960.136 162.901 969.481C190.015 992.383 220.946 1009.89 245.822 1016.73C268.46 1022.92 294.784 1022.52 316.765 1015.81C331.243 1011.47 347.169 1004.1 347.169 1001.86C347.169 998.569 335.586 978.431 327.294 967.507C305.051 937.893 274.12 921.177 232.66 916.044C219.629 914.464 188.172 914.596 172.115 916.175Z" fill="white"/>
<path d="M1100.69 984.749C1098.59 985.275 1087.27 987.908 1075.68 990.54C987.367 1010.55 940.247 1045.82 924.979 1103.6C922.083 1114.66 918.661 1140.45 919.978 1141.77C921.689 1143.48 956.305 1142.43 966.966 1140.45C1014.74 1131.24 1052.39 1096.76 1084.63 1032.4C1091.61 1018.44 1105.56 985.802 1105.03 984.486C1104.77 984.091 1102.93 984.091 1100.69 984.749Z" fill="white"/>
<path d="M581.452 986.197C581.452 988.039 592.639 1013.84 600.405 1029.89C615.541 1061.22 629.888 1083.07 647.13 1100.71C668.847 1123.21 690.696 1135.72 718.863 1142.03C728.602 1144.14 764.666 1145.19 766.509 1143.35C768.088 1141.9 764.929 1117.03 761.771 1104.92C760.191 1099.13 756.374 1088.86 753.084 1082.02C731.761 1036.74 688.853 1010.02 607.381 991.198C584.874 986.065 581.452 985.275 581.452 986.197Z" fill="white"/>
<path d="M1307.33 1028.05C1277.19 1031.08 1250.61 1043.58 1228.76 1065.3C1219.54 1074.38 1207.96 1088.6 1207.96 1090.83C1207.96 1092.81 1226.39 1105.05 1237.84 1110.84C1255.08 1119.4 1269.03 1122.95 1289.57 1123.61C1322.73 1124.79 1353.01 1116.5 1391.57 1095.31C1404.47 1088.33 1448.83 1059.51 1448.83 1058.19C1448.83 1057.01 1402.36 1041.08 1385.52 1036.61C1357.61 1029.1 1328.92 1025.95 1307.33 1028.05Z" fill="white"/>
<path d="M341.904 1030.03C340.061 1030.29 334.533 1031.21 329.4 1032C309.921 1035.03 274.515 1045.43 241.347 1058.19L237.53 1059.64L245.953 1065.7C262.932 1078.2 289.125 1094.13 307.025 1102.94C340.983 1119.66 363.49 1125.58 391.92 1125.58C412.584 1125.45 427.983 1122.29 445.225 1114.26C455.229 1109.66 476.551 1096.23 478.262 1093.6C479.446 1091.49 472.866 1082.54 460.757 1069.91C442.461 1050.95 423.245 1039.37 399.817 1033.18C390.867 1030.82 384.286 1030.16 366.912 1029.89C354.934 1029.63 343.747 1029.63 341.904 1030.03Z" fill="white"/>
<path d="M1127.54 1111.5C1116.22 1113.6 1101.48 1118.74 1090.69 1124.13C1082.79 1128.08 1067 1138.48 1062.26 1142.82L1059.36 1145.46L1065.02 1152.83C1079.24 1171.25 1100.95 1188.23 1120.43 1196.26C1150.84 1208.9 1189.8 1210.08 1236.26 1199.68C1253.24 1195.87 1300.09 1181.13 1300.09 1179.55C1300.09 1178.49 1266.66 1154.54 1255.34 1147.43C1229.68 1131.11 1204.67 1119.79 1182.82 1114.26C1165.45 1109.79 1142.15 1108.73 1127.54 1111.5Z" fill="white"/>
<path d="M521.96 1112.16C487.212 1116.5 446.937 1135.98 399.29 1171.39L386.129 1181.13L390.077 1182.84C397.974 1186.26 426.536 1195.21 441.54 1199.03C466.022 1205.21 479.183 1207.19 501.296 1207.84C539.597 1209.16 567.5 1201.53 593.166 1182.57C602.511 1175.6 617.121 1161.12 623.438 1152.3L627.65 1146.51L619.358 1140.32C588.822 1117.82 554.733 1107.95 521.96 1112.16Z" fill="white"/>
<path d="M835.872 1142.43C815.735 1147.17 804.942 1169.28 813.629 1187.84C825.474 1213.37 861.407 1212.98 872.726 1187.18C880.491 1169.67 870.883 1148.62 852.456 1143.22C844.954 1140.98 842.453 1140.85 835.872 1142.43Z" fill="white"/>
<path d="M966.439 1167.04C945.512 1169.67 923.531 1177.83 904.183 1190.08L897.207 1194.55L904.052 1205.08C917.214 1224.95 940.247 1245.09 959.727 1253.65C999.607 1271.29 1049.36 1271.42 1118.85 1253.91L1135.7 1249.7L1119.51 1235.75C1087.66 1208.37 1068.97 1195.34 1044.09 1183.1C1016.59 1169.67 989.736 1164.15 966.439 1167.04Z" fill="white"/>
<path d="M692.67 1168.89C651.21 1174.54 609.75 1198.5 552.759 1249.83C551.311 1251.02 554.865 1252.33 570.527 1256.02C611.33 1265.89 627.914 1268.13 658.449 1267.99C691.354 1267.99 711.755 1263.52 734.131 1251.54C752.557 1241.67 769.8 1225.61 782.698 1206.4L789.543 1196.39L781.251 1191C753.874 1173.36 720.705 1165.07 692.67 1168.89Z" fill="white"/>
</svg>
