<svg width="18" height="18" viewBox="0 0 95 95" fill="#9b770d" xmlns="http://www.w3.org/2000/svg">
    <path d="M47.5 0C21.3 0 0 21.3 0 47.5C0 73.7 21.3 95 47.5 95C73.7 95 95 73.7 95 47.5C95 21.3 73.7 0 47.5 0ZM78.3 72.9L61.2 55.8C60.9 56.2 60.4 56.6 60 57C60.3 58.2 60.3 59.5 59.8 60.6C59.5 61.4 59 62.5 58.3 63.6L72.9 78.3C65.7 84.2 56.7 87.5 47.5 87.5C25.5 87.4 7.6 69.5 7.6 47.5C7.6 38.3 10.9 29.3 16.8 22.1L33.4 38.7C34 37 34.7 35.6 35.3 34.6C35.9 33.6 36.8 32.9 37.8 32.4L22.1 16.8C29.3 10.8 38.3 7.6 47.5 7.6C69.5 7.6 87.4 25.5 87.4 47.5C87.4 56.7 84.2 65.7 78.3 72.9Z" fill="#9b770d"/>
    <path d="M37.6 65.6C37.2 65.4 36.7 65.6 36.5 66L32.2 73.9C32 74.3 32.1 74.9 32.6 75.1L34.9 76.2C35.3 76.4 35.9 76.2 36.1 75.8L39.8 67.6C40 67.2 39.8 66.7 39.4 66.5L37.6 65.6Z" fill="#9b770d"/>
    <path d="M54.6 34.4C56.2 33.8 59.9 32.2 61.5 28.9C63.1 25.6 62.2 21.7 61.7 20.1C61.6 19.7 61.1 19.4 60.7 19.6C59.1 20.2 55.4 21.8 53.8 25.1C52.2 28.4 53.1 32.3 53.6 33.9C53.8 34.3 54.2 34.6 54.6 34.4Z" fill="#9b770d"/>
    <path d="M65.7 35.5C64.1 35 60.2 33.9 56.9 35.4C53.6 36.9 51.8 40.6 51.2 42.1C51 42.5 51.2 43 51.7 43.1C53.3 43.6 57.2 44.7 60.5 43.2C63.8 41.7 65.6 38 66.2 36.5C66.4 36.1 66.1 35.6 65.7 35.5Z" fill="#9b770d"/>
    <path d="M48.5 41.6C48.9 41.8 49.4 41.7 49.6 41.4C50.5 39.9 52.3 36.3 51.5 32.8C50.7 29.2 47.5 26.8 46.1 25.8C45.7 25.6 45.2 25.7 45 26C44.1 27.5 42.3 31.1 43.1 34.6C43.9 38.2 47.1 40.7 48.5 41.6Z" fill="#9b770d"/>
    <path d="M60.2 46.6C58.6 46.1 54.7 45 51.4 46.5C48.1 48 46.3 51.7 45.7 53.2C45.5 53.6 45.7 54.1 46.2 54.2C47.8 54.7 51.7 55.8 55 54.3C58.3 52.8 60.1 49.1 60.7 47.6C60.8 47.2 60.6 46.8 60.2 46.6Z" fill="#9b770d"/>
    <path d="M43 52.8C43.4 53 43.9 52.9 44.1 52.6C45 51.1 46.8 47.5 46 44C45.2 40.4 42 38 40.6 37C40.2 36.8 39.7 36.9 39.5 37.2C38.6 38.7 36.8 42.3 37.6 45.8C38.4 49.4 41.6 51.8 43 52.8Z" fill="#9b770d"/>
    <path d="M54.7 57.8C53.1 57.3 49.2 56.2 45.9 57.7C42.6 59.2 40.8 62.9 40.2 64.4C40 64.8 40.2 65.3 40.7 65.4C42.3 65.9 46.2 67 49.5 65.5C52.8 64 54.6 60.3 55.2 58.8C55.3 58.4 55.1 57.9 54.7 57.8Z" fill="#9b770d"/>
    <path d="M37.5 63.9C37.9 64.1 38.4 64 38.6 63.7C39.5 62.2 41.3 58.6 40.5 55.1C39.7 51.5 36.5 49.1 35.1 48.1C34.7 47.9 34.2 48 34 48.3C33.1 49.8 31.3 53.4 32.1 56.9C32.9 60.5 36.1 63 37.5 63.9Z" fill="#9b770d"/>
</svg>
