<svg width="79" height="79" xmlns="http://www.w3.org/2000/svg">
    <path d="M44.122 2.245L75.773 32.81a8 8 0 01.198 11.312L45.406 75.773a8 8 0 01-11.312.198L2.443 45.406a8 8 0 01-.198-11.312L32.81 2.443a8 8 0 0111.312-.198zM34.25 3.832L3.684 35.483a6 6 0 00.148 8.484l31.651 30.565a6 6 0 008.484-.148l30.565-31.651a6 6 0 00-.148-8.484L42.733 3.684a6 6 0 00-8.484.148zM30.336 28.59c.765-.767 1.988-.789 2.724-.05l3.707 3.715c.736.739.715 1.964-.05 2.73l-.616.62-1.253 1.253c.065.115.131.236.2.361.656 1.183 1.552 2.803 3.256 4.51 1.698 1.703 3.312 2.6 4.49 3.256l.37.205 1.867-1.871c.764-.766 1.986-.788 2.724-.051l3.707 3.715c.736.74.714 1.966-.05 2.733l-1.058 1.038-.023-.02a6.02 6.02 0 01-1.512.859 6.25 6.25 0 01-1.545.389c-.241.025-5.847.552-12.802-6.419-5.032-5.043-6.886-8.76-6.396-12.826a6.32 6.32 0 01.383-1.543c.217-.558.51-1.074.86-1.522l-.028-.029z" fill="#000" fill-rule="nonzero"/>
</svg>
