<svg width="79" height="79" xmlns="http://www.w3.org/2000/svg">
    <path d="M44.122 2.245L75.773 32.81a8 8 0 01.198 11.312L45.406 75.773a8 8 0 01-11.312.198L2.443 45.406a8 8 0 01-.198-11.312L32.81 2.443a8 8 0 0111.312-.198zM34.25 3.832L3.684 35.483a6 6 0 00.148 8.484l31.651 30.565a6 6 0 008.484-.148l30.565-31.651a6 6 0 00-.148-8.484L42.733 3.684a6 6 0 00-8.484.148zM38.999 24C45.066 24 50 28.955 50 35.045c0 1.588-.324 3.105-.962 4.508-2.751 6.043-8.024 12.423-9.574 14.234a.612.612 0 01-.928 0c-1.55-1.812-6.824-8.191-9.574-14.234A10.81 10.81 0 0128 35.045C28 28.955 32.935 24 39 24zM39 30c-2.757 0-5 2.243-5 5s2.243 5 5 5 5-2.243 5-5-2.243-5-5-5z" fill="#000" fill-rule="nonzero"/>
</svg>
