<svg width="79" height="79" xmlns="http://www.w3.org/2000/svg">
    <path d="M44.434 2.397l31.651 30.565a8 8 0 01.198 11.312l-30.565 31.65a8 8 0 01-11.312.198L2.755 45.557a8 8 0 01-.198-11.312l30.565-31.65a8 8 0 0111.312-.198zm-9.873 1.587L3.996 35.634a6 6 0 00.148 8.485l31.651 30.565a6 6 0 008.484-.149l30.565-31.65a6 6 0 00-.148-8.484L43.045 3.836a6 6 0 00-8.484.148zm9.24 44.315l6.499 1.714A7.885 7.885 0 0155.99 56h-9.118v-4.285a.714.714 0 00-.506-.684l-4.325-1.298a3.402 3.402 0 001.76-1.434zm-9.567.002c.603 1.158 2.405 1.958 4.666 1.985l6.543 1.96V56H22.041a7.886 7.886 0 015.694-5.984zm8.352 4.128a1.428 1.428 0 100 2.857 1.428 1.428 0 000-2.857zm0-6.384v1.385c0 .582-1.39 1.428-3.57 1.428-2.18 0-3.572-.846-3.572-1.428v-1.385a9.843 9.843 0 007.142 0zm5-13.613v4.285a8.57 8.57 0 01-17.14 0v-4.285h17.14zm-6.428 7.142h-4.285a.714.714 0 00-.714.714 2.857 2.857 0 005.713 0 .714.714 0 00-.714-.714zm-.906 1.428a1.429 1.429 0 01-2.473 0zm-1.95-7.142h-1.429v2.857a2.143 2.143 0 004.285 0V33.86H39.73v2.857a.714.714 0 01-1.428 0V33.86zm10.712.714a1.428 1.428 0 110 2.857zm-19.997 0v2.857a1.428 1.428 0 010-2.857zm5.713-1.428a.714.714 0 100 1.428.714.714 0 000-1.428zm8.57 0a.714.714 0 100 1.428.714.714 0 000-1.428zm5-3.571v1.428H29.731v-1.428H48.3zM39.015 16a4.278 4.278 0 014.27 4.019.715.715 0 001.193.484 3.57 3.57 0 113.583 6.007.714.714 0 00-.475.673v.963H30.445v-.963a.713.713 0 00-.476-.673 3.567 3.567 0 113.584-6.007.714.714 0 001.192-.484A4.278 4.278 0 0139.015 16z" fill="#000" fill-rule="nonzero"/>
</svg>
