<svg width="79" height="79" xmlns="http://www.w3.org/2000/svg">
    <path d="M44.434 2.397l31.651 30.565a8 8 0 01.198 11.312l-30.565 31.65a8 8 0 01-11.312.198L2.755 45.557a8 8 0 01-.198-11.312l30.565-31.65a8 8 0 0111.312-.198zm-9.873 1.587L3.996 35.634a6 6 0 00.148 8.485l31.651 30.565a6 6 0 008.484-.149l30.565-31.65a6 6 0 00-.148-8.484L43.045 3.836a6 6 0 00-8.484.148zM57.4 49.8l-1.92 2.56A5.63 5.63 0 0151 54.6H25.4a5.63 5.63 0 01-4.48-2.24L19 49.8h38.4zM38.2 34.6c9.044 0 18.688 3.594 19.177 13.6H19.023c.489-10.006 10.133-13.6 19.177-13.6zm16.137 9.253l-1.416.746c.26.495.482 1.01.663 1.54l1.514-.517c-.207-.608-.462-1.2-.761-1.77zm-7.033-6.03l-.586 1.487a12.147 12.147 0 015.242 3.786l1.264-.978a13.711 13.711 0 00-5.92-4.295zM38.2 30.6a1.6 1.6 0 011.6 1.6c0 .292-.08.578-.234.826-.45-.016-.903-.026-1.366-.026-.462 0-.916.01-1.366.026a1.569 1.569 0 01-.234-.826 1.6 1.6 0 011.6-1.6zm-16-2.4v1.6h1.6v1.6h-1.6V33h-1.6v-1.6H19v-1.6h1.6v-1.6h1.6zm35.2-4.8V25H59v1.6h-1.6v1.6h-1.6v-1.6h-1.6V25h1.6v-1.6h1.6z" fill="#000" fill-rule="nonzero"/>
</svg>
