<svg width="32" height="40" viewBox="0 0 32 40" fill="none" xmlns="http://www.w3.org/2000/svg">
<path fill-rule="evenodd" clip-rule="evenodd" d="M2.77432 30.4673C-1.01268 34.4088 0.177193 37.8597 0.177193 38.897C0.178029 39.1609 0.283478 39.4138 0.470429 39.6002C0.657381 39.7865 0.910586 39.8912 1.17456 39.8912C1.43853 39.8912 1.69174 39.7865 1.87869 39.6002C2.06564 39.4138 2.17109 39.1609 2.17192 38.897C2.17192 38.0253 1.05492 35.0711 4.31126 31.7479C20.4944 29.1757 25.0145 26.033 28.607 20.5834C30.3803 17.8935 31.26 14.1734 31.648 10.6687C31.9874 7.42274 32.0244 4.1523 31.7587 0.899516C31.7409 0.718378 31.6739 0.545563 31.5648 0.399811C31.4558 0.254059 31.309 0.140934 31.1403 0.0727013C30.9715 0.00446898 30.7873 -0.0162658 30.6077 0.0127457C30.428 0.0417573 30.2597 0.119408 30.121 0.237276C26.7868 3.06978 24.7253 4.66755 15.7341 5.32182C9.39683 5.7826 5.63677 7.92792 3.46852 10.7345C0.229064 14.9284 0.540233 20.732 1.42589 25.1463C1.84977 27.2548 2.39035 29.0281 2.67758 30.1062C2.71348 30.2429 2.74739 30.3635 2.77432 30.4673ZM4.31225 31.7469L2.77432 30.4673C2.77432 30.4673 3.39069 28.9234 4.21252 27.1909C5.58295 24.2531 7.41127 21.5515 9.62918 19.1871C10.3463 15.5966 9.08363 13.7605 9.08363 13.7605C9.00565 13.6551 8.94921 13.5353 8.91757 13.4081C8.88592 13.2808 8.87968 13.1486 8.89921 13.0189C8.91874 12.8892 8.96364 12.7647 9.03136 12.6524C9.09908 12.5401 9.18828 12.4423 9.29386 12.3645C9.39943 12.2868 9.51931 12.2306 9.64662 12.1992C9.77394 12.1678 9.90619 12.1618 10.0358 12.1816C10.1654 12.2014 10.2899 12.2466 10.402 12.3145C10.5142 12.3825 10.6118 12.4719 10.6894 12.5776C11.5255 13.9082 11.9305 15.4644 11.8493 17.0338C13.5248 15.569 15.367 14.3067 17.3378 13.2728C17.9901 12.9297 18.5955 12.6455 19.1629 12.3901C19.3893 12.0266 19.5299 11.6163 19.5739 11.1903C19.6841 10.5591 19.7368 9.91915 19.7315 9.27839C19.7282 9.14726 19.7509 9.01679 19.7982 8.89444C19.8454 8.7721 19.9164 8.66028 20.0069 8.56539C20.0975 8.47051 20.2059 8.39442 20.3259 8.3415C20.4459 8.28857 20.5752 8.25984 20.7063 8.25695C20.8374 8.25406 20.9678 8.27708 21.0901 8.32467C21.2123 8.37227 21.3239 8.44351 21.4186 8.53432C21.5132 8.62512 21.589 8.73371 21.6416 8.85386C21.6942 8.97401 21.7226 9.10336 21.7252 9.2345C21.7295 9.92173 21.6808 10.6083 21.5796 11.288C22.4491 10.8668 23.2493 10.3152 23.9523 9.65235C23.9952 9.61046 24.0391 9.56857 24.0829 9.52469C24.1763 9.4325 24.287 9.35963 24.4085 9.31026C24.5301 9.2609 24.6602 9.236 24.7914 9.237C24.9226 9.23799 25.0524 9.26487 25.1732 9.31607C25.294 9.36728 25.4035 9.44182 25.4955 9.53542C25.5874 9.62902 25.66 9.73984 25.7091 9.86154C25.7582 9.98323 25.7827 10.1134 25.7814 10.2446C25.7801 10.3758 25.7529 10.5055 25.7014 10.6262C25.6499 10.7469 25.5751 10.8562 25.4812 10.9479C25.4304 10.9968 25.3805 11.0467 25.3306 11.0935C23.672 12.6813 21.9316 13.2638 19.5759 14.3848C20.8533 14.5941 22.0795 15.0439 23.1893 15.7103C23.4093 15.8563 23.5625 16.0836 23.6152 16.3423C23.668 16.601 23.616 16.8701 23.4706 17.0906C23.3253 17.311 23.0985 17.4649 22.8399 17.5183C22.5813 17.5718 22.3121 17.5206 22.0912 17.3759C21.0827 16.7511 19.9374 16.381 18.7539 16.2974C17.5705 16.2138 16.3845 16.4193 15.2982 16.8962C15.2536 16.9185 15.2072 16.9372 15.1596 16.952C13.4075 18.2107 11.8103 19.672 10.4012 21.3055C12.2382 20.7795 14.1697 20.6708 16.0542 20.9873C16.3126 21.0431 16.5383 21.1991 16.6818 21.4211C16.8252 21.6431 16.8747 21.913 16.8194 22.1714C16.764 22.4299 16.6083 22.6558 16.3865 22.7996C16.1646 22.9434 15.8948 22.9932 15.6363 22.9382C12.9126 22.4917 10.1226 23.1336 7.86783 24.7255L7.83392 24.7494C6.92557 26.2539 6.11375 27.8146 5.40337 29.422C5.36347 29.5108 4.31225 31.7469 4.31225 31.7469Z" fill="#6ABF5B"/>
</svg>
